<svg xmlns="http://www.w3.org/2000/svg" viewBox="0 0 303.13 395.17">
  <title>Eyeballlicking</title>
  <g>

    <path d="M392.42,286.84s103.29,53.58,139.79,4.66c0,0,8.54-4.66,6.21-52s-17.86-104.59,23.3-94.23c0,0-48.15-58-98.63-34.68,0,0-72.22-39.36-101.73,34.68C361.36,145.24,362.14,261.21,392.42,286.84Z" transform="translate(-258.59 -100.1)" fill="#f39f9e"/>
    <path d="M451.44,223.94s1.12-109.66,11.65-113.38c0,0-15.53,5.44-17.86,31.06S451.44,223.94,451.44,223.94Z" transform="translate(-258.59 -100.1)" fill="#ed6b67"/>
    <path d="M534.49,194.31s10.93,38.95-23.24,82.43-100.18,5.44-113.38-5.44-32.37-65.21-32.37-65.21,6,66.77,23.09,76.82S453,320.27,498.82,312.1s39.72-46.26,39.72-46.26Z" transform="translate(-258.59 -100.1)" fill="#ed6b67"/>
    <path d="M538.81,150.94s13.65-8.54,21.19-6.83S544.91,137.45,538.81,150.94Z" transform="translate(-258.59 -100.1)" fill="#ed6b67"/>
  </g>
  <g>
    <path d="M349.6,322.23s-87.59-2.59-90.91,92.13c0,0,2.2,77.63,86.16,80.74S431,411.74,431,412.78,433,331.08,349.6,322.23Z" transform="translate(-258.59 -100.1)" fill="#fef5f1" stroke="#c6c5ba" stroke-miterlimit="10" stroke-width="0.2"/>
    <path d="M371.34,347.54s-42.45-2.07-29,46.08c0,0,10.14,25.89,40.54,22.78s25.22-37.28,25.22-37.28S402.41,352.72,371.34,347.54Z" transform="translate(-258.59 -100.1)" fill="#6cb758" stroke="#3aaa35" stroke-miterlimit="10" stroke-width="2"/>
    <path d="M375.29,393.75" transform="translate(-258.59 -100.1)" fill="none" stroke="#fffce4" stroke-miterlimit="10"/>
    <path d="M371.21,360.55s-18.76-2-13.85,21.54c0,0,1.61,10.88,17.92,11.66,0,0,14.76-.39,14.17-13.78S377.73,359.65,371.21,360.55Z" transform="translate(-258.59 -100.1)" fill="#1d1d1b" stroke="#1d1d1b" stroke-miterlimit="10"/>
    <path d="M371.33,357.53s-6.86-.71-5.06,7.87c0,0,.59,4,6.55,4.26,0,0,5.39-.14,5.18-5S373.71,357.2,371.33,357.53Z" transform="translate(-258.59 -100.1)" fill="#fff" stroke="#fff" stroke-miterlimit="10"/>
    <path d="M296.47,351.62s-33,43.88-8.74,80.38,45.24,40,69.7,41.16,43.68-15.92,43.68-15.92-25.24,36.89-75.33,24.66S267.93,418,268.51,411.42,275.31,363.85,296.47,351.62Z" transform="translate(-258.59 -100.1)" fill="#c6c5ba"/>
  </g>
</svg>
