<svg id="Layer_1" data-name="Layer 1" xmlns="http://www.w3.org/2000/svg" viewBox="0 0 299.25 254.87"><title>fetishes</title><path d="M310.49,181.79s-14.16,10.25,1.78,21.94c0,0-7.51,4.51-4.68,24.42,0,0-8.83,18.91-.5,29.27,0,0-5.4,8.88-.81,23.45,0,0-7,14,2.76,17.2a17.51,17.51,0,0,0,19-1.54s15.67-25.19-2.61-32.15c0,0,12.62-13.37,5.36-31,0,0,12.12,2.91,19.31-.92,0,0,11.77,10.74,21.09-.41,0,0,11-6.74-1.26-15.49s-25.93-.49-25.93-.49-10.78-6.92-13.23-3.47l-2.45,3.45s6.6-19.38.51-18.88c0,0,21.56,5.39,25.83-.8,0,0,13.2,10.62,19,3,0,0,13.05-10.81,4.14-19.83,0,0-24.74-11-24.63-1.25,0,0-18.35-16.15-26.69-1.45C326.44,176.87,314,165,310.49,181.79Z" transform="translate(-266.57 -170.2)" fill="#f7baba" stroke="#000" stroke-miterlimit="10"/><path d="M377.91,171.3s-10.82,9.45.77,22c0,0-11.25,14.83-1.39,30.91,0,0-13.64,9.14-2.42,32.71,0,0-13.44,26.39,2.45,38.14,0,0,15.87,11.1,23.5-.83,0,0,5.27,8.89,18.12,4.55,0,0,10.13,6.12,18,.34s-.56-16-.56-16-14.68-12.33-23-3.61c0,0-10.31-11.3-17.41-2,0,0-5.11-4.36-8.16-3s18-16.18,5.23-27.4c0,0,10.93-6.22,3.83-14.39,0,0,12.9,14.39,19.93,3.16,0,0,9.48,13.3,21.63,2.5,0,0,13.57-5.66,4.4-19.59,0,0-15-2.53-25.88,3.92,0,0-8.42-10.48-19.44-6.86,0,0,8.69-17.15.6-18.16,0,0,21.35,8.32,21.63-1.41,0,0,12.71,9.27,19.91,2.54,0,0,12.79-6.28,7.45-17.11,0,0-18.42-13-26.07-1.67,0,0-18.92-9.7-28.57-2.23C392.39,177.92,390.83,168.9,377.91,171.3Z" transform="translate(-266.57 -170.2)" fill="#f7baba" stroke="#000" stroke-miterlimit="10"/><text x="-266.57" y="-170.2"></text><path d="M434.21,177.73s-16.19,6.69,0,18.78c0,0,10.35,10.74,16.83,0,0,0,8.41,6.71,16.19,2,0,0-14.9,13.4,0,22.13,0,0-7.78,7.57,0,15.52,0,0-7.13,8.61,0,16.67,0,0-6.48,11.4,0,20.79,0,0-11,11.75,0,21.31,0,0,7.13,10.89,12.31,5.53s5.86-24.81,0-28.84c0,0,14.11-14.74,4.15-26.15,0,0,8.2-27.49-4.11-26.16,0,0,12.33-15.41,0-18.11,0,0,21.35,4.71,25.24-2,0,0,7.12,6.71,14.24,1.35,0,0,13.61-18.1-3.87-22.8,0,0-17.48-7.39-22,3.34,0,0-3.86-9-13.58-5.84s-17.49-2.24-16.2,7.15c0,0-18.77-7.39-15.54,3.34C447.8,185.79,448.87,175.71,434.21,177.73Z" transform="translate(-266.57 -170.2)" fill="#f7baba" stroke="#000" stroke-miterlimit="10"/><path d="M524.9,179.7s-11,9.06,0,21.37c0,0-16.87,6.46,0,20.72,0,0-13.94,9.26,0,18.56,0,0-17.6,11.21,0,23.53,0,0-20.54,17.24,0,25.14,0,0-11,8.6,0,12.45s14.66,8.46,18.33,0,2.21-16.87-5.85-21.41c0,0,11-18.12,0-24.6,0,0,13.2-9.51,3.68-19.33,0,0,11.74-18.86,0-20.17,0,0,5.88-15.54-2.18-20.07,0,0,20-12.93,7.43-16.18S524.9,179.7,524.9,179.7Z" transform="translate(-266.57 -170.2)" fill="#f7baba" stroke="#000" stroke-miterlimit="10"/><path d="M327.39,299.38c-3.89-2.06-17.6-8-21.63,8a.48.48,0,0,1-.44.36c-2.16.11-13.21,1.29-9.19,13.54a.46.46,0,0,1-.37.59c-2.86.47-15.56,3.31-4.55,15a.43.43,0,0,1,.1.17c.42,1.4,5.73,17.79,19.39,10.08a.48.48,0,0,1,.72.27c.54,2.21,3,9.39,11.33,4.83a.46.46,0,0,1,.67.56c-1.38,3.09-3.36,10.38,7,13a.45.45,0,0,1,.36.46c-.16,2.12-.26,12.67,14.07,11.77,0,0-22.87-4.33-18.66,9.05a.47.47,0,0,1-.69.54c-4.35-2.28-20.07-9.32-18.21,8.9a.46.46,0,0,1-.35.49c-3.74,1-32.67,9.25-14,22.85a.49.49,0,0,0,.27.1c2.37.09,32.15,1,28.93-11.73a.47.47,0,0,1,.6-.54c4.39,1.23,20.29,2.81,17.41-9-.07-.29,4.28,2.84,4.59,2.84,3.6,0,21.27-.43,16-11.18a.44.44,0,0,1,.11-.53c1.73-1.47,10.94-10.09-.36-17.62a.43.43,0,0,1-.2-.38c.13-2.33.81-20.75-11.66-17.77a.47.47,0,0,1-.6-.38c-.34-3.08-2.7-18.78-15.48-17.33-13.28,1.51-4.89-8.73-19.3-5.58a.45.45,0,0,1-.38-.81c2.09-1.38,4.45-3.41,3.64-5.15a.46.46,0,0,1,.58-.6c3.14.92,9.07,1.79,8.8-4.89a.48.48,0,0,1,.55-.48c2.42.33,11.53,1.1,11.31-5.94a.48.48,0,0,1,.66-.44c2.91,1.14,13.73,4.68,14.44-5.38a.45.45,0,0,1,.2-.34c1.6-1.06,12.84-8.89,4.4-13.55a.44.44,0,0,1-.23-.29c-.23-1.06-1.77-6.23-9.19-3.06a.49.49,0,0,1-.66-.27c-.56-1.64-2.91-6.5-10-.9a.49.49,0,0,1-.19.09c-1,.23-8.7,2.24-5.59,6.67a.46.46,0,0,1-.51.7c-1.64-.41-3.81-.43-3.06,2.72A.48.48,0,0,1,327.39,299.38Z" transform="translate(-266.57 -170.2)" fill="#f7baba" stroke="#000" stroke-miterlimit="10"/><path d="M366.48,290.38s-17.27,11.33,0,26.44c0,0-16.31,5.19-3.86,24.72,0,0-12.25,7.64-.44,17.35,0,0-9.76,5.39,4.25,18.34,0,0-19.9,9.69-9.42,20.49,0,0-8.46,17.38,3.16,18.4,0,0,6.22,9.06,12.7,5s5.41-18,0-21.28c0,0,9.62-7.18,4.47-13.52,0,0,11.76-20.7,3.73-23.24,0,0,14.78,15.23,22.82,0,0,0,1.26,5.29,6.34,2,0,0-9.73,12.35,0,18.28,0,0-8.46,7.6,0,13.95,0,0-8,8.87,0,14.37,0,0-2.12,8.32,4.64,9.45,0,0,12.68,2.34,14.37-5,0,0,8.89-17.08,0-19.62,0,0,5.51-23.24-6.75-18.18,0,0,13.53-11.18,5.08-13.2,0,0,6.77-12.15,0-14.69,0,0,17.34-13.93-5.9-18.6,0,0,12.69-10.56.86-17.33,0,0,10.16-18.17,0-19.44,0,0,.43-11.72-8-6.29,0,0-9.72,2.9-5.08,10.08,0,0-7.61,7.6-.43,14.79,0,0-5.93,12.68.41,16.91,0,0-6.77,8.87-.43,12.26,0,0-5.07,3-.43,5.92,0,0-8-7.19-11,0,0,0-13.94-9.31-14.79-.86,0,0-4.22-8-8.87-6.35,0,0,6.77-4.22,3-10.14,0,0,11-10.56,3.82-15.64s-1.26-4.23-1.26-4.23,6.35-11.41.86-14.37c0,0,8-5.38,2.12-8.4S365.36,282.73,366.48,290.38Z" transform="translate(-266.57 -170.2)" fill="#f7baba" stroke="#000" stroke-miterlimit="10"/><path d="M398.75,295.72" transform="translate(-266.57 -170.2)" fill="#f7baba" stroke="#000" stroke-miterlimit="10"/><path d="M435.12,293.94s-10.82,9.45.77,22c0,0-11.25,14.83-1.39,30.91,0,0-13.64,9.14-2.42,32.71,0,0-13.44,26.39,2.45,38.14,0,0,15.87,11.1,23.5-.83,0,0,5.27,8.89,18.12,4.55,0,0,10.13,6.12,18,.34s-.56-16-.56-16-14.68-12.33-23-3.61c0,0-10.31-11.3-17.41-2,0,0-5.11-4.36-8.16-3s18-16.18,5.23-27.4c0,0,10.93-6.22,3.83-14.39,0,0,12.9,14.39,19.93,3.16,0,0,9.48,13.3,21.63,2.5,0,0,13.57-5.66,4.4-19.59,0,0-15-2.53-25.88,3.92,0,0-8.42-10.48-19.44-6.86,0,0,8.69-17.15.6-18.16,0,0,21.35,8.32,21.63-1.41,0,0,12.71,9.27,19.91,2.54,0,0,12.79-6.28,7.45-17.11,0,0-18.42-13-26.07-1.67,0,0-18.92-9.7-28.57-2.23C449.6,300.56,448,291.54,435.12,293.94Z" transform="translate(-266.57 -170.2)" fill="#f7baba" stroke="#000" stroke-miterlimit="10"/><path d="M526.69,303.94c-3.89-2.06-17.6-8-21.63,8a.48.48,0,0,1-.44.36c-2.16.11-13.21,1.29-9.19,13.54a.46.46,0,0,1-.37.59c-2.86.47-15.56,3.31-4.55,15a.43.43,0,0,1,.1.17c.42,1.4,5.73,17.79,19.39,10.08a.48.48,0,0,1,.72.27c.54,2.21,3,9.39,11.33,4.83a.46.46,0,0,1,.67.56c-1.38,3.09-3.36,10.38,7,13a.45.45,0,0,1,.36.46c-.16,2.12-.26,12.67,14.07,11.77,0,0-22.87-4.33-18.66,9.05a.47.47,0,0,1-.69.54c-4.35-2.28-20.07-9.32-18.21,8.9a.46.46,0,0,1-.35.49c-3.74,1-32.67,9.25-14,22.85a.49.49,0,0,0,.27.1c2.37.09,32.15,1,28.93-11.73a.47.47,0,0,1,.6-.54c4.39,1.23,20.29,2.81,17.41-9-.07-.29,4.28,2.84,4.59,2.84,3.6,0,21.27-.43,16-11.18a.44.44,0,0,1,.11-.53c1.73-1.47,10.94-10.09-.36-17.62a.43.43,0,0,1-.2-.38c.13-2.33.81-20.75-11.66-17.77a.47.47,0,0,1-.6-.38c-.34-3.08-2.7-18.78-15.48-17.33-13.28,1.51-4.89-8.73-19.3-5.58a.45.45,0,0,1-.38-.81c2.09-1.38,4.45-3.41,3.64-5.15a.46.46,0,0,1,.58-.6c3.14.92,9.07,1.79,8.8-4.89a.48.48,0,0,1,.55-.48c2.42.33,11.53,1.1,11.31-5.94a.48.48,0,0,1,.66-.44c2.91,1.14,13.73,4.68,14.44-5.38a.45.45,0,0,1,.2-.34c1.6-1.06,12.84-8.89,4.4-13.55a.44.44,0,0,1-.23-.29c-.23-1.06-1.77-6.23-9.19-3.06a.49.49,0,0,1-.66-.27c-.56-1.64-2.91-6.5-10-.9a.49.49,0,0,1-.19.09c-1,.23-8.7,2.24-5.59,6.67a.46.46,0,0,1-.51.7c-1.64-.41-3.81-.43-3.06,2.72A.48.48,0,0,1,526.69,303.94Z" transform="translate(-266.57 -170.2)" fill="#f7baba" stroke="#000" stroke-miterlimit="10"/><path d="M489.53,402.2" transform="translate(-266.57 -170.2)" fill="#f7baba" stroke="#000" stroke-miterlimit="10"/></svg>
