<svg xmlns="http://www.w3.org/2000/svg" viewBox="0 0 396.85 440.68">
  <title>Baum</title>
  <g>
    <path d="M528.05,257.65l-7.64-.7-30.68,23.88h-7.2l-10.79,2.81s-8.64,21.07-20.87,16.85S438.64,278,437.7,273.8s-0.62-21-.62-21c3.48,5-6.36,12.56-10.68,12.56s-9.27-11.94-9.27-11.94a9.73,9.73,0,0,0-7,0c-4,1.4,13.34,16.85,16.22,23.16s7.92,18.28,10.68,20.83,4.43,8-13.8,8-31.42-28.81-31.42-28.81h-5s4.32,2.83-2.16,8.44-20.87-4.92-21.59-7.72-5.76,3.51-5.76,3.51c6.48,8.43,33.1,27.39,39.77,28.79s12,14,13.1,22.47,1.11,43.54-4.65,52S394.74,445,394.74,445s0.72,31.79-18,38.78-54.69,24.61-54.69,24.61,23.75-12.64,45.34-6.32,23.69,13.34,42.79,11.94,12.62-8.43,31.33-2.81S466,509,492.61,505.54s35.26-5.62,42.46,0-5.89-4.91-18.05-8.43-25.12-8.43-28-19.66S478.94,465.84,473.18,445s-10.79-58.1-2.16-95.32c0,0,1.44-45.65,3.6-48.45s5.76-14.75,18-17.56S528.05,257.65,528.05,257.65Z" transform="translate(-221.58 -73.47)" fill="#5f4100"/>
    <path d="M399.78,490.09s22.86-23.43,24.11-31.25l1.25-7.82" transform="translate(-221.58 -73.47)" fill="none"/>
    <path d="M420.34,426.54s3.56,3.49,0-16.72S416,383.9,417.8,380.09s13.14-17.51,14.84-20.56,2.26-9.9,2.26-9.9l2.83,12.18S427.58,374.38,427,378.57,424.71,403,424.71,403Z" transform="translate(-221.58 -73.47)" fill="#816957"/>
    <path d="M478.1,472.19c-4.72-3.51-21.07-13.69-21-25.63s-2.73-25.76-2.73-25.76l4.88-11.38s0.08,16.07,2.24,29.06S478.1,472.19,478.1,472.19Z" transform="translate(-221.58 -73.47)" fill="#816957"/>
    <path d="M441.72,310.67" transform="translate(-221.58 -73.47)" fill="none" stroke="#1d1d1b" stroke-miterlimit="10"/>
    <path d="M446.72,438.31c-2.36,2.46-3.45,12.91-4,10.45s-2.9-5.07-3.93-7.22-1-.31-9.75-13.83-8.09-18.13-9-27.9,10.34-32.49,12.9-37.72,2.36-12.45,2.36-12.45h4s0.08,6.32,2.93,10.07,11.93,19.51,12.65,22.93,6.53,20.9.91,33.06-4.54,7.4-5.62,12.16A78.44,78.44,0,0,1,446.72,438.31Z" transform="translate(-221.58 -73.47)" fill="none" stroke="#816957" stroke-miterlimit="10"/>
    <path d="M428.22,396.36S427,387.29,434.89,371c0,0,3-6.15,2-10.45-1-4.07,2.22,8,2.22,8C450.36,386.22,449,393.8,449,393.8" transform="translate(-221.58 -73.47)" fill="#5f4100"/>
    <path d="M439.11,383" transform="translate(-221.58 -73.47)" fill="#5f4100"/>
    <path d="M439.11,383s11.43,9.2,12.16,16.82,1.63,8.54-.91,13.76S444.19,427.4,444,430s-2,13.68-2,13.68l-0.18,5.07s0.45-4.76-6.94-17.67-12.47-22.28-9-29.35S433.49,380.22,439.11,383Z" transform="translate(-221.58 -73.47)" fill="#816957"/>
    <path d="M438.4,389.9a44.06,44.06,0,0,0-.38,6.45,9.75,9.75,0,0,0,.38,2.62c0.89,2.61,2.71,6,2.34,11.22a76,76,0,0,1-2.34,12.29L442,445.39" transform="translate(-221.58 -73.47)" fill="#5f4100"/>
    <path d="M438.4,422.48S431.85,409,438,396.36" transform="translate(-221.58 -73.47)" fill="#5f4100"/>
    <path d="M435.38,383s3.16-5.22,2.63-8.76" transform="translate(-221.58 -73.47)" fill="#5f4100"/>
    <path d="M441.34,384.94a26.52,26.52,0,0,1-2.93-9.78" transform="translate(-221.58 -73.47)" fill="#5f4100"/>
    <path d="M471,349.64" transform="translate(-221.58 -73.47)" fill="#5f4100"/>
    <path d="M432.24,327.38s3.31,31.37,7.29,35.63,13.6,27.11,18.58,29" transform="translate(-221.58 -73.47)" fill="#816957"/>
    <path d="M415.52,258.61s11.93,4.79,15,3.49,3.07-4.12,9.9-3.49,4.22,17,12.07,19.06,14.8,19,27.7,6.32,5.81-10.53,12.91-12.64,20.46-13.82,23.48-9.24,15.86,1.34,15.86,1.34,1.45,17.38,9.17,16.33,24.65-17.91,27.38-11.59-3.28,16.33,7.64,15.27,32.21-9,29.48-16.85-9.28-23.17-3.82-27.91,20.75-7.84,14.74-22.35-10.92-14-12-19.26,1.09-12.11-4.91-11.59-32.76,7.9-33.3,2.11,9.83-10.53,7.64-14.75-2.18-26.33-15.29-25.81-13.65,4.19-15.29,0-4.37-11.05-7.64-10-8.74,9.48-13.1,6.32-3.06-9-6.17-10-3.66,6.85-8.57,0,2.73-14.22-3.28-14.75-6-2.63-16.38-5.27,3.28-6.85,6-5.79,3.82,0.53.55-10S494.85,77,465.59,73.84s-20,14.75-24.89,15.8-14.36-10.53-17.55-6.32-3.19,15.27-16.84,19-28.39-6.32-32.76-2.11S373,92.8,360.45,96s-28.94,10-25.11,23.17,4.91,9.48,3.82,13.17-11.47,2.11-11.47,10.53-8.74-1.05-14.19,8.43-9.28,20-7.64,23.17,11.47,3.23,3.28,6.62-26.21-6.62-32.76-7.15-28.94-2.63-28.94,13.17,8.19,22.65,8.19,22.65-9.28,0-12,3.69S206.49,235,229.42,248.7s28.39,10.34,31.67,9.91,10.92-12,15.83-10.44,0,9.43-1.09,13.93-6.55,27,9.28,26.54,21.84,0.61,25.66-7.29,1.09,4.21,10.37,4.74,2.73,13.17,12,10.53,22.93-14.75,28.94-14.22,16.38,5.79,20.2,3.69,10.37-2.63,14.74-5.79S410.79,258,415.52,258.61Z" transform="translate(-221.58 -73.47)" fill="#61b22f"/>
    <path d="M354.24,146A10.84,10.84,0,0,0,365,156c10.25,0.53,9.17-10.53,14-5s2.7,9.74,9.71,9.74,8.64,2.11,9.17-3.69,4.86-7.9,9.71-7.9,6.85-7.9,12.33-7.9h9.59c4,0,4.48-7.37-1.44-8.43s-13.38,0-11.27-4.21-2.2-4.74-4.36-4.74-4.86,6.85-10.79,0-11.87-8.43-15.11-5.79,4.86,9-4.32,8.43-15.65-5.27-16.73,1.05,2.7,13.69-1.62,13.69S349.71,137.95,354.24,146Z" transform="translate(-221.58 -73.47)" fill="#62b22f"/>
    <path d="M272.76,253.28s-12.74,32,0,34.88,20.12,7.65,27.2,1.92l7.08-5.73s6.3,2.75,10.5,4.44,1.39,6.55,6.78,8.21,30.16-12.51,34.69-11.66,24.37,4.59,31.14.06,12.16-22,20.26-21.26,21.07,5,24.5,2,9.33,5.95,9.33,5.95l6.33,8.86s12,10.55,17,10.12,24.11-16,24.11-16l23.77-8.65,16.06,1.26s0.16,11.73,4.73,13.51,31.49-14.94,32.29-9.07a121.33,121.33,0,0,0,3.08,13.82s35.27-.33,34.51-15.3-6.25-5.09-3.87-26.14-23.59,17.75-30.64,8.54-16.53-2.63-19.44-11.84S535.12,218,527.62,218.05s-22.08-17-27.18-17S483,218.76,471.3,222.71s-30.73,5.26-34.67,2.63-27.27-40.11-40.38-40.11-44.07,1.32-44.62,5.92-18,21.59-18,26.91S314.63,236,307.34,241.18,304.43,261,295,260.9s-14.17-39.51-27.85-34.25-46.47,23.67-39.19,25,11.63,9.26,11.63,9.26l17.18,2.16S269.52,252.3,272.76,253.28Z" transform="translate(-221.58 -73.47)" fill="#489d35"/>
    <path d="M467,131.43s2.61-13.46,4.35-16.9,18.85-4.61,21,0,11.51,3.58,11.51,3.58,13,4.54,6.48,6.65-8.64-2.1-9.35,6.68-9.66,8.07-17.78,13-20.35-4.21-31.15,2.81-17.27-5.09-21.59-5S444.89,136,452.09,136,467,131.43,467,131.43Z" transform="translate(-221.58 -73.47)" fill="#489d35"/>
    <path d="M582,190.92s-27.68,5.25-11.79-12.83-27.56,1.3-39.41-8.39-48.4,24.47-27.66,21.93,38.52-8.75,42.47,4,14.82,19.25,20.74,16,27.05-4.31,35.75-5.38-4-15-7.11-16.07S582,190.92,582,190.92Z" transform="translate(-221.58 -73.47)" fill="#489d35"/>
    <path d="M432.58,230.68s-15.71,23.56-21.82,28.76-40.32-5.78-40.88-16.2-19.57-15.67-19.57-15.67S328.7,209,343,209.95s15.14,10.64,23.48-5.47,25.18-7.88,44.87-11,36.27,23.7,62.82,18.67,29.57,23,38,26.15-32.93.74-46.93-4.8S432.58,230.68,432.58,230.68Z" transform="translate(-221.58 -73.47)" fill="#489d35"/>
    <path d="M428.77,316.28s-0.42,16.49,1.79,19.07,6.53,15.29,9.56,16.76" transform="translate(-221.58 -73.47)" fill="#816957"/>
    <path d="M401.74,466s-3.36-.81,0-15.41,2.9-36.49,2.9-36.49l0-10.95s1.51,13.38,1.66,20.27,2.14,21.08,1.68,25.95S402.47,466.73,401.74,466Z" transform="translate(-221.58 -73.47)" fill="#816957"/>
    <path d="M369.72,491.06s20.73,3.49,23.19-11.27,10.77-45.08,10.77-45.08-0.32,19.69-1.44,28.35-11.2,26.06-8.68,32.62,24,15.49,23.69,15.49a40.46,40.46,0,0,1-30.46,0c-16.61-6.7-30.52-5.35-38-2.68s-26.78,0-26.78,0,35.64-17.44,41.65-17.44" transform="translate(-221.58 -73.47)" fill="#816957"/>
  </g>
</svg>
