<svg id="Layer_1" data-name="Layer 1" xmlns="http://www.w3.org/2000/svg" xmlns:xlink="http://www.w3.org/1999/xlink" viewBox="0 0 81.29 245.84"><defs><linearGradient id="linear-gradient" x1="401.74" y1="293.84" x2="409.42" y2="293.84" gradientUnits="userSpaceOnUse"><stop offset="0" stop-color="#dfb28b"/><stop offset="0.1" stop-color="#dcae87"/><stop offset="0.57" stop-color="#d2a27a"/><stop offset="1" stop-color="#cf9e76"/></linearGradient><linearGradient id="linear-gradient-2" x1="382.81" y1="322.26" x2="396.26" y2="322.26" xlink:href="#linear-gradient"/><linearGradient id="linear-gradient-3" x1="378.74" y1="249.97" x2="393.85" y2="249.97" xlink:href="#linear-gradient"/><linearGradient id="linear-gradient-4" x1="432.44" y1="255.99" x2="479.77" y2="255.99" gradientTransform="matrix(-1, 0, 0, 1, 840.94, 0)" xlink:href="#linear-gradient"/><linearGradient id="linear-gradient-5" x1="432.55" y1="287.68" x2="480.01" y2="287.68" gradientTransform="matrix(-1, 0, 0, 1, 840.94, 0)" xlink:href="#linear-gradient"/><linearGradient id="linear-gradient-6" x1="432.41" y1="258.18" x2="478.27" y2="258.18" gradientTransform="matrix(-1, 0, 0, 1, 840.94, 0)" xlink:href="#linear-gradient"/><linearGradient id="linear-gradient-7" x1="432.41" y1="213.6" x2="480.11" y2="213.6" gradientTransform="matrix(-1, 0, 0, 1, 840.94, 0)" xlink:href="#linear-gradient"/><linearGradient id="linear-gradient-8" x1="432.44" y1="259.03" x2="480.03" y2="259.03" gradientTransform="matrix(-1, 0, 0, 1, 840.94, 0)" xlink:href="#linear-gradient"/><linearGradient id="linear-gradient-9" x1="433.98" y1="281.9" x2="479.14" y2="281.9" gradientTransform="matrix(-1, 0, 0, 1, 840.94, 0)" xlink:href="#linear-gradient"/><linearGradient id="linear-gradient-10" x1="432.26" y1="212.51" x2="480.26" y2="212.51" gradientTransform="matrix(-1, 0, 0, 1, 840.94, 0)" xlink:href="#linear-gradient"/><linearGradient id="linear-gradient-11" x1="432.43" y1="283.86" x2="480.08" y2="283.86" gradientTransform="matrix(-1, 0, 0, 1, 840.94, 0)" xlink:href="#linear-gradient"/><linearGradient id="linear-gradient-12" x1="462.19" y1="278.1" x2="462.19" y2="278.1" gradientTransform="matrix(-1, 0, 0, 1, 840.94, 0)" xlink:href="#linear-gradient"/><linearGradient id="linear-gradient-13" x1="433.19" y1="221.65" x2="479.3" y2="221.65" gradientTransform="matrix(-1, 0, 0, 1, 840.94, 0)" xlink:href="#linear-gradient"/><linearGradient id="linear-gradient-14" x1="432.44" y1="256.65" x2="479.69" y2="256.65" gradientTransform="matrix(-1, 0, 0, 1, 840.94, 0)" xlink:href="#linear-gradient"/><linearGradient id="linear-gradient-15" x1="433.12" y1="211.47" x2="479.41" y2="211.47" gradientTransform="matrix(-1, 0, 0, 1, 840.94, 0)" xlink:href="#linear-gradient"/><linearGradient id="linear-gradient-16" x1="432.66" y1="220.29" x2="479.85" y2="220.29" gradientTransform="matrix(-1, 0, 0, 1, 840.94, 0)" xlink:href="#linear-gradient"/><linearGradient id="linear-gradient-17" x1="432.46" y1="328.42" x2="476.09" y2="328.42" gradientTransform="matrix(-1, 0, 0, 1, 840.94, 0)" xlink:href="#linear-gradient"/><linearGradient id="linear-gradient-18" x1="431.19" y1="210.39" x2="481.3" y2="210.39" gradientTransform="matrix(-1, 0, 0, 1, 840.94, 0)" xlink:href="#linear-gradient"/><linearGradient id="linear-gradient-19" x1="432.4" y1="257.38" x2="477.83" y2="257.38" gradientTransform="matrix(-1, 0, 0, 1, 840.94, 0)" xlink:href="#linear-gradient"/><linearGradient id="linear-gradient-20" x1="432.36" y1="214.78" x2="480.16" y2="214.78" gradientTransform="matrix(-1, 0, 0, 1, 840.94, 0)" xlink:href="#linear-gradient"/><linearGradient id="linear-gradient-21" x1="432.74" y1="218.93" x2="479.78" y2="218.93" gradientTransform="matrix(-1, 0, 0, 1, 840.94, 0)" xlink:href="#linear-gradient"/><linearGradient id="linear-gradient-22" x1="432.45" y1="342.55" x2="480.3" y2="342.55" gradientTransform="matrix(-1, 0, 0, 1, 840.94, 0)" xlink:href="#linear-gradient"/><linearGradient id="linear-gradient-23" x1="432.43" y1="346.06" x2="480.1" y2="346.06" gradientTransform="matrix(-1, 0, 0, 1, 840.94, 0)" xlink:href="#linear-gradient"/><linearGradient id="linear-gradient-24" x1="433.02" y1="217.56" x2="479.49" y2="217.56" gradientTransform="matrix(-1, 0, 0, 1, 840.94, 0)" xlink:href="#linear-gradient"/><linearGradient id="linear-gradient-25" x1="432.44" y1="326.97" x2="480.17" y2="326.97" gradientTransform="matrix(-1, 0, 0, 1, 840.94, 0)" xlink:href="#linear-gradient"/><linearGradient id="linear-gradient-26" x1="432.46" y1="293.83" x2="480.07" y2="293.83" gradientTransform="matrix(-1, 0, 0, 1, 840.94, 0)" xlink:href="#linear-gradient"/><linearGradient id="linear-gradient-27" x1="432.45" y1="341.51" x2="480.16" y2="341.51" gradientTransform="matrix(-1, 0, 0, 1, 840.94, 0)" xlink:href="#linear-gradient"/><linearGradient id="linear-gradient-28" x1="432.44" y1="331.01" x2="479.88" y2="331.01" gradientTransform="matrix(-1, 0, 0, 1, 840.94, 0)" xlink:href="#linear-gradient"/><linearGradient id="linear-gradient-29" x1="432.45" y1="260.9" x2="480.23" y2="260.9" gradientTransform="matrix(-1, 0, 0, 1, 840.94, 0)" xlink:href="#linear-gradient"/><linearGradient id="linear-gradient-30" x1="432.45" y1="343.53" x2="480.22" y2="343.53" gradientTransform="matrix(-1, 0, 0, 1, 840.94, 0)" xlink:href="#linear-gradient"/><linearGradient id="linear-gradient-31" x1="432.32" y1="296.82" x2="480.17" y2="296.82" gradientTransform="matrix(-1, 0, 0, 1, 840.94, 0)" xlink:href="#linear-gradient"/><linearGradient id="linear-gradient-32" x1="432.43" y1="259.94" x2="479.29" y2="259.94" gradientTransform="matrix(-1, 0, 0, 1, 840.94, 0)" xlink:href="#linear-gradient"/><linearGradient id="linear-gradient-33" x1="432.45" y1="295.29" x2="480.07" y2="295.29" gradientTransform="matrix(-1, 0, 0, 1, 840.94, 0)" xlink:href="#linear-gradient"/><linearGradient id="linear-gradient-34" x1="432.47" y1="344.57" x2="480.04" y2="344.57" gradientTransform="matrix(-1, 0, 0, 1, 840.94, 0)" xlink:href="#linear-gradient"/><linearGradient id="linear-gradient-35" x1="432.41" y1="300.36" x2="480.11" y2="300.36" gradientTransform="matrix(-1, 0, 0, 1, 840.94, 0)" xlink:href="#linear-gradient"/><linearGradient id="linear-gradient-36" x1="432.66" y1="298.87" x2="479.9" y2="298.87" gradientTransform="matrix(-1, 0, 0, 1, 840.94, 0)" xlink:href="#linear-gradient"/><linearGradient id="linear-gradient-37" x1="432.8" y1="216.12" x2="479.72" y2="216.12" gradientTransform="matrix(-1, 0, 0, 1, 840.94, 0)" xlink:href="#linear-gradient"/><linearGradient id="linear-gradient-38" x1="432.45" y1="340.4" x2="481" y2="340.4" gradientTransform="matrix(-1, 0, 0, 1, 840.94, 0)" xlink:href="#linear-gradient"/><linearGradient id="linear-gradient-39" x1="432.44" y1="336.23" x2="480.28" y2="336.23" gradientTransform="matrix(-1, 0, 0, 1, 840.94, 0)" xlink:href="#linear-gradient"/><linearGradient id="linear-gradient-40" x1="432.44" y1="333.55" x2="480.53" y2="333.55" gradientTransform="matrix(-1, 0, 0, 1, 840.94, 0)" xlink:href="#linear-gradient"/><linearGradient id="linear-gradient-41" x1="431.86" y1="289.66" x2="480.46" y2="289.66" gradientTransform="matrix(-1, 0, 0, 1, 840.94, 0)" xlink:href="#linear-gradient"/><linearGradient id="linear-gradient-42" x1="432.44" y1="339.05" x2="480.28" y2="339.05" gradientTransform="matrix(-1, 0, 0, 1, 840.94, 0)" xlink:href="#linear-gradient"/><linearGradient id="linear-gradient-43" x1="432.46" y1="292.22" x2="480.07" y2="292.22" gradientTransform="matrix(-1, 0, 0, 1, 840.94, 0)" xlink:href="#linear-gradient"/><linearGradient id="linear-gradient-44" x1="432.44" y1="337.53" x2="479.67" y2="337.53" gradientTransform="matrix(-1, 0, 0, 1, 840.94, 0)" xlink:href="#linear-gradient"/><linearGradient id="linear-gradient-45" x1="432.45" y1="334.9" x2="478.69" y2="334.9" gradientTransform="matrix(-1, 0, 0, 1, 840.94, 0)" xlink:href="#linear-gradient"/><linearGradient id="linear-gradient-46" x1="432.44" y1="330.21" x2="480.07" y2="330.21" gradientTransform="matrix(-1, 0, 0, 1, 840.94, 0)" xlink:href="#linear-gradient"/><linearGradient id="linear-gradient-47" x1="432.45" y1="327.8" x2="480.07" y2="327.8" gradientTransform="matrix(-1, 0, 0, 1, 840.94, 0)" xlink:href="#linear-gradient"/><linearGradient id="linear-gradient-48" x1="398.62" y1="329.67" x2="401.13" y2="329.67" xlink:href="#linear-gradient"/><linearGradient id="linear-gradient-49" x1="398.72" y1="331.36" x2="399.15" y2="331.36" xlink:href="#linear-gradient"/><linearGradient id="linear-gradient-50" x1="400.83" y1="330.64" x2="401.01" y2="330.64" xlink:href="#linear-gradient"/><linearGradient id="linear-gradient-51" x1="398.78" y1="332.63" x2="399.29" y2="332.63" xlink:href="#linear-gradient"/><linearGradient id="linear-gradient-52" x1="378.74" y1="292.36" x2="426.38" y2="292.36" xlink:href="#linear-gradient"/><linearGradient id="linear-gradient-53" x1="397.75" y1="328.68" x2="397.75" y2="328.68" xlink:href="#linear-gradient"/><linearGradient id="linear-gradient-54" x1="398.25" y1="328.1" x2="400.53" y2="328.1" xlink:href="#linear-gradient"/><linearGradient id="linear-gradient-55" x1="415" y1="206.85" x2="415" y2="206.85" gradientTransform="matrix(-1, 0, 0, 1, 840.94, 0)" xlink:href="#linear-gradient"/><linearGradient id="linear-gradient-56" x1="387.84" y1="214.75" x2="387.84" y2="214.75" gradientTransform="matrix(-1, 0, 0, 1, 462.2, -149.95)" xlink:href="#linear-gradient"/><linearGradient id="linear-gradient-57" x1="16.94" y1="181.77" x2="17.18" y2="181.77" xlink:href="#linear-gradient"/></defs><title>bein</title><path d="M402.81,364.29c5.14,5.49,11.11,11,17.71,13.14a15.34,15.34,0,0,0,1.92.54h.06l.94.19c5.37.92,2.5-3.89,3-5.9,2.41,3.42,7,4,13.88,3.29,5.35-.57,6,1.67,1.81,5.7s-13.66,8.57-17.28,9.91-8.83,1-11-1.61c-4.89-6-11.54-13-14-14.87-1.52-1.19-4.38-5.37-5.43-1.36-1.33,5.05,1.68,22.43,1.68,22.43s-1.61.07-2.75,0c-.07-.64-2.14-16.07-5.5-22.31-2.07-3.85-5.77-6.41-6.57-10.26s-.4-9.72,5.26-13.12c.95-.37,2.07,0,3.36.86C392.79,353.52,397.47,359,402.81,364.29Z" transform="translate(-378.74 -149.95)"/><path d="M378.75,278.12q0,1.84.15,3.71Q378.77,280,378.75,278.12Z" transform="translate(-378.74 -149.95)" fill="#dfb28b"/><path d="M378.91,282q.06.9.15,1.8Q379,282.87,378.91,282Z" transform="translate(-378.74 -149.95)" fill="#dfb28b"/><path d="M379.08,284q.18,1.8.47,3.59Q379.26,285.75,379.08,284Z" transform="translate(-378.74 -149.95)" fill="#dfb28b"/><path d="M409.17,259.54v0Z" transform="translate(-378.74 -149.95)" fill="#dfb28b"/><path d="M409.37,257.13l0-.29Z" transform="translate(-378.74 -149.95)" fill="#dfb28b"/><path d="M409.29,257.88l0-.25Z" transform="translate(-378.74 -149.95)" fill="#dfb28b"/><path d="M409.23,258.68l0-.21Z" transform="translate(-378.74 -149.95)" fill="#dfb28b"/><path d="M381.45,295.71l.17.62Z" transform="translate(-378.74 -149.95)" fill="#dfb28b"/><path d="M409.45,256.46c0-.12,0-.23.05-.33C409.48,256.23,409.47,256.34,409.45,256.46Z" transform="translate(-378.74 -149.95)" fill="#dfb28b"/><path d="M381.9,297.31l.38,1.31Z" transform="translate(-378.74 -149.95)" fill="#dfb28b"/><path d="M379.6,287.81q.14.85.31,1.7C379.8,289,379.69,288.38,379.6,287.81Z" transform="translate(-378.74 -149.95)" fill="#dfb28b"/><path d="M381.06,294.27l.16.6Z" transform="translate(-378.74 -149.95)" fill="#dfb28b"/><path d="M380.69,292.88l.13.5Z" transform="translate(-378.74 -149.95)" fill="#dfb28b"/><path d="M380,289.81q.18.87.39,1.74Q380.15,290.68,380,289.81Z" transform="translate(-378.74 -149.95)" fill="#dfb28b"/><path d="M385,220.58l.06.87C385,221.16,385,220.87,385,220.58Z" transform="translate(-378.74 -149.95)" fill="#dfb28b"/><path d="M382.42,299.12l.33,1.14Z" transform="translate(-378.74 -149.95)" fill="#dfb28b"/><path d="M384.57,214l0,.4Z" transform="translate(-378.74 -149.95)" fill="#dfb28b"/><path d="M384.9,219.27c0,.24,0,.49.05.73C384.93,219.75,384.91,219.51,384.9,219.27Z" transform="translate(-378.74 -149.95)" fill="#dfb28b"/><path d="M384.81,218l0,.64Z" transform="translate(-378.74 -149.95)" fill="#dfb28b"/><path d="M384.64,215.2l0,.32Z" transform="translate(-378.74 -149.95)" fill="#dfb28b"/><path d="M402.08,278.41c.36-5.79,3.41-11.58,7-17h0c-.34,9.08.18,24.72.32,34.93.11,7.7-.94,19.58-1.13,30v0C403.32,310.74,400.79,294.4,402.08,278.41Z" transform="translate(-378.74 -149.95)" fill="url(#linear-gradient)"/><path d="M384.42,210.84c0,.09,0,.19,0,.29C384.43,211,384.42,210.94,384.42,210.84Z" transform="translate(-378.74 -149.95)" fill="#dfb28b"/><path d="M384.51,212.84c0,.13,0,.27,0,.4C384.52,213.11,384.52,213,384.51,212.84Z" transform="translate(-378.74 -149.95)" fill="#dfb28b"/><path d="M395.73,331.94a32.34,32.34,0,0,1-5,12.11h0c1.91-12-3.81-29.72-7.89-43.61l.38,1.28c5.56,5.72,10.28,12.11,12.46,19.58a23.85,23.85,0,0,1,.42,8.56" transform="translate(-378.74 -149.95)" fill="url(#linear-gradient-2)"/><path d="M409.54,255.85c0-.19.07-.37.1-.53C409.61,255.49,409.58,255.66,409.54,255.85Z" transform="translate(-378.74 -149.95)" fill="#dfb28b"/><path d="M381.3,258.3c2.78-9.35,5.59-14,4.69-24.76-.37-4.37-.67-8.26-.91-11.68q.23,3.18.52,6.9c5.86,9,12.13,18.08,5.22,27.13-5,6.32-9.62,13.16-12.06,20.33q0,.93,0,1.86A69.6,69.6,0,0,1,381.3,258.3Z" transform="translate(-378.74 -149.95)" fill="url(#linear-gradient-3)"/><path d="M408.25,329.05s0,.07,0,.1S408.25,329.09,408.25,329.05Z" transform="translate(-378.74 -149.95)" fill="#dfb28b"/><path d="M384.46,211.81c0,.12,0,.24,0,.36C384.47,212.06,384.47,211.93,384.46,211.81Z" transform="translate(-378.74 -149.95)" fill="#dfb28b"/><path d="M409.95,344.55c-.1-.27-.2-.56-.29-.87C409.75,344,409.84,344.28,409.95,344.55Z" transform="translate(-378.74 -149.95)" fill="#dfb28b"/><path d="M409.57,343.38c-.06-.21-.12-.42-.17-.63C409.45,343,409.51,343.17,409.57,343.38Z" transform="translate(-378.74 -149.95)" fill="#dfb28b"/><path d="M408.26,327.79c0-.06,0-.11,0-.17S408.26,327.73,408.26,327.79Z" transform="translate(-378.74 -149.95)" fill="#dfb28b"/><path d="M408.69,338.72c0-.29-.07-.58-.1-.87C408.63,338.15,408.66,338.43,408.69,338.72Z" transform="translate(-378.74 -149.95)" fill="#dfb28b"/><path d="M408.89,340.18c0-.26-.08-.53-.11-.8C408.81,339.64,408.85,339.91,408.89,340.18Z" transform="translate(-378.74 -149.95)" fill="#dfb28b"/><path d="M408.31,333.1c0-.08,0-.16,0-.24C408.3,332.94,408.3,333,408.31,333.1Z" transform="translate(-378.74 -149.95)" fill="#dfb28b"/><path d="M408.54,337.2c0-.2,0-.41-.05-.61C408.51,336.8,408.53,337,408.54,337.2Z" transform="translate(-378.74 -149.95)" fill="#dfb28b"/><path d="M409.3,342.35c0-.2-.09-.41-.14-.63C409.21,341.94,409.25,342.15,409.3,342.35Z" transform="translate(-378.74 -149.95)" fill="#dfb28b"/><path d="M409.08,341.29c0-.22-.08-.44-.12-.67C409,340.85,409,341.07,409.08,341.29Z" transform="translate(-378.74 -149.95)" fill="#dfb28b"/><path d="M408.36,334.5c0-.16,0-.33,0-.5C408.35,334.17,408.36,334.33,408.36,334.5Z" transform="translate(-378.74 -149.95)" fill="#dfb28b"/><path d="M408.44,335.86l0-.56Z" transform="translate(-378.74 -149.95)" fill="#dfb28b"/><path d="M390.25,346.28c-.1.39-.2.77-.32,1.14C390,347,390.15,346.67,390.25,346.28Z" transform="translate(-378.74 -149.95)" fill="#dfb28b"/><path d="M390.52,345.08c-.05.25-.1.5-.16.75C390.42,345.59,390.47,345.33,390.52,345.08Z" transform="translate(-378.74 -149.95)" fill="#dfb28b"/><path d="M384.73,216.71c0,.15,0,.3,0,.45C384.75,217,384.74,216.86,384.73,216.71Z" transform="translate(-378.74 -149.95)" fill="#dfb28b"/><path d="M409.13,260.44v0Z" transform="translate(-378.74 -149.95)" fill="#dfb28b"/><path d="M409.5,256.12l0-.27Z" transform="translate(-378.74 -149.95)" fill="url(#linear-gradient-4)"/><path d="M379.55,287.55c0,.09,0,.18,0,.26C379.58,287.73,379.57,287.64,379.55,287.55Z" transform="translate(-378.74 -149.95)" fill="url(#linear-gradient-5)"/><path d="M409.25,258.47c0-.2,0-.4,0-.6C409.28,258.07,409.26,258.27,409.25,258.47Z" transform="translate(-378.74 -149.95)" fill="url(#linear-gradient-6)"/><path d="M384.53,213.24c0,.23,0,.47,0,.71C384.56,213.71,384.54,213.48,384.53,213.24Z" transform="translate(-378.74 -149.95)" fill="url(#linear-gradient-7)"/><path d="M409.18,259.38c0-.24,0-.47,0-.7C409.21,258.91,409.2,259.14,409.18,259.38Z" transform="translate(-378.74 -149.95)" fill="url(#linear-gradient-8)"/><path d="M378.9,281.83s0,.09,0,.14S378.9,281.88,378.9,281.83Z" transform="translate(-378.74 -149.95)" fill="url(#linear-gradient-9)"/><path d="M384.48,212.18c0,.22,0,.44,0,.67C384.5,212.62,384.49,212.4,384.48,212.18Z" transform="translate(-378.74 -149.95)" fill="url(#linear-gradient-10)"/><path d="M379.06,283.77l0,.19Z" transform="translate(-378.74 -149.95)" fill="url(#linear-gradient-11)"/><path d="M378.75,278.07s0,0,0,0S378.75,278.09,378.75,278.07Z" transform="translate(-378.74 -149.95)" fill="url(#linear-gradient-12)"/><path d="M385,221.45c0,.14,0,.27,0,.41C385.07,221.72,385.06,221.58,385,221.45Z" transform="translate(-378.74 -149.95)" fill="url(#linear-gradient-13)"/><path d="M409.4,256.85l0-.39Z" transform="translate(-378.74 -149.95)" fill="url(#linear-gradient-14)"/><path d="M384.43,211.13c0,.22,0,.45,0,.68C384.45,211.58,384.44,211.36,384.43,211.13Z" transform="translate(-378.74 -149.95)" fill="url(#linear-gradient-15)"/><path d="M384.95,220l0,.59Z" transform="translate(-378.74 -149.95)" fill="url(#linear-gradient-16)"/><path d="M408.26,327.79q0,.63,0,1.26Q408.26,328.43,408.26,327.79Z" transform="translate(-378.74 -149.95)" fill="url(#linear-gradient-17)"/><path d="M384.38,209.94c0,.29,0,.6,0,.91C384.4,210.53,384.39,210.23,384.38,209.94Z" transform="translate(-378.74 -149.95)" fill="url(#linear-gradient-18)"/><path d="M409.32,257.63c0-.17,0-.34,0-.49C409.35,257.29,409.33,257.46,409.32,257.63Z" transform="translate(-378.74 -149.95)" fill="url(#linear-gradient-19)"/><path d="M384.59,214.35l0,.85Z" transform="translate(-378.74 -149.95)" fill="url(#linear-gradient-20)"/><path d="M384.85,218.6c0,.22,0,.44,0,.67C384.88,219,384.87,218.82,384.85,218.6Z" transform="translate(-378.74 -149.95)" fill="url(#linear-gradient-21)"/><path d="M409.39,342.75l-.09-.39Z" transform="translate(-378.74 -149.95)" fill="url(#linear-gradient-22)"/><path d="M390.36,345.83c0,.15-.07.3-.11.45C390.29,346.13,390.33,346,390.36,345.83Z" transform="translate(-378.74 -149.95)" fill="url(#linear-gradient-23)"/><path d="M384.76,217.16c0,.26,0,.53,0,.8C384.79,217.69,384.78,217.42,384.76,217.16Z" transform="translate(-378.74 -149.95)" fill="url(#linear-gradient-24)"/><path d="M408.26,327.62c0-.43,0-.87,0-1.31C408.27,326.75,408.27,327.19,408.26,327.62Z" transform="translate(-378.74 -149.95)" fill="url(#linear-gradient-25)"/><path d="M380.83,293.38l.23.88Z" transform="translate(-378.74 -149.95)" fill="url(#linear-gradient-26)"/><path d="M409.16,341.73c0-.14-.06-.29-.09-.43C409.11,341.44,409.13,341.58,409.16,341.73Z" transform="translate(-378.74 -149.95)" fill="url(#linear-gradient-27)"/><path d="M408.3,332.86c0-1.2,0-2.44,0-3.71C408.25,330.42,408.27,331.66,408.3,332.86Z" transform="translate(-378.74 -149.95)" fill="url(#linear-gradient-28)"/><path d="M409.09,261.36c0-.32,0-.62,0-.92C409.11,260.74,409.1,261,409.09,261.36Z" transform="translate(-378.74 -149.95)" fill="url(#linear-gradient-29)"/><path d="M409.65,343.69l-.09-.31Z" transform="translate(-378.74 -149.95)" fill="url(#linear-gradient-30)"/><path d="M381.63,296.33l.28,1Z" transform="translate(-378.74 -149.95)" fill="url(#linear-gradient-31)"/><path d="M409.13,260.35q0-.41,0-.81Q409.15,259.93,409.13,260.35Z" transform="translate(-378.74 -149.95)" fill="url(#linear-gradient-32)"/><path d="M381.22,294.86l.23.85Z" transform="translate(-378.74 -149.95)" fill="url(#linear-gradient-33)"/><path d="M390.71,344.07c-.05.34-.12.68-.18,1C390.59,344.74,390.65,344.41,390.71,344.07Z" transform="translate(-378.74 -149.95)" fill="url(#linear-gradient-34)"/><path d="M382.76,300.26l.06.19Z" transform="translate(-378.74 -149.95)" fill="url(#linear-gradient-35)"/><path d="M382.28,298.62l.14.5Z" transform="translate(-378.74 -149.95)" fill="url(#linear-gradient-36)"/><path d="M384.66,215.52c0,.39,0,.79.07,1.19C384.71,216.3,384.68,215.91,384.66,215.52Z" transform="translate(-378.74 -149.95)" fill="url(#linear-gradient-37)"/><path d="M409,340.62l-.08-.45Z" transform="translate(-378.74 -149.95)" fill="url(#linear-gradient-38)"/><path d="M408.49,336.59c0-.24,0-.48-.05-.73C408.46,336.11,408.47,336.35,408.49,336.59Z" transform="translate(-378.74 -149.95)" fill="url(#linear-gradient-39)"/><path d="M408.34,334q0-.45,0-.9Q408.32,333.56,408.34,334Z" transform="translate(-378.74 -149.95)" fill="url(#linear-gradient-40)"/><path d="M379.91,289.52l.06.29Z" transform="translate(-378.74 -149.95)" fill="url(#linear-gradient-41)"/><path d="M408.78,339.37c0-.21-.06-.43-.08-.65C408.72,338.94,408.75,339.16,408.78,339.37Z" transform="translate(-378.74 -149.95)" fill="url(#linear-gradient-42)"/><path d="M380.36,291.55c.11.44.22.88.33,1.33C380.58,292.43,380.46,292,380.36,291.55Z" transform="translate(-378.74 -149.95)" fill="url(#linear-gradient-43)"/><path d="M408.6,337.85c0-.21,0-.43-.06-.65C408.56,337.42,408.58,337.64,408.6,337.85Z" transform="translate(-378.74 -149.95)" fill="url(#linear-gradient-44)"/><path d="M408.41,335.3c0-.26,0-.53,0-.8C408.38,334.77,408.39,335,408.41,335.3Z" transform="translate(-378.74 -149.95)" fill="url(#linear-gradient-45)"/><path d="M397.83,329l.41,1.54c-.51.5-1.45,1.16-2.12.74S396.75,329.38,397.83,329Z" transform="translate(-378.74 -149.95)" fill="#dfb28b"/><path d="M397.83,329l.41,1.54c-.51.5-1.45,1.16-2.12.74S396.75,329.38,397.83,329Z" transform="translate(-378.74 -149.95)" fill="url(#linear-gradient-46)"/><path d="M397.89,327.46c-.07-.26,1.82-.54,2.1-.28.51.43-1.44,1.21-1.82,1.34Z" transform="translate(-378.74 -149.95)" fill="#dfb28b"/><path d="M397.89,327.46c-.07-.26,1.82-.54,2.1-.28.51.43-1.44,1.21-1.82,1.34Z" transform="translate(-378.74 -149.95)" fill="url(#linear-gradient-47)"/><path d="M390.82,255.88c6.91-9,.64-18.08-5.22-27.13q-.29-3.72-.52-6.9c0-.14,0-.27,0-.41l-.06-.87,0-.59c0-.25,0-.49-.05-.73s0-.45,0-.67l0-.64c0-.27,0-.53,0-.8s0-.3,0-.45c0-.41,0-.81-.07-1.19l0-.32,0-.85,0-.4c0-.24,0-.48,0-.71s0-.27,0-.4,0-.45,0-.67,0-.24,0-.36,0-.46,0-.68,0-.2,0-.29c0-.31,0-.61,0-.91,4.56-3.84,30.57-3.93,39.69-2.5-2.68,8.76-6.44,16.63-6.79,20.2s-.63,12.78-2.23,15.64-4.14,6.68-5.39,12c0,.16-.07.34-.1.53l0,.27c0,.11,0,.22-.05.33l0,.39,0,.29c0,.16,0,.32,0,.49l0,.25c0,.19,0,.39,0,.6l0,.21c0,.23,0,.46,0,.7v.16q0,.39,0,.81v.09c0,.3,0,.61,0,.92h0c-3.59,5.46-6.64,11.25-7,17-1.29,16,1.24,32.33,6.2,47.89v0c0,.44,0,.87,0,1.31,0,.06,0,.11,0,.17q0,.63,0,1.26s0,.07,0,.1c0,1.27,0,2.51,0,3.71,0,.08,0,.16,0,.24q0,.46,0,.9c0,.17,0,.33,0,.5s0,.54,0,.8l0,.56c0,.25,0,.49.05.73s0,.41.05.61,0,.43.06.65.06.58.1.87.05.44.08.65.07.54.11.8l.08.45c0,.23.08.45.12.67s.06.29.09.43.09.42.14.63l.09.39c.05.22.11.43.17.63l.09.31c.09.3.19.59.29.87,3.58,9.47,9.83,25.92,15.38,27.53,1.36,3,2.25,6.91-2.82,5.89h-.06a15.34,15.34,0,0,1-1.92-.54c-5.72-2-12.09-7.52-17.71-13.14-5.35-5.34-10-10.77-12.83-13.34a7.32,7.32,0,0,0-2-1.48,8.18,8.18,0,0,1,2-2.06c.12-.37.23-.75.32-1.14,0-.15.08-.3.11-.45s.11-.5.16-.75.13-.67.18-1h0a32.34,32.34,0,0,0,5-12.11l.05,0c1.27.7,2.49-1,2.56-1.05l.43,1.62a.39.39,0,0,0,.51.13,3.29,3.29,0,0,0,1.67-1.92c.09-.35,0-.29-.14-.07-.3.4-1,1.35-1.68,1.47l-.43-1.6c.53-.53,1-1.46,2.1-1.07.14,0,.23.12.31.07a.91.91,0,0,0-.85-.41,2,2,0,0,0-1.08.42,7.69,7.69,0,0,0-.58.6l-.37-1.36c.13-.05,2.26-.81,2.27-1.43,0-1-2.46-.59-3.1-.37-.22.08.3,1.61.32,1.66a5,5,0,0,0-1.68,1.2,23.85,23.85,0,0,0-.42-8.56c-2.18-7.47-6.89-13.86-12.46-19.58l-.38-1.28-.06-.19-.33-1.14-.14-.5-.37-1.31-.28-1-.17-.62-.23-.85-.16-.6-.23-.88-.13-.5c-.12-.45-.23-.9-.33-1.33s-.27-1.16-.39-1.74l-.06-.29q-.17-.85-.31-1.7c0-.09,0-.17,0-.26q-.29-1.8-.47-3.59l0-.19q-.09-.9-.15-1.8s0-.09,0-.14q-.13-1.87-.15-3.71s0,0,0,0q0-.94,0-1.86C381.2,269,385.81,262.21,390.82,255.88Z" transform="translate(-378.74 -149.95)" fill="#dfb28b"/><path d="M400.82,329.5c.14,0,.23.12.31.07a.91.91,0,0,0-.85-.41,2,2,0,0,0-1.08.42,7.69,7.69,0,0,0-.58.6" transform="translate(-378.74 -149.95)" fill="url(#linear-gradient-48)"/><path d="M399.15,332.16l-.43-1.6" transform="translate(-378.74 -149.95)" fill="url(#linear-gradient-49)"/><path d="M401,330.77c.09-.35,0-.29-.14-.07" transform="translate(-378.74 -149.95)" fill="url(#linear-gradient-50)"/><path d="M398.78,332.55a.39.39,0,0,0,.51.13" transform="translate(-378.74 -149.95)" fill="url(#linear-gradient-51)"/><path d="M395.65,321.32c-2.18-7.47-6.89-13.86-12.46-19.58l-.38-1.28-.06-.19-.33-1.14-.14-.5-.37-1.31-.28-1-.17-.62-.23-.85-.16-.6-.23-.88-.13-.5c-.12-.45-.23-.9-.33-1.33s-.27-1.16-.39-1.74l-.06-.29q-.17-.85-.31-1.7c0-.09,0-.17,0-.26q-.29-1.8-.47-3.59l0-.19q-.09-.9-.15-1.8s0-.09,0-.14q-.13-1.87-.15-3.71s0,0,0,0q0-.94,0-1.86c2.45-7.16,7.06-14,12.06-20.33,6.91-9,.64-18.08-5.22-27.13q-.29-3.72-.52-6.9c0-.14,0-.27,0-.41l-.06-.87,0-.59c0-.25,0-.49-.05-.73s0-.45,0-.67l0-.64c0-.27,0-.53,0-.8s0-.3,0-.45c0-.41,0-.81-.07-1.19l0-.32,0-.85,0-.4c0-.24,0-.48,0-.71s0-.27,0-.4,0-.45,0-.67,0-.24,0-.36,0-.46,0-.68,0-.2,0-.29c0-.31,0-.61,0-.91,4.56-3.84,30.57-3.93,39.69-2.5-2.68,8.76-6.44,16.63-6.79,20.2s-.63,12.78-2.23,15.64-4.14,6.68-5.39,12c0,.16-.07.34-.1.53l0,.27c0,.11,0,.22-.05.33l0,.39,0,.29c0,.16,0,.32,0,.49l0,.25c0,.19,0,.39,0,.6l0,.21c0,.23,0,.46,0,.7v.16q0,.39,0,.81v.09c0,.3,0,.61,0,.92h0c-3.59,5.46-6.64,11.25-7,17-1.29,16,1.24,32.33,6.2,47.89v0c0,.44,0,.87,0,1.31,0,.06,0,.11,0,.17q0,.63,0,1.26s0,.07,0,.1c0,1.27,0,2.51,0,3.71,0,.08,0,.16,0,.24q0,.46,0,.9c0,.17,0,.33,0,.5s0,.54,0,.8l0,.56c0,.25,0,.49.05.73s0,.41.05.61,0,.43.06.65.06.58.1.87.05.44.08.65.07.54.11.8l.08.45c0,.23.08.45.12.67s.06.29.09.43.09.42.14.63l.09.39c.05.22.11.43.17.63l.09.31c.09.3.19.59.29.87,3.58,9.47,9.83,25.92,15.38,27.53,1.36,3,2.25,6.91-2.82,5.89h-.06a15.34,15.34,0,0,1-1.92-.54c-5.72-2-12.09-7.52-17.71-13.14-5.35-5.34-10-10.77-12.83-13.34a7.32,7.32,0,0,0-2-1.48,8.18,8.18,0,0,1,2-2.06c.12-.37.23-.75.32-1.14,0-.15.08-.3.11-.45s.11-.5.16-.75.13-.67.18-1h0a32.34,32.34,0,0,0,5-12.11l.05,0v-.16C395.86,330.7,396.25,323.74,395.65,321.32Z" transform="translate(-378.74 -149.95)" fill="url(#linear-gradient-52)"/><path d="M397.75,328.68" transform="translate(-378.74 -149.95)" fill="url(#linear-gradient-53)"/><path d="M398.25,328.82c.13-.05,2.26-.81,2.27-1.43" transform="translate(-378.74 -149.95)" fill="url(#linear-gradient-54)"/><path d="M425.95,206.85" transform="translate(-378.74 -149.95)" fill="url(#linear-gradient-55)"/><line x1="74.36" y1="64.8" x2="74.36" y2="64.8" fill="url(#linear-gradient-56)"/><path d="M425.56,203" transform="translate(-378.74 -149.95)" fill="#1a1a1a"/><ellipse cx="17.06" cy="181.77" rx="0.12" ry="0.39" fill="url(#linear-gradient-57)"/><polyline points="1.95 53.01 10.79 68.33 18.35 59.98 20.65 63.65 26.84 56.9 36.35 61.86 59.19 61.04 81.29 0" fill="#fff"/></svg>