<svg id="Layer_1" data-name="Layer 1" xmlns="http://www.w3.org/2000/svg" viewBox="0 0 914.57 542.44"><title>bubble</title><path d="M232.77,267.93s39.56-91.06,139.48-105.64c0,0,37.27-4,37.73-2.67s-32,19.79-28.53,58.26c0,0,.32,3.91,8,13.35,0,0-35.76,4-58.25,25.13a263.48,263.48,0,0,0-35.8,41.15s25,11.65,31.24,40.64A60.8,60.8,0,0,1,324,377.73a63.45,63.45,0,0,1-7.3,12.89c-18.86,25.91-46.82,26.3-46.82,26.3s-23.29,3.83-53.13-20.74c0,0-30.77-34.78-6.25-78.15C210.53,318,219.14,284.05,232.77,267.93Z" transform="translate(-123.72 -81.63)" fill="#f4b9b8"/><path d="M427.52,154.48s-15.46-2-34.9,16.82c0,0-23.46,33.25-17.09,45.89,0,0,1,19.15,23.53,19.54,0,0,25.95-3.25,25.57-3.12s22.05,4,32.67,1.67c0,0,17.32-6.28,19.68-24.37,0,0,4.15-9-5.27-26.95,0,0-13.64-20.34-22.95-22.29C448.76,161.74,443.24,154.7,427.52,154.48Z" transform="translate(-123.72 -81.63)" fill="#efafaf"/><path d="M322,380.92s28,1.57,49.16-34.73c0,0,9.71-15.09,2.38-49.4,0,0-.79-11.14-25-31.73,0,0-10.27-5.41-18.9-7.18,0,0-14.4,12.45-17.3,16.39S292.43,299.2,294.82,300s12.59,9.78,16.38,14.77C311.24,314.88,327.87,339.23,322,380.92Z" transform="translate(-123.72 -81.63)" fill="#f2c2c2"/><path d="M435.75,168.48c1.78-5.16,9.41-2.92,12.6-.91,6.17,3.9,10.3,11.83,4.25,15.7" transform="translate(-123.72 -81.63)" fill="#fff" opacity="0.5" style="isolation:isolate"/><circle cx="35.24" cy="332.32" r="35.24" fill="#85cedc"/><path d="M184.22,403.83a2.17,2.17,0,0,1-2.92-1" transform="translate(-123.72 -81.63)" fill="#fff"/><path d="M181.3,402.85a25,25,0,0,0-29.76-12.72" transform="translate(-123.72 -81.63)" fill="#fff"/><circle cx="111.75" cy="204.76" r="47.23" fill="#85cedc"/><path d="M265.09,307.67a2.92,2.92,0,0,1-1-4,33.37,33.37,0,0,0,4.8-17.28" transform="translate(-123.72 -81.63)" fill="#fff"/><path d="M268,273.12a2.92,2.92,0,0,1-2.61-1.62A33.27,33.27,0,0,0,235.48,253" transform="translate(-123.72 -81.63)" fill="#fff"/><path d="M206.13,357.73a17.88,17.88,0,1,1-17.88-17.88,17.88,17.88,0,0,1,17.88,17.88" transform="translate(-123.72 -81.63)" fill="#85cedc"/><path d="M446.77,281.54A54.49,54.49,0,1,1,392.28,336a54.49,54.49,0,0,1,54.49-54.49" transform="translate(-123.72 -81.63)" fill="#85cedc"/><path d="M479.79,356A38.5,38.5,0,0,0,485.34,336a3.36,3.36,0,0,1,3.36-3.36" transform="translate(-123.72 -81.63)" fill="#fff"/><path d="M481.32,318.87a38.38,38.38,0,0,0-34.55-21.4" transform="translate(-123.72 -81.63)" fill="#fff"/><circle cx="363.97" cy="339.96" r="35.24" fill="#85cedc"/><path d="M1017,623.84a2.17,2.17,0,0,1-2.92-1" transform="translate(-123.72 -81.63)" fill="#fff"/><path d="M510,410.49a25,25,0,0,0-29.76-12.72" transform="translate(-123.72 -81.63)" fill="#fff"/><path d="M1026.42,559.17" transform="translate(-123.72 -81.63)" fill="#85cedc"/><path d="M1026.42,587.73" transform="translate(-123.72 -81.63)" fill="#85cedc"/><path d="M1036.58,579.59a.88.88,0,0,1-1.21.3" transform="translate(-123.72 -81.63)" fill="#fff"/><path d="M1036.53,573.45a.88.88,0,1,1,1.76,0" transform="translate(-123.72 -81.63)" fill="#fff"/><path d="M477.8,262.06a1.24,1.24,0,0,1-.42-1.71,14.23,14.23,0,0,0,2-7.37" transform="translate(-123.72 -81.63)" fill="#fff"/><path d="M295,361.58a1.24,1.24,0,0,1-.74-2.37" transform="translate(-123.72 -81.63)" fill="#fff"/><circle cx="122.24" cy="107.32" r="35.24" fill="#85cedc"/><path d="M271.22,178.83a2.17,2.17,0,0,1-2.92-1" transform="translate(-123.72 -81.63)" fill="#fff"/><path d="M268.3,177.85a25,25,0,0,0-29.76-12.72" transform="translate(-123.72 -81.63)" fill="#fff"/><path d="M715,453.25a31.34,31.34,0,0,1-4.86-16.78c0-1.63-1.32-3.65-2.95-3.65" transform="translate(-123.72 -81.63)" fill="#fff"/><path d="M713.62,420.72c4.83-9.71,18.31-18.77,30.3-18.77" transform="translate(-123.72 -81.63)" fill="#fff"/><path d="M748,357.34a19.83,19.83,0,0,0,2.86,10.27" transform="translate(-123.72 -81.63)" fill="#fff"/><path d="M359.63,329.51c-16.49,21.65,8,46.11,29.63,29.63C405.74,337.49,381.27,313,359.63,329.51Z" transform="translate(-123.72 -81.63)" fill="#85cedc"/><path d="M357.63,343.62a16.79,16.79,0,0,0,2.42,8.69" transform="translate(-123.72 -81.63)" fill="#fff"/><path d="M374.44,326.81a16.73,16.73,0,0,0-15.06,9.33" transform="translate(-123.72 -81.63)" fill="#fff"/><path d="M335.46,278c0,16.2,19,29.42,36,14.23l0,0c11.15-16.32-.27-33.73-15.76-33.73-11.17,0-20.22,8.35-20.22,19.52" transform="translate(-123.72 -81.63)" fill="#85cedc"/><path d="M343,287.11a1.25,1.25,0,0,0,.42-1.71,14.29,14.29,0,0,1-2.06-7.4" transform="translate(-123.72 -81.63)" fill="#fff"/><path d="M355.68,261.19a16.73,16.73,0,0,0-15.06,9.33" transform="translate(-123.72 -81.63)" fill="#fff"/><circle cx="227.27" cy="85.18" r="36.38" fill="#85cedc"/><path d="M373,180.11a25.7,25.7,0,0,0,3.7-13.31" transform="translate(-123.72 -81.63)" fill="#fff"/><path d="M376.08,156.59a2.25,2.25,0,0,1-2-1.25,25.79,25.79,0,0,0-30.73-13.13,2.25,2.25,0,1,1-1.33-4.29,30.29,30.29,0,0,1,36.08,15.42,2.25,2.25,0,0,1-2,3.25Z" transform="translate(-123.72 -81.63)" fill="#fff"/><circle cx="263.66" cy="22.23" r="22.23" fill="#85cedc"/><path d="M401.32,113.87a1.37,1.37,0,0,1-.46-1.88,15.7,15.7,0,0,0,2.26-8.13" transform="translate(-123.72 -81.63)" fill="#fff"/><path d="M387.38,85.38a18.39,18.39,0,0,1,16.55,10.25" transform="translate(-123.72 -81.63)" fill="#fff"/><circle cx="365.5" cy="151.26" r="16.12" fill="#85cedc"/><path d="M499.33,240.15a1,1,0,0,1-.34-1.37,11.39,11.39,0,0,0,1.64-5.9" transform="translate(-123.72 -81.63)" fill="#fff"/><path d="M499.45,227.81a11.36,11.36,0,0,0-10.22-6.33" transform="translate(-123.72 -81.63)" fill="#fff"/><circle cx="176.48" cy="342.81" r="61.96" fill="#85cedc"/><path d="M337.75,447.1a43.78,43.78,0,0,0,6.3-22.67" transform="translate(-123.72 -81.63)" fill="#fff"/><path d="M339.49,404.91a43.64,43.64,0,0,0-39.29-24.34" transform="translate(-123.72 -81.63)" fill="#fff"/><circle cx="207.12" cy="250.56" r="40.74" fill="#85cedc"/><path d="M355.54,347.09a28.78,28.78,0,0,0,4.14-14.9" transform="translate(-123.72 -81.63)" fill="#fff"/><path d="M330.85,298.32a33.7,33.7,0,0,1,30.33,18.79" transform="translate(-123.72 -81.63)" fill="#fff"/><circle cx="277.72" cy="269.28" r="27.74" fill="#85cedc"/><path d="M418.26,361.06a19.6,19.6,0,0,0,2.82-10.15,1.71,1.71,0,0,1,1.71-1.71" transform="translate(-123.72 -81.63)" fill="#fff"/><path d="M401.45,327.84a23,23,0,0,1,20.66,12.8" transform="translate(-123.72 -81.63)" fill="#fff"/><path d="M242.59,414.65C271.31,452.36,228.68,495,191,466.27h0C162.24,428.56,204.87,385.92,242.59,414.65Z" transform="translate(-123.72 -81.63)" fill="#85cedc"/><path d="M227.7,443.25a2.18,2.18,0,0,1-.74-3,24.89,24.89,0,0,0,3.58-12.89" transform="translate(-123.72 -81.63)" fill="#fff"/><path d="M227.95,416.28a24.82,24.82,0,0,0-22.34-13.84" transform="translate(-123.72 -81.63)" fill="#fff"/><path d="M256.77,363.65A17.62,17.62,0,1,1,239.15,346a17.62,17.62,0,0,1,17.62,17.62" transform="translate(-123.72 -81.63)" fill="#85cedc"/><path d="M239.15,349a14.57,14.57,0,0,1,13.12,8.13" transform="translate(-123.72 -81.63)" fill="#fff"/><circle cx="111.17" cy="409.88" r="17.62" fill="#85cedc"/><path d="M245.94,499.45a1.09,1.09,0,0,1-.37-1.49,12.45,12.45,0,0,0,1.79-6.44" transform="translate(-123.72 -81.63)" fill="#fff"/><path d="M230.54,477.52A14.67,14.67,0,0,1,248,485" transform="translate(-123.72 -81.63)" fill="#fff"/><circle cx="147.1" cy="242.48" r="11.37" fill="#85cedc"/><path d="M277.72,328.27a8,8,0,0,0,1.16-4.16.7.7,0,0,1,.7-.7" transform="translate(-123.72 -81.63)" fill="#fff"/><path d="M278,320.53a8,8,0,0,0-7.21-4.47" transform="translate(-123.72 -81.63)" fill="#fff"/><path d="M281.59,497.23a.7.7,0,0,1-.94-.32" transform="translate(-123.72 -81.63)" fill="#fff"/><path d="M404.75,398.09a11.37,11.37,0,1,1-11.37-11.37" transform="translate(-123.72 -81.63)" fill="#85cedc"/><path d="M400.27,402.25a8,8,0,0,0,1.16-4.16.7.7,0,0,1,.7-.7" transform="translate(-123.72 -81.63)" fill="#fff"/><path d="M401.22,394.9a.7.7,0,0,1-.63-.39,8,8,0,0,0-7.21-4.47" transform="translate(-123.72 -81.63)" fill="#fff"/><circle cx="249.3" cy="409.88" r="38.61" fill="#85cedc"/><path d="M396.42,505.63a27.28,27.28,0,0,0,3.93-14.12,2.38,2.38,0,0,1,2.38-2.38" transform="translate(-123.72 -81.63)" fill="#fff"/><path d="M397.5,479.35a27.37,27.37,0,0,0-32.6-13.94" transform="translate(-123.72 -81.63)" fill="#fff"/><path d="M335.43,233.67c26,37.68-15,78.74-52.72,52.72A14.49,14.49,0,0,1,279,282.7C253,245,294.07,204,331.74,230A14.49,14.49,0,0,1,335.43,233.67Z" transform="translate(-123.72 -81.63)" fill="#85cedc"/><path d="M329.28,271.49a25.7,25.7,0,0,0,3.7-13.31" transform="translate(-123.72 -81.63)" fill="#fff"/><path d="M332.31,248a2.25,2.25,0,0,1-2-1.25,25.79,25.79,0,0,0-31.73-12.8c-2.78-1.21-2.21-4-.33-4.62a30.29,30.29,0,0,1,36.56,16.43h0A2.68,2.68,0,0,1,332.31,248Z" transform="translate(-123.72 -81.63)" fill="#fff"/><path d="M359.89,179c18.12,23.79-8.77,50.68-32.57,32.57h0c-18.12-23.79,8.77-50.68,32.57-32.57Z" transform="translate(-123.72 -81.63)" fill="#85cedc"/><path d="M357.55,205.25a1.37,1.37,0,0,1-.46-1.88,15.7,15.7,0,0,0,2.26-8.13" transform="translate(-123.72 -81.63)" fill="#fff"/><path d="M343.61,176.76A18.39,18.39,0,0,1,360.16,187" transform="translate(-123.72 -81.63)" fill="#fff"/><path d="M457.27,312.46c13.14,17.25-6.36,36.76-23.62,23.62h0c-13.14-17.25,6.37-36.76,23.62-23.62Z" transform="translate(-123.72 -81.63)" fill="#85cedc"/><path d="M455.56,331.53a1,1,0,0,1-.34-1.37,11.39,11.39,0,0,0,1.64-5.9" transform="translate(-123.72 -81.63)" fill="#fff"/><path d="M455.68,319.19a11.36,11.36,0,0,0-10.22-6.33" transform="translate(-123.72 -81.63)" fill="#fff"/><path d="M403.84,235.78A17.88,17.88,0,1,1,386,217.9a17.88,17.88,0,0,1,17.88,17.88" transform="translate(-123.72 -81.63)" fill="#85cedc"/></svg>