<svg id="Layer_1" data-name="Layer 1" xmlns="http://www.w3.org/2000/svg" viewBox="0 0 322.8 273.48"><title>clown</title><path d="M529.26,483.45a88.94,88.94,0,1,1,88.94-88.94A89,89,0,0,1,529.26,483.45Zm0-170.6a81.66,81.66,0,1,0,81.67,81.66A81.76,81.76,0,0,0,529.26,312.85Z" transform="translate(-367.85 -296.55)" fill="#fff"/><circle cx="161.4" cy="107.03" r="18.12" fill="#e44839"/><path d="M476.22,386.78l.85-11.33-8.36-7.67,11-2.69,4.72-10.32,6,9.66,11.27,1.29-7.34,8.66,2.25,11.13-10.5-4.31Zm2.37-16.46,3.45,3.17-.35,4.67,4.08-2.3,4.33,1.78-.93-4.59,3-3.57-4.65-.54-2.46-4-1.95,4.26Z" transform="translate(-367.85 -296.55)" fill="#231f20"/><path d="M562.28,394.51l.85-11.33-8.36-7.67,11-2.69,4.72-10.32,6,9.66,11.27,1.29-7.34,8.66,2.25,11.13-10.51-4.3Zm2.37-16.46,3.45,3.17-.35,4.67,4.08-2.3,4.33,1.78-.93-4.59,3-3.57-4.65-.54-2.46-4-1.95,4.26Z" transform="translate(-367.85 -296.55)" fill="#231f20"/><path d="M527.87,464.47a61.09,61.09,0,0,1-10-.84c-26.65-4.5-41.47-25.84-42.08-26.75A13.61,13.61,0,0,1,479.33,418a13.93,13.93,0,0,1,18.85,3.54c.05.07,9.32,12.87,24.35,15.32,10.92,1.75,23.14-2.2,36-11.74a14,14,0,0,1,19,2.8,13.59,13.59,0,0,1-2.81,19C559.05,458.57,543.29,464.47,527.87,464.47ZM487,424.71a4.52,4.52,0,0,0-3.74,7.08c.53.77,13.22,19.05,36.11,22.92,16,2.68,32.91-2.37,50-15a4.53,4.53,0,0,0,.94-6.34,4.61,4.61,0,0,0-6.33-.94c-14.88,11-29.4,15.59-42.85,13.41-18.76-3.06-29.86-18.42-30.32-19.07A4.56,4.56,0,0,0,487,424.71Z" transform="translate(-367.85 -296.55)" fill="#231f20"/><path d="M485.43,323.82a23,23,0,0,0-40.85-14.58,18.18,18.18,0,0,0-34.78,10.58,29.69,29.69,0,1,0-3.09,55.27c0,.49-.07,1-.07,1.46A24.85,24.85,0,1,0,454.79,368a24.81,24.81,0,0,0,11.85-21.14c0-.14,0-.27,0-.4A23,23,0,0,0,485.43,323.82Z" transform="translate(-367.85 -296.55)" fill="#e44839"/><path d="M573.09,323.82a23,23,0,0,1,40.85-14.58,18.18,18.18,0,0,1,34.78,10.58,29.69,29.69,0,1,1,3.09,55.27c0,.49.07,1,.07,1.46A24.85,24.85,0,1,1,603.72,368a24.81,24.81,0,0,1-11.85-21.14c0-.14,0-.27,0-.4A23,23,0,0,1,573.09,323.82Z" transform="translate(-367.85 -296.55)" fill="#e44839"/><circle cx="127.34" cy="234.69" r="38.79" fill="#f2bebb"/><circle cx="202.74" cy="234.69" r="38.79" fill="#f2bebb"/><circle cx="126.8" cy="236.24" r="14.45" fill="#e5aaa3"/><circle cx="205.23" cy="236.24" r="14.45" fill="#e5aaa3"/><circle cx="127" cy="236.24" r="4.2" fill="#e59089"/><circle cx="205.23" cy="234.89" r="4.2" fill="#e59089"/></svg>