<?xml version="1.0" encoding="utf-8"?>
<!-- Generator: Adobe Illustrator 21.0.0, SVG Export Plug-In . SVG Version: 6.00 Build 0)  -->
<svg version="1.1" id="Layer_1" xmlns="http://www.w3.org/2000/svg" xmlns:xlink="http://www.w3.org/1999/xlink" x="0px" y="0px"
	 viewBox="0 0 299.2 254.9" style="enable-background:new 0 0 299.2 254.9;" xml:space="preserve">
<style type="text/css">
	.st0{fill:#F7BABA;stroke:#000000;stroke-width:0.5;stroke-miterlimit:10;}
	.st1{fill:#F7BABA;stroke:#000000;stroke-miterlimit:10;}
</style>
<title>fetishes</title>
<path class="st0" d="M26.2,106.6c0,0-7.2,5.2,0.9,11.1c0,0-3.8,2.3-2.4,12.4c0,0-4.5,9.6-0.3,14.8c0,0-2.7,4.5-0.4,11.9
	c0,0-3.5,7.1,1.4,8.7c3.1,1.7,6.8,1.4,9.6-0.8c0,0,7.9-12.7-1.3-16.3c0,0,6.4-6.8,2.7-15.7c0,0,6.1,1.5,9.8-0.5c0,0,6,5.4,10.7-0.2
	c0,0,5.6-3.4-0.6-7.8c-6.2-4.4-13.1-0.2-13.1-0.2s-5.5-3.5-6.7-1.8l-1.2,1.7c0,0,3.3-9.8,0.3-9.6c0,0,10.9,2.7,13.1-0.4
	c0,0,6.7,5.4,9.6,1.5c0,0,6.6-5.5,2.1-10c0,0-12.5-5.6-12.5-0.6c0,0-9.3-8.2-13.5-0.7C34.3,104.1,28,98.1,26.2,106.6z"/>
<path class="st0" d="M56.3,102.3c0,0-5.5,4.8,0.4,11.1c0,0-5.7,7.5-0.7,15.6c0,0-6.9,4.6-1.2,16.6c0,0-6.8,13.4,1.2,19.3
	c0,0,8,5.6,11.9-0.4c0,0,2.7,4.5,9.2,2.3c0,0,5.1,3.1,9.1,0.2c4-2.9-0.3-8.1-0.3-8.1s-7.4-6.2-11.6-1.8c0,0-5.2-5.7-8.8-1
	c0,0-2.6-2.2-4.1-1.5s9.1-8.2,2.6-13.9c0,0,5.5-3.1,1.9-7.3c0,0,6.5,7.3,10.1,1.6c0,0,4.8,6.7,10.9,1.3c0,0,6.9-2.9,2.2-9.9
	c0,0-7.6-1.3-13.1,2c0,0-4.3-5.3-9.8-3.5c0,0,4.4-8.7,0.3-9.2c0,0,10.8,4.2,10.9-0.7c0,0,6.4,4.7,10.1,1.3c0,0,6.5-3.2,3.8-8.7
	c0,0-9.3-6.6-13.2-0.8c0,0-9.6-4.9-14.5-1.1C63.6,105.7,62.8,101.1,56.3,102.3z"/>
<path class="st0" d="M82.8,105.6c0,0-8.2,3.4,0,9.5c0,0,5.2,5.4,8.5,0c0,0,4.3,3.4,8.2,1c0,0-7.5,6.8,0,11.2c0,0-3.9,3.8,0,7.9
	c0,0-3.6,4.4,0,8.4c0,0-3.3,5.8,0,10.5c0,0-5.6,5.9,0,10.8c0,0,3.6,5.5,6.2,2.8s3-12.6,0-14.6c0,0,7.1-7.5,2.1-13.2
	c0,0,4.1-13.9-2.1-13.2c0,0,6.2-7.8,0-9.2c0,0,10.8,2.4,12.8-1c0,0,3.6,3.4,7.2,0.7c0,0,6.9-9.2-2-11.5c0,0-8.8-3.7-11.1,1.7
	c0,0-2-4.6-6.9-3s-8.8-1.1-8.2,3.6c0,0-9.5-3.7-7.9,1.7C89.7,109.7,90.2,104.6,82.8,105.6z"/>
<path class="st0" d="M124.7,106.6c0,0-5.6,4.6,0,10.8c0,0-8.5,3.3,0,10.5c0,0-7.1,4.7,0,9.4c0,0-8.9,5.7,0,11.9c0,0-10.4,8.7,0,12.7
	c0,0-5.6,4.4,0,6.3c5.6,1.9,7.4,4.3,9.3,0c1.9-4.3,1.1-8.5-3-10.8c0,0,5.6-9.2,0-12.4c0,0,6.7-4.8,1.9-9.8c0,0,5.9-9.5,0-10.2
	c0,0,3-7.9-1.1-10.2c0,0,10.1-6.5,3.8-8.2C129.1,104.9,124.7,106.6,124.7,106.6z"/>
<path class="st0" d="M152.7,109.2c-2-1-8.9-4-10.9,4c0,0.1-0.1,0.2-0.2,0.2c-1.1,0.1-6.7,0.7-4.6,6.9c0,0.1,0,0.3-0.2,0.3l0,0
	c-1.4,0.2-7.9,1.7-2.3,7.6c0,0,0,0.1,0.1,0.1c0.2,0.7,2.9,9,9.8,5.1c0.1-0.1,0.3,0,0.3,0.1c0,0,0,0,0,0.1c0.3,1.1,1.5,4.8,5.7,2.4
	c0.1-0.1,0.3,0,0.3,0.1s0,0.1,0,0.2c-0.7,1.6-1.7,5.3,3.5,6.6c0.1,0,0.2,0.1,0.2,0.2c-0.1,1.1-0.1,6.4,7.1,6c0,0-11.6-2.2-9.4,4.6
	c0,0.1,0,0.3-0.2,0.3c-0.1,0-0.1,0-0.2,0c-2.2-1.2-10.2-4.7-9.2,4.5c0,0.1-0.1,0.2-0.2,0.2c-1.9,0.5-16.5,4.7-7.1,11.6
	c0,0,0.1,0,0.1,0.1c1.2,0,16.3,0.5,14.6-5.9c0-0.1,0.1-0.3,0.2-0.3h0.1c2.2,0.6,10.3,1.4,8.8-4.6c0-0.1,2.2,1.4,2.3,1.4
	c1.8,0,10.8-0.2,8.1-5.7c0-0.1,0-0.2,0.1-0.3c0.9-0.7,5.5-5.1-0.2-8.9c-0.1,0-0.1-0.1-0.1-0.2c0.1-1.2,0.4-10.5-5.9-9
	c-0.1,0-0.3,0-0.3-0.2l0,0c-0.2-1.6-1.4-9.5-7.8-8.8c-6.7,0.8-2.5-4.4-9.8-2.8c-0.1,0-0.2,0-0.3-0.1c0-0.1,0-0.2,0.1-0.3
	c1.1-0.7,2.3-1.7,1.8-2.6c0-0.1,0-0.3,0.1-0.3s0.1,0,0.2,0c1.6,0.5,4.6,0.9,4.5-2.5c0-0.1,0.1-0.2,0.2-0.2l0,0
	c1.2,0.2,5.8,0.6,5.7-3c0-0.1,0.1-0.2,0.2-0.2h0.1c1.5,0.6,6.9,2.4,7.3-2.7c0-0.1,0-0.1,0.1-0.2c0.8-0.5,6.5-4.5,2.2-6.9
	c-0.1,0-0.1-0.1-0.1-0.1c-0.1-0.5-0.9-3.2-4.6-1.5c-0.1,0.1-0.3,0-0.3-0.1l0,0c-0.3-0.8-1.5-3.3-5.1-0.5h-0.1
	c-0.5,0.1-4.4,1.1-2.8,3.4c0.1,0.1,0,0.3-0.1,0.3s-0.1,0.1-0.2,0c-0.8-0.2-1.9-0.2-1.5,1.4c0,0.1-0.1,0.3-0.2,0.3
	C152.8,109.2,152.7,109.2,152.7,109.2z"/>
<path class="st0" d="M173.5,104.6c0,0-8.7,5.7,0,13.4c0,0-8.3,2.6-2,12.5c0,0-6.2,3.9-0.2,8.8c0,0-4.9,2.7,2.2,9.3
	c0,0-10.1,4.9-4.8,10.4c0,0-4.3,8.8,1.6,9.3c0,0,3.1,4.6,6.4,2.5c3.3-2.1,2.7-9.1,0-10.8c0,0,4.9-3.6,2.3-6.8c0,0,6-10.5,1.9-11.8
	c0,0,7.5,7.7,11.5,0c0,0,0.6,2.7,3.2,1c0,0-4.9,6.2,0,9.2c0,0-4.3,3.8,0,7.1c0,0-4,4.5,0,7.3c0,0-1.1,4.2,2.3,4.8
	c0,0,6.4,1.2,7.3-2.5c0,0,4.5-8.6,0-9.9c0,0,2.8-11.8-3.4-9.2c0,0,6.8-5.7,2.6-6.7c0,0,3.4-6.1,0-7.4c0,0,8.8-7-3-9.4
	c0,0,6.4-5.3,0.4-8.8c0,0,5.1-9.2,0-9.8c0,0,0.2-5.9-4-3.2c0,0-4.9,1.5-2.6,5.1c0,0-3.9,3.8-0.2,7.5c0,0-3,6.4,0.2,8.6
	c0,0-3.4,4.5-0.2,6.2c0,0-2.6,1.5-0.2,3c0,0-4-3.6-5.6,0c0,0-7.1-4.7-7.5-0.4c0,0-2.1-4-4.5-3.2c0,0,3.4-2.1,1.5-5.1
	c0,0,5.6-5.3,1.9-7.9c-3.6-2.6-0.6-2.1-0.6-2.1s3.2-5.8,0.4-7.3c0,0,4-2.7,1.1-4.3C178.6,102.3,172.9,100.8,173.5,104.6z"/>
<path class="st1" d="M76.8,63.7"/>
<path class="st0" d="M208.2,105.4c0,0-5.5,4.8,0.4,11.1c0,0-5.7,7.5-0.7,15.6c0,0-6.9,4.6-1.2,16.6c0,0-6.8,13.4,1.2,19.3
	c0,0,8,5.6,11.9-0.4c0,0,2.7,4.5,9.2,2.3c0,0,5.1,3.1,9.1,0.2c4-2.9-0.3-8.1-0.3-8.1s-7.4-6.2-11.6-1.8c0,0-5.2-5.7-8.8-1
	c0,0-2.6-2.2-4.1-1.5s9.1-8.2,2.6-13.9c0,0,5.5-3.1,1.9-7.3c0,0,6.5,7.3,10.1,1.6c0,0,4.8,6.7,10.9,1.3c0,0,6.9-2.9,2.2-9.9
	c0,0-7.6-1.3-13.1,2c0,0-4.3-5.3-9.8-3.5c0,0,4.4-8.7,0.3-9.2c0,0,10.8,4.2,10.9-0.7c0,0,6.4,4.7,10.1,1.3c0,0,6.5-3.2,3.8-8.7
	c0,0-9.3-6.6-13.2-0.8c0,0-9.6-4.9-14.5-1.1C215.5,108.8,214.7,104.2,208.2,105.4z"/>
<path class="st0" d="M257.5,111.5c-2-1-8.9-4-10.9,4c0,0.1-0.1,0.2-0.2,0.2c-1.1,0.1-6.7,0.7-4.6,6.9c0,0.1,0,0.3-0.2,0.3l0,0
	c-1.4,0.2-7.9,1.7-2.3,7.6c0,0,0,0.1,0.1,0.1c0.2,0.7,2.9,9,9.8,5.1c0.1-0.1,0.3,0,0.3,0.1c0,0,0,0,0,0.1c0.3,1.1,1.5,4.8,5.7,2.4
	c0.1-0.1,0.3,0,0.3,0.1s0,0.1,0,0.2c-0.7,1.6-1.7,5.3,3.5,6.6c0.1,0,0.2,0.1,0.2,0.2c-0.1,1.1-0.1,6.4,7.1,6c0,0-11.6-2.2-9.4,4.6
	c0,0.1,0,0.3-0.2,0.3c-0.1,0-0.1,0-0.2,0c-2.2-1.2-10.2-4.7-9.2,4.5c0,0.1-0.1,0.2-0.2,0.2c-1.9,0.5-16.5,4.7-7.1,11.6
	c0,0,0.1,0,0.1,0.1c1.2,0,16.3,0.5,14.6-5.9c0-0.1,0.1-0.3,0.2-0.3h0.1c2.2,0.6,10.3,1.4,8.8-4.6c0-0.1,2.2,1.4,2.3,1.4
	c1.8,0,10.8-0.2,8.1-5.7c0-0.1,0-0.2,0.1-0.3c0.9-0.7,5.5-5.1-0.2-8.9c-0.1,0-0.1-0.1-0.1-0.2c0.1-1.2,0.4-10.5-5.9-9
	c-0.1,0-0.3,0-0.3-0.2l0,0c-0.2-1.6-1.4-9.5-7.8-8.8c-6.7,0.8-2.5-4.4-9.8-2.8c-0.1,0-0.2,0-0.3-0.1c0-0.1,0-0.2,0.1-0.3
	c1.1-0.7,2.3-1.7,1.8-2.6c0-0.1,0-0.3,0.1-0.3s0.1,0,0.2,0c1.6,0.5,4.6,0.9,4.5-2.5c0-0.1,0.1-0.2,0.2-0.2l0,0
	c1.2,0.2,5.8,0.6,5.7-3c0-0.1,0.1-0.2,0.2-0.2h0.1c1.5,0.6,6.9,2.4,7.3-2.7c0-0.1,0-0.1,0.1-0.2c0.8-0.5,6.5-4.5,2.2-6.9
	c-0.1,0-0.1-0.1-0.1-0.1c-0.1-0.5-0.9-3.2-4.6-1.5c-0.1,0.1-0.3,0-0.3-0.1l0,0c-0.3-0.8-1.5-3.3-5.1-0.5h-0.1
	c-0.5,0.1-4.4,1.1-2.8,3.4c0.1,0.1,0,0.3-0.1,0.3s-0.1,0.1-0.2,0c-0.8-0.2-1.9-0.2-1.5,1.4c0,0.1-0.1,0.3-0.2,0.3
	C257.6,111.5,257.6,111.5,257.5,111.5z"/>
<path class="st0" d="M235.7,161.2"/>
</svg>
