<?xml version="1.0" encoding="utf-8"?>
<!-- Generator: Adobe Illustrator 19.2.1, SVG Export Plug-In . SVG Version: 6.00 Build 0)  -->
<svg version="1.1" id="Layer_1" xmlns="http://www.w3.org/2000/svg" xmlns:xlink="http://www.w3.org/1999/xlink" x="0px" y="0px"
	 viewBox="0 0 299.2 254.9" style="enable-background:new 0 0 299.2 254.9;" xml:space="preserve">
<style type="text/css">
	.st0{fill:#F7BABA;stroke:#000000;stroke-width:0.5;stroke-miterlimit:10;}
	.st1{fill:#F7BABA;stroke:#000000;stroke-miterlimit:10;}
	.st2{fill:#FFFFFF;stroke:#000000;stroke-width:0.5;stroke-miterlimit:10;}
	.st3{fill:none;stroke:#000000;stroke-width:0.5;stroke-miterlimit:10;}
	.st4{fill:none;stroke:#000000;stroke-width:0.2;stroke-miterlimit:10;}
</style>
<title>fetishes</title>
<path class="st0" d="M26.2,106.6c0,0-7.2,5.2,0.9,11.1c0,0-3.8,2.3-2.4,12.4c0,0-4.5,9.6-0.3,14.8c0,0-2.7,4.5-0.4,11.9
	c0,0-3.5,7.1,1.4,8.7c3.1,1.7,6.8,1.4,9.6-0.8c0,0,7.9-12.7-1.3-16.3c0,0,6.4-6.8,2.7-15.7c0,0,6.1,1.5,9.8-0.5c0,0,6,5.4,10.7-0.2
	c0,0,5.6-3.4-0.6-7.8c-6.2-4.4-13.1-0.2-13.1-0.2s-5.5-3.5-6.7-1.8l-1.2,1.7c0,0,3.3-9.8,0.3-9.6c0,0,10.9,2.7,13.1-0.4
	c0,0,6.7,5.4,9.6,1.5c0,0,6.6-5.5,2.1-10c0,0-12.5-5.6-12.5-0.6c0,0-9.3-8.2-13.5-0.7C34.3,104.1,28,98.1,26.2,106.6z"/>
<path class="st0" d="M56.3,102.3c0,0-5.5,4.8,0.4,11.1c0,0-5.7,7.5-0.7,15.6c0,0-6.9,4.6-1.2,16.6c0,0-6.8,13.4,1.2,19.3
	c0,0,8,5.6,11.9-0.4c0,0,2.7,4.5,9.2,2.3c0,0,5.1,3.1,9.1,0.2c4-2.9-0.3-8.1-0.3-8.1s-7.4-6.2-11.6-1.8c0,0-5.2-5.7-8.8-1
	c0,0-2.6-2.2-4.1-1.5s9.1-8.2,2.6-13.9c0,0,5.5-3.1,1.9-7.3c0,0,6.5,7.3,10.1,1.6c0,0,4.8,6.7,10.9,1.3c0,0,6.9-2.9,2.2-9.9
	c0,0-7.6-1.3-13.1,2c0,0-4.3-5.3-9.8-3.5c0,0,4.4-8.7,0.3-9.2c0,0,10.8,4.2,10.9-0.7c0,0,6.4,4.7,10.1,1.3c0,0,6.5-3.2,3.8-8.7
	c0,0-9.3-6.6-13.2-0.8c0,0-9.6-4.9-14.5-1.1C63.6,105.7,62.8,101.1,56.3,102.3z"/>
<path class="st0" d="M82.8,105.6c0,0-8.2,3.4,0,9.5c0,0,5.2,5.4,8.5,0c0,0,4.3,3.4,8.2,1c0,0-7.5,6.8,0,11.2c0,0-3.9,3.8,0,7.9
	c0,0-3.6,4.4,0,8.4c0,0-3.3,5.8,0,10.5c0,0-5.6,5.9,0,10.8c0,0,3.6,5.5,6.2,2.8s3-12.6,0-14.6c0,0,7.1-7.5,2.1-13.2
	c0,0,4.1-13.9-2.1-13.2c0,0,6.2-7.8,0-9.2c0,0,10.8,2.4,12.8-1c0,0,3.6,3.4,7.2,0.7c0,0,6.9-9.2-2-11.5c0,0-8.8-3.7-11.1,1.7
	c0,0-2-4.6-6.9-3s-8.8-1.1-8.2,3.6c0,0-9.5-3.7-7.9,1.7C89.7,109.7,90.2,104.6,82.8,105.6z"/>
<path class="st0" d="M124.7,106.6c0,0-5.6,4.6,0,10.8c0,0-8.5,3.3,0,10.5c0,0-7.1,4.7,0,9.4c0,0-8.9,5.7,0,11.9c0,0-10.4,8.7,0,12.7
	c0,0-5.6,4.4,0,6.3c5.6,1.9,7.4,4.3,9.3,0c1.9-4.3,1.1-8.5-3-10.8c0,0,5.6-9.2,0-12.4c0,0,6.7-4.8,1.9-9.8c0,0,5.9-9.5,0-10.2
	c0,0,3-7.9-1.1-10.2c0,0,10.1-6.5,3.8-8.2C129.1,104.9,124.7,106.6,124.7,106.6z"/>
<path class="st0" d="M152.7,109.2c-2-1-8.9-4-10.9,4c0,0.1-0.1,0.2-0.2,0.2c-1.1,0.1-6.7,0.7-4.6,6.9c0,0.1,0,0.3-0.2,0.3l0,0
	c-1.4,0.2-7.9,1.7-2.3,7.6c0,0,0,0.1,0.1,0.1c0.2,0.7,2.9,9,9.8,5.1c0.1-0.1,0.3,0,0.3,0.1c0,0,0,0,0,0.1c0.3,1.1,1.5,4.8,5.7,2.4
	c0.1-0.1,0.3,0,0.3,0.1s0,0.1,0,0.2c-0.7,1.6-1.7,5.3,3.5,6.6c0.1,0,0.2,0.1,0.2,0.2c-0.1,1.1-0.1,6.4,7.1,6c0,0-11.6-2.2-9.4,4.6
	c0,0.1,0,0.3-0.2,0.3c-0.1,0-0.1,0-0.2,0c-2.2-1.2-10.2-4.7-9.2,4.5c0,0.1-0.1,0.2-0.2,0.2c-1.9,0.5-16.5,4.7-7.1,11.6
	c0,0,0.1,0,0.1,0.1c1.2,0,16.3,0.5,14.6-5.9c0-0.1,0.1-0.3,0.2-0.3h0.1c2.2,0.6,10.3,1.4,8.8-4.6c0-0.1,2.2,1.4,2.3,1.4
	c1.8,0,10.8-0.2,8.1-5.7c0-0.1,0-0.2,0.1-0.3c0.9-0.7,5.5-5.1-0.2-8.9c-0.1,0-0.1-0.1-0.1-0.2c0.1-1.2,0.4-10.5-5.9-9
	c-0.1,0-0.3,0-0.3-0.2l0,0c-0.2-1.6-1.4-9.5-7.8-8.8c-6.7,0.8-2.5-4.4-9.8-2.8c-0.1,0-0.2,0-0.3-0.1c0-0.1,0-0.2,0.1-0.3
	c1.1-0.7,2.3-1.7,1.8-2.6c0-0.1,0-0.3,0.1-0.3s0.1,0,0.2,0c1.6,0.5,4.6,0.9,4.5-2.5c0-0.1,0.1-0.2,0.2-0.2l0,0
	c1.2,0.2,5.8,0.6,5.7-3c0-0.1,0.1-0.2,0.2-0.2h0.1c1.5,0.6,6.9,2.4,7.3-2.7c0-0.1,0-0.1,0.1-0.2c0.8-0.5,6.5-4.5,2.2-6.9
	c-0.1,0-0.1-0.1-0.1-0.1c-0.1-0.5-0.9-3.2-4.6-1.5c-0.1,0.1-0.3,0-0.3-0.1l0,0c-0.3-0.8-1.5-3.3-5.1-0.5h-0.1
	c-0.5,0.1-4.4,1.1-2.8,3.4c0.1,0.1,0,0.3-0.1,0.3s-0.1,0.1-0.2,0c-0.8-0.2-1.9-0.2-1.5,1.4c0,0.1-0.1,0.3-0.2,0.3
	C152.8,109.2,152.7,109.2,152.7,109.2z"/>
<path class="st0" d="M173.5,104.6c0,0-8.7,5.7,0,13.4c0,0-8.3,2.6-2,12.5c0,0-6.2,3.9-0.2,8.8c0,0-4.9,2.7,2.2,9.3
	c0,0-10.1,4.9-4.8,10.4c0,0-4.3,8.8,1.6,9.3c0,0,3.1,4.6,6.4,2.5c3.3-2.1,2.7-9.1,0-10.8c0,0,4.9-3.6,2.3-6.8c0,0,6-10.5,1.9-11.8
	c0,0,7.5,7.7,11.5,0c0,0,0.6,2.7,3.2,1c0,0-4.9,6.2,0,9.2c0,0-4.3,3.8,0,7.1c0,0-4,4.5,0,7.3c0,0-1.1,4.2,2.3,4.8
	c0,0,6.4,1.2,7.3-2.5c0,0,4.5-8.6,0-9.9c0,0,2.8-11.8-3.4-9.2c0,0,6.8-5.7,2.6-6.7c0,0,3.4-6.1,0-7.4c0,0,8.8-7-3-9.4
	c0,0,6.4-5.3,0.4-8.8c0,0,5.1-9.2,0-9.8c0,0,0.2-5.9-4-3.2c0,0-4.9,1.5-2.6,5.1c0,0-3.9,3.8-0.2,7.5c0,0-3,6.4,0.2,8.6
	c0,0-3.4,4.5-0.2,6.2c0,0-2.6,1.5-0.2,3c0,0-4-3.6-5.6,0c0,0-7.1-4.7-7.5-0.4c0,0-2.1-4-4.5-3.2c0,0,3.4-2.1,1.5-5.1
	c0,0,5.6-5.3,1.9-7.9c-3.6-2.6-0.6-2.1-0.6-2.1s3.2-5.8,0.4-7.3c0,0,4-2.7,1.1-4.3C178.6,102.3,172.9,100.8,173.5,104.6z"/>
<path class="st1" d="M76.8,63.7"/>
<path class="st0" d="M208.2,105.4c0,0-5.5,4.8,0.4,11.1c0,0-5.7,7.5-0.7,15.6c0,0-6.9,4.6-1.2,16.6c0,0-6.8,13.4,1.2,19.3
	c0,0,8,5.6,11.9-0.4c0,0,2.7,4.5,9.2,2.3c0,0,5.1,3.1,9.1,0.2c4-2.9-0.3-8.1-0.3-8.1s-7.4-6.2-11.6-1.8c0,0-5.2-5.7-8.8-1
	c0,0-2.6-2.2-4.1-1.5s9.1-8.2,2.6-13.9c0,0,5.5-3.1,1.9-7.3c0,0,6.5,7.3,10.1,1.6c0,0,4.8,6.7,10.9,1.3c0,0,6.9-2.9,2.2-9.9
	c0,0-7.6-1.3-13.1,2c0,0-4.3-5.3-9.8-3.5c0,0,4.4-8.7,0.3-9.2c0,0,10.8,4.2,10.9-0.7c0,0,6.4,4.7,10.1,1.3c0,0,6.5-3.2,3.8-8.7
	c0,0-9.3-6.6-13.2-0.8c0,0-9.6-4.9-14.5-1.1C215.5,108.8,214.7,104.2,208.2,105.4z"/>
<path class="st0" d="M257.5,111.5c-2-1-8.9-4-10.9,4c0,0.1-0.1,0.2-0.2,0.2c-1.1,0.1-6.7,0.7-4.6,6.9c0,0.1,0,0.3-0.2,0.3l0,0
	c-1.4,0.2-7.9,1.7-2.3,7.6c0,0,0,0.1,0.1,0.1c0.2,0.7,2.9,9,9.8,5.1c0.1-0.1,0.3,0,0.3,0.1c0,0,0,0,0,0.1c0.3,1.1,1.5,4.8,5.7,2.4
	c0.1-0.1,0.3,0,0.3,0.1s0,0.1,0,0.2c-0.7,1.6-1.7,5.3,3.5,6.6c0.1,0,0.2,0.1,0.2,0.2c-0.1,1.1-0.1,6.4,7.1,6c0,0-11.6-2.2-9.4,4.6
	c0,0.1,0,0.3-0.2,0.3c-0.1,0-0.1,0-0.2,0c-2.2-1.2-10.2-4.7-9.2,4.5c0,0.1-0.1,0.2-0.2,0.2c-1.9,0.5-16.5,4.7-7.1,11.6
	c0,0,0.1,0,0.1,0.1c1.2,0,16.3,0.5,14.6-5.9c0-0.1,0.1-0.3,0.2-0.3h0.1c2.2,0.6,10.3,1.4,8.8-4.6c0-0.1,2.2,1.4,2.3,1.4
	c1.8,0,10.8-0.2,8.1-5.7c0-0.1,0-0.2,0.1-0.3c0.9-0.7,5.5-5.1-0.2-8.9c-0.1,0-0.1-0.1-0.1-0.2c0.1-1.2,0.4-10.5-5.9-9
	c-0.1,0-0.3,0-0.3-0.2l0,0c-0.2-1.6-1.4-9.5-7.8-8.8c-6.7,0.8-2.5-4.4-9.8-2.8c-0.1,0-0.2,0-0.3-0.1c0-0.1,0-0.2,0.1-0.3
	c1.1-0.7,2.3-1.7,1.8-2.6c0-0.1,0-0.3,0.1-0.3s0.1,0,0.2,0c1.6,0.5,4.6,0.9,4.5-2.5c0-0.1,0.1-0.2,0.2-0.2l0,0
	c1.2,0.2,5.8,0.6,5.7-3c0-0.1,0.1-0.2,0.2-0.2h0.1c1.5,0.6,6.9,2.4,7.3-2.7c0-0.1,0-0.1,0.1-0.2c0.8-0.5,6.5-4.5,2.2-6.9
	c-0.1,0-0.1-0.1-0.1-0.1c-0.1-0.5-0.9-3.2-4.6-1.5c-0.1,0.1-0.3,0-0.3-0.1l0,0c-0.3-0.8-1.5-3.3-5.1-0.5h-0.1
	c-0.5,0.1-4.4,1.1-2.8,3.4c0.1,0.1,0,0.3-0.1,0.3s-0.1,0.1-0.2,0c-0.8-0.2-1.9-0.2-1.5,1.4c0,0.1-0.1,0.3-0.2,0.3
	C257.6,111.5,257.6,111.5,257.5,111.5z"/>
<path class="st0" d="M235.7,161.2"/>
<path class="st2" d="M32.2,166.2c0,0-2.2-4.4-2.2-6.1"/>
<path class="st2" d="M33.7,148.4c0,0-2.2,0.2-3.7,2.2"/>
<path class="st2" d="M24,156.8c0,0-0.8-1.4,1-2.9"/>
<path class="st2" d="M87.8,164.6c0,0-1.8,0.6-3.2,0"/>
<path class="st3" d="M74.3,157.1c0,0-0.9,2.2,0,4.3c0.9,2.2,2,5,2.8,5.4"/>
<path class="st3" d="M47.9,104.8c0,0-0.8,3.3,0,4.8"/>
<path class="st3" d="M79.2,109.6c0,0,3.3,2.2,4.3,2.3"/>
<path class="st4" d="M26.8,113.8c1.2,1-0.8,0.8,1.2,1"/>
<path class="st4" d="M28,108.1c1.3,1.3,1.3-0.5,1.3,1.3c0,1.8,0,1.8,0,1.8"/>
<path class="st4" d="M23.8,111.3c1.5-0.5,1.2-1.2,1.5-0.5"/>
<path class="st4" d="M27.4,110.5"/>
<path class="st4" d="M31.9,112.9c0.8,1.5-0.2,1.3,0.8,1.5"/>
<path class="st4" d="M31.1,110.8c-0.3,1,1.1,0.3-0.3,1"/>
<path class="st3" d="M34.4,104.1c0,0,1.3,1.7,0.9,3.1"/>
<path class="st4" d="M42.3,109.6c-1,0.3,0.4,1-1,0.3"/>
<path class="st4" d="M31.1,102.6"/>
<path class="st4" d="M24.6,107.2c0,0,0.9,0.7,1.6,0.9c0.7,0.2,0.7,0.2,0.7,0.2"/>
<path class="st4" d="M30.9,100.9c0,0,0.6,0.3,0.5,1.1s-0.2,0.8-0.2,0.8"/>
<path class="st4" d="M26.4,104c0,0,0.8,1.7,1.3,1.3c0.4-0.4,0.4-0.4,0.4-0.4"/>
<path class="st4" d="M40,104c0,0,1.5-0.4,1.3-1.2"/>
<path class="st4" d="M37,105.4c0,0-1-0.9,0-1.3"/>
<path class="st4" d="M38.6,113.8c0,0,0.8,1.7,1.3,1.3c0.4-0.4,0.4-0.4,0.4-0.4"/>
<path class="st4" d="M28.3,107.4c0,0-1-0.9,0-1.3"/>
<path class="st4" d="M44.4,114.5c0,0,0.7-0.2,1.1,0.6c0.4,0.7,0.4,0.7,0.4,0.7"/>
<path class="st4" d="M34.4,102.4c0,0,0.5-0.5,1.2-0.2c0.7,0.4,0.7,0.4,0.7,0.4"/>
<path class="st4" d="M23.8,116.4c0,0-0.1-0.7,0.7-1c0.8-0.3,0.8-0.3,0.8-0.3"/>
<path class="st4" d="M46.4,102.6c0,0,0.3,0.7-0.4,1.2c-0.7,0.5-0.7,0.5-0.7,0.5"/>
<path class="st4" d="M23.4,108.4c0,0,0.1,1.2,0.4,1.8s0.3,0.6,0.3,0.6"/>
<path class="st4" d="M46,109.2c0,0,0.3,0.7,0.5,1.1c0.3,0.4,0.3,0.4,0.3,0.4"/>
<path class="st4" d="M36.2,109.6c0,0,0.6-1,0.7-1.7s0.1-0.7,0.1-0.7"/>
<path class="st3" d="M27.1,117.7c0,0,1.1,0.9,2.9,0"/>
<path class="st4" d="M51,159c0,0,0.9,0.7,1.6,0.9c0.7,0.2,0.7,0.2,0.7,0.2"/>
<path class="st4" d="M64.3,154.4c0,0,0.6,0.3,0.5,1.1c-0.2,0.8-0.2,0.8-0.2,0.8"/>
<path class="st4" d="M65.1,164.4c0,0,0-1.2-0.2-1.8c-0.3-0.6-0.3-0.6-0.3-0.6"/>
<path class="st4" d="M53.6,163.9c0,0,1.1-0.4,1.6-0.9s0.5-0.5,0.5-0.5"/>
<path class="st4" d="M62.5,157.7c0,0-0.1-0.7-0.2-1c-0.2-0.3-0.2-0.3-0.2-0.3"/>
<path class="st4" d="M61.6,168c0,0,0.6-1,0.7-1.7s0.1-0.7,0.1-0.7"/>
<path class="st4" d="M58.9,161.4c-0.3,1,1.1,0.3-0.3,1"/>
<path class="st4" d="M59.8,155c-1,0.4,0.3,1.1-1,0.4"/>
<path class="st4" d="M54,158.3c0,0,1.5-0.4,1.3-1.2"/>
<path class="st4" d="M63.2,154.6c0,0-0.6-1.4-1.3-1.2"/>
<path class="st4" d="M52.1,151c-0.3,1,1.1,0.3-0.3,1"/>
<path class="st4" d="M64.1,152.4c0,0,0.8-1.3,0.2-1.8"/>
<path class="st4" d="M58.5,167.5c0.9-1.3,0.2-1.7,0.9-1.3"/>
<path class="st4" d="M53.2,155.3c1.6-0.3,1.4-1,1.6-0.3"/>
<path class="st4" d="M55.3,150.7c0.5,1.5,1.2,1.2,0.5,1.5"/>
<path class="st4" d="M51.9,149.7c0,0,0.8,0.3,1.3,0.4c0.5,0.1,0.5,0.1,0.5,0.1"/>
<path class="st4" d="M60.5,149.5c0,0-0.6,1-0.7,1.7c-0.1,0.7-0.1,0.7-0.1,0.7"/>
<path class="st4" d="M63.6,148c-0.9,0.6,0.6,1-0.9,0.6"/>
<path class="st3" d="M55.1,145.7c0,0-0.5-1.2,3.1,1.6"/>
<path class="st3" d="M73.5,156.3c0,0-1.2,3.6,0,6.1"/>
<path class="st3" d="M76,135c-0.9-1-0.5-1.9-0.5-1.9s-0.3-2.2,0.5-2.8"/>
<path class="st3" d="M229.3,118.1c0,0-0.8-0.7-0.8-2.8"/>
<path class="st3" d="M239.8,111.9c0,0,3.9,0.3,3.4-1.2"/>
<path class="st3" d="M228.6,119.2c0,0-2.3-3.9-1.5-6.4"/>
<path class="st3" d="M272.4,108.4c0,0-0.6,2.2-2.2,2.3"/>
<path class="st3" d="M257.4,111.6c0,0,0.8,2.2,2.3,3.7"/>
<path class="st3" d="M247.3,160.8c0,0,6.7,2.6,7.6,5.7"/>
<path class="st3" d="M238.1,170.1c0,0,4.7-0.3,6.4-1.7"/>
<path class="st3" d="M103.7,168.4c0,0-1.7-2.9-0.9-5.3"/>
<path class="st3" d="M99,153.3"/>
<path class="st3" d="M89.7,127.4c0,0,0.1,2.3-1.9,2.8"/>
<path class="st3" d="M105.7,153.1l-3.1,0.2c-1.4-0.3-3.1,0.8-3.1,0.8"/>
<path class="st3" d="M99,153.3c0,0,2.6-1.4,4.1-1.3"/>
<path class="st3" d="M132.1,170.6c0,0-3.3-4.2-3.2-5.8"/>
<path class="st3" d="M124.7,161.9c0,0,2-2.4,4.2-2.5"/>
<path class="st3" d="M133,168.2c0,0,6.2-0.3,7-1.6"/>
<path class="st3" d="M142.3,158.7c0,0,7.2,3.2,7.6,5.8"/>
<path class="st3" d="M146.1,159c0,0,4.8,3.3,4.9,5.3"/>
<line class="st3" x1="91.3" y1="115.1" x2="90.5" y2="112.8"/>
<path class="st3" d="M137.6,108.1c0,0-5.1,2.2-6.5,2.1"/>
<path class="st3" d="M167.5,106"/>
<line class="st3" x1="164.7" y1="108.1" x2="167.5" y2="106"/>
<path class="st3" d="M152.6,109.3c0,0,2.2,3.7,3.7,5.1c1.6,1.5,1.6,1.5,1.6,1.5"/>
<path class="st3" d="M154.3,107.6c0,0,1.5,3.1,2.7,4.4"/>
<path class="st3" d="M170.3,168.3c0,0,2-2,3.4-2.7"/>
<path class="st3" d="M176.7,170.8c0,0,0-2-0.7-2.4"/>
<path class="st3" d="M176.7,160c0,0-1.9,0-3,2"/>
<path class="st3" d="M226.2,160.2c0,0-0.4,3.3,0.7,5.6"/>
<line class="st3" x1="235.7" y1="165.8" x2="236.9" y2="166.1"/>
<path class="st3" d="M227.7,136.3c0,0-0.3,1.2,0.2,1.8"/>
<path class="st3" d="M238.1,133.8c0,0,3.4,1,2.8,0"/>
<path class="st3" d="M251.1,161.6c0,0,4.9,2.9,5.1,4.5"/>
<path class="st3" d="M239.8,131.8c0,0,1.4,1.2,1.7,0"/>
<path class="st3" d="M189.2,134.3c0,0,1.8,1.8,1.8,2.9"/>
<path class="st3" d="M194.8,134.3c0,0,2.9,1.7,3,2.5c0.2,0.8-1.5,4.8-1.5,4.8"/>
<path class="st3" d="M194.8,137.2c0,0,3.5,0.3,3-0.4"/>
<path class="st3" d="M182.3,104.7c0,0-3.3-0.7-3.8,0.5"/>
<path class="st3" d="M173.5,104.6c0,0,1.1,3.3,3.2,3.5"/>
<path class="st3" d="M172.1,105.2c0,0,0.2,1.7,1.4,2.4"/>
<path class="st3" d="M173.5,148.6c0,0,1.2,0.9,3.2-0.2"/>
<path class="st4" d="M179.1,132.1c1.5-0.5,1.2-1.2,1.5-0.5"/>
<path class="st4" d="M171.2,146.8c1.5-0.5,1.2-1.2,1.5-0.5"/>
<path class="st4" d="M171.3,134.7c1.3,1.3,1.3-0.5,1.3,1.3c0,1.8,0,1.8,0,1.8"/>
<path class="st4" d="M178.4,137.6c-1,0.3,0.4,1-1,0.3"/>
<path class="st4" d="M167.2,134.6c0,0,0.9,0.7,1.6,0.9c0.7,0.2,0.7,0.2,0.7,0.2"/>
<path class="st4" d="M176,147.4c0,0-0.2,1.2,0,1.8c0.2,0.7,0.2,0.7,0.2,0.7"/>
<path class="st4" d="M172.2,132.1c1.2,1-0.8,0.8,1.2,1"/>
<path class="st4" d="M180.6,141.1c1.2,1-0.8,0.8,1.2,1"/>
<path class="st4" d="M181.4,144.8c0,0,0.1,1.2,0.4,1.8c0.3,0.6,0.3,0.6,0.3,0.6"/>
<path class="st4" d="M173.2,142.1c0,0-1.1,0.4-1.6,0.9c-0.5,0.5-0.5,0.5-0.5,0.5"/>
<path class="st4" d="M178.7,144.2c0,0-1-0.9,0-1.3"/>
<path class="st4" d="M180.8,135.7c0,0,0.5-0.5,1.2-0.2c0.7,0.4,0.7,0.4,0.7,0.4"/>
<path class="st4" d="M175,130.2c0,0-0.6,1.8,0,1.8c0.6,0,0.6,0,0.6,0"/>
<path class="st4" d="M168.6,132c0,0,0.8,1.7,1.3,1.3c0.4-0.4,0.4-0.4,0.4-0.4"/>
<path class="st4" d="M170.8,140.1c0,0-1.4,0.2-1.1-0.8"/>
<path class="st3" d="M123.7,105.7c0,0-1.9,2.4-1.9,3.5s-0.3,1.3,0,2.1"/>
<path class="st4" d="M140.9,123.6c0,0-0.1-0.7-0.2-1s-0.2-0.3-0.2-0.3"/>
<path class="st4" d="M140.4,130.3c-0.3,1,1.1,0.3-0.3,1"/>
<path class="st4" d="M134.6,124.2c1.6-0.3,1.4-1,1.6-0.3"/>
<path class="st4" d="M144.2,128.1c0,0-0.1-0.7-0.2-1s-0.2-0.3-0.2-0.3"/>
<path class="st4" d="M133.2,124c-0.3,1,1.1,0.3-0.3,1"/>
<path class="st4" d="M133.6,129.2c1.6-0.3,1.4-1,1.6-0.3"/>
<path class="st4" d="M122.5,132.7c0,0-0.1-0.7-0.2-1c-0.2-0.3-0.2-0.3-0.2-0.3"/>
<path class="st4" d="M99.5,106.2c-0.3,1,1.1,0.3-0.3,1"/>
<path class="st4" d="M141.5,133.4c1.6-0.3,1.4-1,1.6-0.3"/>
<path class="st4" d="M105.7,104.4c0,0-0.1-0.7-0.2-1c-0.2-0.3-0.2-0.3-0.2-0.3"/>
<path class="st4" d="M109,114.6c-0.3,1,1.1,0.3-0.3,1"/>
<path class="st4" d="M102.9,107.7c1.6-0.3,1.4-1,1.6-0.3"/>
<path class="st4" d="M138.6,134.4c0,0,0.3-0.6,0.3-1c0-0.4,0-0.4,0-0.4"/>
<path class="st4" d="M136.2,120.1c-0.3,1,1.1,0.3-0.3,1"/>
<path class="st4" d="M138.3,126.7c0.6,1.5,1.2,1.1,0.6,1.5"/>
<path class="st4" d="M145.4,123.1c0,0,0.7,0.7,1.2,0.9s0.5,0.2,0.5,0.2"/>
<path class="st4" d="M139.6,118c0,0,0-0.8-0.2-1.3c-0.2-0.5-0.2-0.5-0.2-0.5"/>
<path class="st4" d="M135.4,118.4c1.6-0.3,1.4-1,1.6-0.3"/>
<path class="st4" d="M136.8,114.6c0,0,0.8,1.7,1.3,1.3c0.4-0.4,0.4-0.4,0.4-0.4"/>
<path class="st4" d="M135.6,133.1c0,0,1.5-1.2,1-1.5s-0.5-0.3-0.5-0.3"/>
<path class="st4" d="M111.4,117.7c0,0,0.8,1.7,1.3,1.3c0.4-0.4,0.4-0.4,0.4-0.4"/>
<path class="st4" d="M111.2,105.8c0,0,0.8-1.7,0.2-1.8c-0.6-0.1-0.6-0.1-0.6-0.1"/>
<path class="st4" d="M104.8,116.4c0.6,1.5,1.2,1.1,0.6,1.5"/>
<path class="st4" d="M111.3,109.5c0.8,1.4,1.4,0.9,0.8,1.4"/>
<path class="st4" d="M100.3,114.5c-1,0.2,0.1,1.1-1,0.2"/>
<path class="st4" d="M104.4,113c0,0,0.8-0.3,1.2-0.6c0.4-0.3,0.4-0.3,0.4-0.3"/>
<path class="st3" d="M137,120.3c0,0,2.3-0.4,2.1,0.8"/>
<path class="st4" d="M121.1,109.5c0.9-1.3,0.9,0.8,0.9-1.3"/>
<path class="st4" d="M115.4,108.9c1.2-1.4-0.6-1.3,1.2-1.4s1.8-0.2,1.8-0.2"/>
<path class="st4" d="M119.8,104.6c1.4-0.9,1.3,0.1,1.4-0.9"/>
<path class="st4" d="M117.7,105.6c1,0.2,0.2-1.1,1,0.2"/>
<path class="st4" d="M116.1,113.4c0,0,1.2-0.2,1.7-0.6c0.6-0.4,0.6-0.4,0.6-0.4"/>
<path class="st4" d="M100.1,111.5c0,0-1.1-0.5-1.8-0.5c-0.7,0-0.7,0-0.7,0"/>
<path class="st4" d="M211.7,114.8c1.2,1-0.8,0.8,1.2,1"/>
<path class="st4" d="M212.9,104.8c1.3,1.3,1.3-0.5,1.3,1.3s0,1.8,0,1.8"/>
<path class="st4" d="M208.4,113.2c-0.7,1.5-1.2,0.6-0.7,1.5"/>
<path class="st4" d="M216,111.8c-0.3,1,1.1,0.3-0.3,1"/>
<path class="st4" d="M205.2,108.2c0,0,0.1,1.2,0.4,1.8s0.3,0.6,0.3,0.6"/>
<path class="st4" d="M209.8,120.3c0,0,0.6-1,0.7-1.7c0.1-0.7,0.1-0.7,0.1-0.7"/>
<path class="st4" d="M204.6,159c-1.1,1.1-0.7-0.9-1.1,1.1"/>
<path class="st4" d="M215.9,155.1c-1.5,1.2,0.4,1.4-1.5,1.2s-1.8-0.2-1.8-0.2"/>
<path class="st4" d="M211,161.1c-1.6,0.7-1.3-0.3-1.6,0.7"/>
<path class="st4" d="M213.2,160.6c-1-0.4-0.4,1-1-0.4"/>
<path class="st4" d="M209.9,158.4c0,0-1.2,0-1.8,0.2c-0.6,0.3-0.6,0.3-0.6,0.3"/>
<path class="st4" d="M213.8,165.8c0,0,1,0.7,1.6,0.8s0.7,0.1,0.7,0.1"/>
<path class="st4" d="M247.5,126.6c-0.6-1.4,1.1-0.4-0.6-1.4"/>
<path class="st4" d="M244,131.2c-0.6-1.8-1.4-0.1-0.6-1.8s0.8-1.6,0.8-1.6"/>
<path class="st4" d="M242.6,125.2c-0.1-1.7,0.8-1.1-0.1-1.7"/>
<path class="st4" d="M242.4,127.5c0.7-0.8-0.8-0.8,0.7-0.8"/>
<path class="st4" d="M248.2,133c0,0,0.4-1.1,0.4-1.8c0-0.7,0-0.7,0-0.7"/>
<path class="st4" d="M238.1,126.2c0,0-1,0.7-1.3,1.2c-0.4,0.6-0.4,0.6-0.4,0.6"/>
<path class="st4" d="M208.3,165.9c-0.3,1,1.1,0.3-0.3,1"/>
<path class="st4" d="M202.1,162.3c1.6-0.3,1.4-1,1.6-0.3"/>
<path class="st4" d="M205.7,164.9c0.6,1.5,1.2,1.1,0.6,1.5"/>
<path class="st4" d="M207.1,156.2c0,0,0-0.8-0.2-1.3c-0.2-0.5-0.2-0.5-0.2-0.5"/>
<path class="st4" d="M221.5,115c-0.7-0.7-0.8,0.8-0.7-0.7"/>
<path class="st4" d="M217.2,116.2c-0.6,1.5,0.2,1.7-0.6,1.5"/>
<path class="st4" d="M212.5,108.9c-1.6-0.2-1.6,0.5-1.6-0.2"/>
<path class="st4" d="M219.1,120.8c0,0,0.7,0.4,1.2,0.5c0.5,0.1,0.5,0.1,0.5,0.1"/>
<path class="st4" d="M205.2,118.9c1.7-0.7,0.1-1.4,1.7-0.7c1.7,0.7,1.7,0.7,1.7,0.7"/>
<path class="st4" d="M208.9,107c0,0,0.6,0.3,0.5,1.1c-0.2,0.8-0.2,0.8-0.2,0.8"/>
<path class="st4" d="M205.5,113.2c0,0,1.5-0.4,1.3-1.2"/>
<path class="st4" d="M215,111.4c0,0-1-0.9,0-1.3"/>
<path class="st4" d="M222,106.9c0,0,0.3,0.7-0.4,1.2s-0.7,0.5-0.7,0.5"/>
<path class="st4" d="M214.2,115.7c0,0,0.6-1,0.7-1.7s0.1-0.7,0.1-0.7"/>
<path class="st4" d="M239.1,129.4c0,0,0.6,0.3,0.5,1.1s-0.2,0.8-0.2,0.8"/>
<path class="st4" d="M241.1,119.7c0,0,1.5-0.4,1.3-1.2"/>
<path class="st4" d="M239.6,127.7c0,0-1-0.9,0-1.3"/>
<path class="st4" d="M272.2,157.6c0,0,0.3,0.7-0.4,1.2c-0.7,0.5-0.7,0.5-0.7,0.5"/>
<path class="st4" d="M244.4,138.1c0,0,0.6-1,0.7-1.7s0.1-0.7,0.1-0.7"/>
<path class="st4" d="M261.6,158.6c0,0,0.5-0.5,1.2-0.1c0.7,0.4,0.7,0.4,0.7,0.4"/>
<path class="st4" d="M267.1,150.7c0,0,0-1.6-0.8-1.6"/>
<path class="st4" d="M267.6,153.9c0,0-1.2,0.7-1.3-0.4"/>
<path class="st4" d="M267.5,144.1c0,0,0.7-0.1,1,0.7c0.3,0.8,0.3,0.8,0.3,0.8"/>
<path class="st4" d="M271.5,155.8c0,0-0.8-0.8-1.5-1.1c-0.6-0.2-0.6-0.2-0.6-0.2"/>
<path class="st4" d="M271.2,164.7c-0.6-1.8-1.4-0.1-0.6-1.8c0.8-1.6,0.8-1.6,0.8-1.6"/>
<path class="st4" d="M261.5,147.9c0,0,0.6,0.3,0.5,1.1c-0.2,0.8-0.2,0.8-0.2,0.8"/>
<path class="st4" d="M258.1,154.1c0,0,1.5-0.4,1.3-1.2"/>
<path class="st4" d="M259,149.3c0,0,1.5-0.4,1.3-1.2"/>
<path class="st4" d="M275.2,151.2c0,0,1.5-0.4,1.3-1.2"/>
<path class="st4" d="M133.7,139c0,0,1.5-0.4,1.3-1.2"/>
<path class="st4" d="M176.7,130.2c0,0,1.5,0.2,1.3,0.6"/>
<path class="st4" d="M273.8,142c-0.7,1.5-1.2,0.6-0.7,1.5"/>
<path class="st4" d="M116.7,118.3c0,0,0-0.9-0.3-1.2c-0.2-0.4-0.2-0.4-0.2-0.4"/>
<path class="st4" d="M101.8,105.9c0,0-0.2-0.8-0.5-1.2c-0.3-0.4-0.3-0.4-0.3-0.4"/>
<path class="st4" d="M131.9,142.5c1.3,1.3,1.3-0.5,1.3,1.3c0,1.8,0,1.8,0,1.8"/>
<path class="st4" d="M129.2,139.8c0,0,0.8,1.7,1.3,1.3c0.4-0.4,0.4-0.4,0.4-0.4"/>
<path class="st4" d="M98.9,134.6c0.6,1.5,1.2,1.1,0.6,1.5"/>
<path class="st4" d="M122.9,142.3c-1.5,1.1,0.3,1.4-1.5,1.1c-1.8-0.3-1.8-0.3-1.8-0.3"/>
<path class="st4" d="M121.9,128.8c0,0,0.8,1.7,1.3,1.3c0.4-0.4,0.4-0.4,0.4-0.4"/>
<path class="st4" d="M238.9,122.7c0.6,1.5,1.2,1.1,0.6,1.5"/>
<path class="st4" d="M122,140.5c1.5-0.5,1.2-1.2,1.5-0.5"/>
<path class="st4" d="M123.1,148.1c0,0-1-0.9,0-1.3"/>
<path class="st3" d="M241.8,122.6c0,0,1.9-0.9,2.7-0.3"/>
<path class="st3" d="M144.7,133.6c0,0,1.3-1.7,1.4-2.3"/>
<path class="st3" d="M123.7,161.3c0,0,5.3-4.3,7.3-3.9"/>
<path class="st3" d="M197.8,103.9c0,0,1,0.9,0.9,1.8"/>
<path class="st3" d="M195.2,109c0,0,2.2-0.1,3.5-0.7"/>
<path class="st3" d="M194.5,109.8c0,0,7.1-0.5,7.5-1.5"/>
<path class="st4" d="M198.3,168.6c-0.6-1.8-1.4-0.1-0.6-1.8c0.8-1.6,0.8-1.6,0.8-1.6"/>
<path class="st4" d="M193.9,165.1c0,0-1-0.9,0-1.3"/>
<path class="st4" d="M193.3,160.1c0.6,1.5,1.2,1.1,0.6,1.5"/>
<path class="st4" d="M260.3,146.5c1.7-0.8,0-1.4,1.7-0.8c1.7,0.6,1.7,0.6,1.7,0.6"/>
<path class="st4" d="M263.3,141.8c0,0,0.8-1.1,1.3-0.1"/>
<path class="st4" d="M268.2,140.6c-1.4,0.8-1,1.4-1.4,0.8"/>
<path class="st4" d="M133.2,135.5c-1.7,0.8,0,1.4-1.7,0.8c-1.7-0.7-1.7-0.7-1.7-0.7"/>
<path class="st4" d="M129.4,144.6c0,0-0.8,1.1-1.3,0.1"/>
<path class="st4" d="M125.2,141.3c1.4-0.7,1-1.3,1.4-0.7"/>
<path class="st4" d="M202,166c-1,0.3,0.4,1-1,0.3"/>
<path class="st4" d="M198,160.4c0,0-1.1,0.4-1.6,0.9s-0.5,0.5-0.5,0.5"/>
<path class="st4" d="M202.8,158.6c0,0-1-0.9,0-1.3"/>
<path class="st4" d="M198.6,155.6c-1,0.4,0.3,1.1-1,0.4"/>
<path class="st4" d="M192.9,158.9c0,0,1.5-0.4,1.3-1.2"/>
<path class="st4" d="M194.1,151.3c0.5,1.5,1.2,1.2,0.5,1.5"/>
<path class="st4" d="M247.6,122.3c-0.9-0.4-0.5,1-0.9-0.4"/>
<path class="st4" d="M241.2,120.6c0,0,1.4,0.7,1.8,0.1"/>
<path class="st4" d="M247.4,116.1c-0.7,1.5,0.1,1.7-0.7,1.5"/>
<path class="st4" d="M251,123.7c1.9,0,0.6-1.3,1.9,0c1.3,1.3,1.3,1.3,1.3,1.3"/>
<path class="st3" d="M26.6,150.3c0,0,5.4-4.2,8.2-3.7"/>
</svg>
