<?xml version="1.0" encoding="utf-8"?>
<!-- Generator: Adobe Illustrator 21.0.0, SVG Export Plug-In . SVG Version: 6.00 Build 0)  -->
<svg version="1.1" id="Layer_1" xmlns="http://www.w3.org/2000/svg" xmlns:xlink="http://www.w3.org/1999/xlink" x="0px" y="0px"
	 viewBox="0 0 299.2 254.9" style="enable-background:new 0 0 299.2 254.9;" xml:space="preserve">
<style type="text/css">
	.st0{fill:#F7BABA;stroke:#000000;stroke-miterlimit:10;}
</style>
<title>fetishes</title>
<path class="st0" d="M43.9,11.6c0,0-14.2,10.3,1.8,21.9c0,0-7.5,4.5-4.7,24.4c0,0-8.8,18.9-0.5,29.3c0,0-5.4,8.9-0.8,23.5
	c0,0-7,14,2.8,17.2c6.1,3.3,13.5,2.7,19-1.5c0,0,15.7-25.2-2.6-32.1c0,0,12.6-13.4,5.4-31c0,0,12.1,2.9,19.3-0.9
	c0,0,11.8,10.7,21.1-0.4c0,0,11-6.7-1.3-15.5s-25.9-0.5-25.9-0.5s-10.8-6.9-13.2-3.5l-2.5,3.4c0,0,6.6-19.4,0.5-18.9
	c0,0,21.6,5.4,25.8-0.8c0,0,13.2,10.6,19,3c0,0,13-10.8,4.1-19.8c0,0-24.7-11-24.6-1.2c0,0-18.4-16.1-26.7-1.4
	C59.9,6.7,47.4-5.2,43.9,11.6z"/>
<path class="st0" d="M111.3,1.1c0,0-10.8,9.4,0.8,22c0,0-11.2,14.8-1.4,30.9c0,0-13.6,9.1-2.4,32.7c0,0-13.4,26.4,2.5,38.1
	c0,0,15.9,11.1,23.5-0.8c0,0,5.3,8.9,18.1,4.5c0,0,10.1,6.1,18,0.3s-0.6-16-0.6-16s-14.7-12.3-23-3.6c0,0-10.3-11.3-17.4-2
	c0,0-5.1-4.4-8.2-3s18-16.2,5.2-27.4c0,0,10.9-6.2,3.8-14.4c0,0,12.9,14.4,19.9,3.2c0,0,9.5,13.3,21.6,2.5c0,0,13.6-5.7,4.4-19.6
	c0,0-15-2.5-25.9,3.9c0,0-8.4-10.5-19.4-6.9c0,0,8.7-17.1,0.6-18.2c0,0,21.4,8.3,21.6-1.4c0,0,12.7,9.3,19.9,2.5
	c0,0,12.8-6.3,7.5-17.1c0,0-18.4-13-26.1-1.7c0,0-18.9-9.7-28.6-2.2C125.8,7.7,124.3-1.3,111.3,1.1z"/>
<path class="st0" d="M167.6,7.5c0,0-16.2,6.7,0,18.8c0,0,10.4,10.7,16.8,0c0,0,8.4,6.7,16.2,2c0,0-14.9,13.4,0,22.1
	c0,0-7.8,7.6,0,15.5c0,0-7.1,8.6,0,16.7c0,0-6.5,11.4,0,20.8c0,0-11,11.8,0,21.3c0,0,7.1,10.9,12.3,5.5s5.9-24.8,0-28.8
	c0,0,14.1-14.7,4.1-26.1c0,0,8.2-27.5-4.1-26.2c0,0,12.3-15.4,0-18.1c0,0,21.4,4.7,25.2-2c0,0,7.1,6.7,14.2,1.4
	c0,0,13.6-18.1-3.9-22.8c0,0-17.5-7.4-22,3.3c0,0-3.9-9-13.6-5.8s-17.5-2.2-16.2,7.1c0,0-18.8-7.4-15.5,3.3
	C181.2,15.6,182.3,5.5,167.6,7.5z"/>
<path class="st0" d="M258.3,9.5c0,0-11,9.1,0,21.4c0,0-16.9,6.5,0,20.7c0,0-13.9,9.3,0,18.6c0,0-17.6,11.2,0,23.5
	c0,0-20.5,17.2,0,25.1c0,0-11,8.6,0,12.5s14.7,8.5,18.3,0s2.2-16.9-5.8-21.4c0,0,11-18.1,0-24.6c0,0,13.2-9.5,3.7-19.3
	c0,0,11.7-18.9,0-20.2c0,0,5.9-15.5-2.2-20.1c0,0,20-12.9,7.4-16.2S258.3,9.5,258.3,9.5z"/>
<path class="st0" d="M60.8,129.2c-3.9-2.1-17.6-8-21.6,8c-0.1,0.2-0.2,0.3-0.4,0.4c-2.2,0.1-13.2,1.3-9.2,13.5
	c0.1,0.2-0.1,0.5-0.3,0.6c0,0,0,0-0.1,0c-2.9,0.5-15.6,3.3-4.5,15c0,0,0.1,0.1,0.1,0.2c0.4,1.4,5.7,17.8,19.4,10.1
	c0.2-0.1,0.5-0.1,0.7,0.1c0,0,0,0.1,0.1,0.1c0.5,2.2,3,9.4,11.3,4.8c0.2-0.1,0.5-0.1,0.6,0.1c0.1,0.1,0.1,0.3,0,0.4
	c-1.4,3.1-3.4,10.4,7,13c0.2,0,0.4,0.2,0.4,0.5c-0.2,2.1-0.3,12.7,14.1,11.8c0,0-22.9-4.3-18.7,9c0.1,0.2-0.1,0.5-0.3,0.6
	c-0.1,0-0.3,0-0.4,0c-4.4-2.3-20.1-9.3-18.2,8.9c0,0.2-0.1,0.4-0.4,0.5c-3.7,1-32.7,9.2-14,22.9c0.1,0.1,0.2,0.1,0.3,0.1
	c2.4,0.1,32.1,1,28.9-11.7c-0.1-0.3,0.1-0.5,0.4-0.6c0.1,0,0.2,0,0.2,0c4.4,1.2,20.3,2.8,17.4-9c-0.1-0.3,4.3,2.8,4.6,2.8
	c3.6,0,21.3-0.4,16-11.2c-0.1-0.2,0-0.4,0.1-0.5c1.7-1.5,10.9-10.1-0.4-17.6c-0.1-0.1-0.2-0.2-0.2-0.4c0.1-2.3,0.8-20.8-11.7-17.8
	c-0.2,0.1-0.5-0.1-0.6-0.3c0,0,0,0,0-0.1c-0.3-3.1-2.7-18.8-15.5-17.3c-13.3,1.5-4.9-8.7-19.3-5.6c-0.2,0.1-0.5,0-0.6-0.3
	c-0.1-0.2,0-0.4,0.2-0.5c2.1-1.4,4.5-3.4,3.6-5.1c-0.1-0.2,0-0.5,0.3-0.6c0.1,0,0.2,0,0.3,0c3.1,0.9,9.1,1.8,8.8-4.9
	c0-0.3,0.2-0.5,0.5-0.5c0,0,0.1,0,0.1,0c2.4,0.3,11.5,1.1,11.3-5.9c0-0.3,0.2-0.5,0.5-0.5c0.1,0,0.1,0,0.2,0
	c2.9,1.1,13.7,4.7,14.4-5.4c0-0.1,0.1-0.3,0.2-0.3c1.6-1.1,12.8-8.9,4.4-13.5c-0.1-0.1-0.2-0.2-0.2-0.3c-0.2-1.1-1.8-6.2-9.2-3.1
	c-0.2,0.1-0.5,0-0.6-0.2c0,0,0,0,0,0c-0.6-1.6-2.9-6.5-10-0.9c-0.1,0-0.1,0.1-0.2,0.1c-1,0.2-8.7,2.2-5.6,6.7
	c0.1,0.2,0.1,0.5-0.1,0.6c-0.1,0.1-0.3,0.1-0.4,0.1c-1.6-0.4-3.8-0.4-3.1,2.7c0.1,0.3-0.1,0.5-0.4,0.6
	C61,129.2,60.9,129.2,60.8,129.2z"/>
<path class="st0" d="M99.9,120.2c0,0-17.3,11.3,0,26.4c0,0-16.3,5.2-3.9,24.7c0,0-12.2,7.6-0.4,17.4c0,0-9.8,5.4,4.2,18.3
	c0,0-19.9,9.7-9.4,20.5c0,0-8.5,17.4,3.2,18.4c0,0,6.2,9.1,12.7,5s5.4-18,0-21.3c0,0,9.6-7.2,4.5-13.5c0,0,11.8-20.7,3.7-23.2
	c0,0,14.8,15.2,22.8,0c0,0,1.3,5.3,6.3,2c0,0-9.7,12.4,0,18.3c0,0-8.5,7.6,0,14c0,0-8,8.9,0,14.4c0,0-2.1,8.3,4.6,9.5
	c0,0,12.7,2.3,14.4-5c0,0,8.9-17.1,0-19.6c0,0,5.5-23.2-6.8-18.2c0,0,13.5-11.2,5.1-13.2c0,0,6.8-12.1,0-14.7
	c0,0,17.3-13.9-5.9-18.6c0,0,12.7-10.6,0.9-17.3c0,0,10.2-18.2,0-19.4c0,0,0.4-11.7-8-6.3c0,0-9.7,2.9-5.1,10.1
	c0,0-7.6,7.6-0.4,14.8c0,0-5.9,12.7,0.4,16.9c0,0-6.8,8.9-0.4,12.3c0,0-5.1,3-0.4,5.9c0,0-8-7.2-11,0c0,0-13.9-9.3-14.8-0.9
	c0,0-4.2-8-8.9-6.4c0,0,6.8-4.2,3-10.1c0,0,11-10.6,3.8-15.6s-1.3-4.2-1.3-4.2s6.4-11.4,0.9-14.4c0,0,8-5.4,2.1-8.4
	S98.8,112.5,99.9,120.2z"/>
<path class="st0" d="M132.2,125.5"/>
<path class="st0" d="M168.5,123.7c0,0-10.8,9.5,0.8,22c0,0-11.2,14.8-1.4,30.9c0,0-13.6,9.1-2.4,32.7c0,0-13.4,26.4,2.5,38.1
	c0,0,15.9,11.1,23.5-0.8c0,0,5.3,8.9,18.1,4.5c0,0,10.1,6.1,18,0.3c7.9-5.8-0.6-16-0.6-16s-14.7-12.3-23-3.6c0,0-10.3-11.3-17.4-2
	c0,0-5.1-4.4-8.2-3s18-16.2,5.2-27.4c0,0,10.9-6.2,3.8-14.4c0,0,12.9,14.4,19.9,3.2c0,0,9.5,13.3,21.6,2.5c0,0,13.6-5.7,4.4-19.6
	c0,0-15-2.5-25.9,3.9c0,0-8.4-10.5-19.4-6.9c0,0,8.7-17.1,0.6-18.2c0,0,21.4,8.3,21.6-1.4c0,0,12.7,9.3,19.9,2.5
	c0,0,12.8-6.3,7.5-17.1c0,0-18.4-13-26.1-1.7c0,0-18.9-9.7-28.6-2.2C183,130.4,181.4,121.3,168.5,123.7z"/>
<path class="st0" d="M260.1,133.7c-3.9-2.1-17.6-8-21.6,8c-0.1,0.2-0.2,0.3-0.4,0.4c-2.2,0.1-13.2,1.3-9.2,13.5
	c0.1,0.2-0.1,0.5-0.3,0.6c0,0,0,0-0.1,0c-2.9,0.5-15.6,3.3-4.5,15c0,0,0.1,0.1,0.1,0.2c0.4,1.4,5.7,17.8,19.4,10.1
	c0.2-0.1,0.5-0.1,0.7,0.1c0,0,0,0.1,0.1,0.1c0.5,2.2,3,9.4,11.3,4.8c0.2-0.1,0.5-0.1,0.6,0.1c0.1,0.1,0.1,0.3,0,0.4
	c-1.4,3.1-3.4,10.4,7,13c0.2,0,0.4,0.2,0.4,0.5c-0.2,2.1-0.3,12.7,14.1,11.8c0,0-22.9-4.3-18.7,9c0.1,0.2-0.1,0.5-0.3,0.6
	c-0.1,0-0.3,0-0.4,0c-4.3-2.3-20.1-9.3-18.2,8.9c0,0.2-0.1,0.4-0.4,0.5c-3.7,1-32.7,9.2-14,22.9c0.1,0.1,0.2,0.1,0.3,0.1
	c2.4,0.1,32.1,1,28.9-11.7c-0.1-0.3,0.1-0.5,0.4-0.6c0.1,0,0.2,0,0.2,0c4.4,1.2,20.3,2.8,17.4-9c-0.1-0.3,4.3,2.8,4.6,2.8
	c3.6,0,21.3-0.4,16-11.2c-0.1-0.2,0-0.4,0.1-0.5c1.7-1.5,10.9-10.1-0.4-17.6c-0.1-0.1-0.2-0.2-0.2-0.4c0.1-2.3,0.8-20.8-11.7-17.8
	c-0.2,0.1-0.5-0.1-0.6-0.3c0,0,0,0,0-0.1c-0.3-3.1-2.7-18.8-15.5-17.3c-13.3,1.5-4.9-8.7-19.3-5.6c-0.2,0.1-0.5,0-0.6-0.3
	c-0.1-0.2,0-0.4,0.2-0.5c2.1-1.4,4.5-3.4,3.6-5.1c-0.1-0.2,0-0.5,0.3-0.6c0.1,0,0.2,0,0.3,0c3.1,0.9,9.1,1.8,8.8-4.9
	c0-0.3,0.2-0.5,0.5-0.5c0,0,0.1,0,0.1,0c2.4,0.3,11.5,1.1,11.3-5.9c0-0.3,0.2-0.5,0.5-0.5c0.1,0,0.1,0,0.2,0
	c2.9,1.1,13.7,4.7,14.4-5.4c0-0.1,0.1-0.3,0.2-0.3c1.6-1.1,12.8-8.9,4.4-13.5c-0.1-0.1-0.2-0.2-0.2-0.3c-0.2-1.1-1.8-6.2-9.2-3.1
	c-0.2,0.1-0.5,0-0.6-0.2c0,0,0,0,0,0c-0.6-1.6-2.9-6.5-10-0.9c-0.1,0-0.1,0.1-0.2,0.1c-1,0.2-8.7,2.2-5.6,6.7
	c0.1,0.2,0.1,0.5-0.1,0.6c-0.1,0.1-0.3,0.1-0.4,0.1c-1.6-0.4-3.8-0.4-3.1,2.7c0.1,0.3-0.1,0.5-0.4,0.6
	C260.3,133.8,260.2,133.8,260.1,133.7z"/>
<path class="st0" d="M223,232"/>
</svg>
