<?xml version="1.0" encoding="utf-8"?>
<!-- Generator: Adobe Illustrator 21.0.0, SVG Export Plug-In . SVG Version: 6.00 Build 0)  -->
<svg version="1.1" id="Layer_1" xmlns="http://www.w3.org/2000/svg" xmlns:xlink="http://www.w3.org/1999/xlink" x="0px" y="0px"
	 viewBox="0 0 299.2 254.9" style="enable-background:new 0 0 299.2 254.9;" xml:space="preserve">
<style type="text/css">
	.st0{fill:#F7BABA;stroke:#000000;stroke-miterlimit:10;}
</style>
<title>fetishes</title>
<path class="st0" d="M18.1,104.6c0,0-6.2,4.5,0.8,9.6c0,0-3.3,2-2.1,10.7c0,0-3.9,8.3-0.2,12.8c0,0-2.4,3.9-0.4,10.3
	c0,0-3.1,6.1,1.2,7.5c2.7,1.4,5.9,1.2,8.3-0.7c0,0,6.9-11-1.1-14.1c0,0,5.5-5.9,2.4-13.6c0,0,5.3,1.3,8.5-0.4c0,0,5.2,4.7,9.2-0.2
	c0,0,4.8-3-0.6-6.8s-11.4-0.2-11.4-0.2s-4.7-3-5.8-1.5l-1.1,1.5c0,0,2.9-8.5,0.2-8.3c0,0,9.5,2.4,11.3-0.4c0,0,5.8,4.7,8.3,1.3
	c0,0,5.7-4.7,1.8-8.7c0,0-10.8-4.8-10.8-0.5c0,0-8-7.1-11.7-0.6C25.1,102.5,19.6,97.3,18.1,104.6z"/>
<path class="st0" d="M53.6,101c0,0-4.7,4.1,0.3,9.6c0,0-4.9,6.5-0.6,13.6c0,0-6,4-1.1,14.3c0,0-5.9,11.6,1.1,16.7
	c0,0,7,4.9,10.3-0.4c0,0,2.3,3.9,7.9,2c0,0,4.4,2.7,7.9,0.1c3.5-2.5-0.2-7-0.2-7s-6.4-5.4-10.1-1.6c0,0-4.5-5-7.6-0.9
	c0,0-2.2-1.9-3.6-1.3c-1.3,0.6,7.9-7.1,2.3-12c0,0,4.8-2.7,1.7-6.3c0,0,5.7,6.3,8.7,1.4c0,0,4.2,5.8,9.5,1.1c0,0,6-2.5,1.9-8.6
	c0,0-6.6-1.1-11.3,1.7c0,0-3.7-4.6-8.5-3c0,0,3.8-7.5,0.3-8c0,0,9.4,3.6,9.5-0.6c0,0,5.6,4.1,8.7,1.1c0,0,5.6-2.8,3.3-7.5
	c0,0-8.1-5.7-11.4-0.7c0,0-8.3-4.3-12.5-1C60,103.9,59.3,100,53.6,101z"/>
<path class="st0" d="M89.3,102.9c0,0-7.1,2.9,0,8.2c0,0,4.5,4.7,7.4,0c0,0,3.7,2.9,7.1,0.9c0,0-6.5,5.9,0,9.7c0,0-3.4,3.3,0,6.8
	c0,0-3.1,3.8,0,7.3c0,0-2.8,5,0,9.1c0,0-4.8,5.2,0,9.3c0,0,3.1,4.8,5.4,2.4c2.3-2.4,2.6-10.9,0-12.6c0,0,6.2-6.5,1.8-11.5
	c0,0,3.6-12.1-1.8-11.5c0,0,5.4-6.8,0-7.9c0,0,9.4,2.1,11.1-0.9c0,0,3.1,2.9,6.2,0.6c0,0,6-7.9-1.7-10c0,0-7.7-3.2-9.6,1.5
	c0,0-1.7-3.9-6-2.6c-4.3,1.4-7.7-1-7.1,3.1c0,0-8.2-3.2-6.8,1.5C95.3,106.4,95.8,102,89.3,102.9z"/>
<path class="st0" d="M133.1,102.7c0,0-4.8,4,0,9.4c0,0-7.4,2.8,0,9.1c0,0-6.1,4.1,0,8.1c0,0-7.7,4.9,0,10.3c0,0-9,7.6,0,11
	c0,0-4.8,3.8,0,5.5c4.8,1.7,6.4,3.7,8,0c1.6-3.7,1-7.4-2.6-9.4c0,0,4.8-7.9,0-10.8c0,0,5.8-4.2,1.6-8.5c0,0,5.1-8.3,0-8.8
	c0,0,2.6-6.8-1-8.8c0,0,8.8-5.7,3.3-7.1S133.1,102.7,133.1,102.7z"/>
<path class="st0" d="M162.8,104.9c-1.7-0.9-7.7-3.5-9.5,3.5c0,0.1-0.1,0.2-0.2,0.2c-0.9,0-5.8,0.6-4,5.9c0,0.1,0,0.2-0.1,0.3
	c0,0,0,0,0,0c-1.3,0.2-6.8,1.5-2,6.6c0,0,0,0,0,0.1c0.2,0.6,2.5,7.8,8.5,4.4c0.1-0.1,0.2,0,0.3,0.1c0,0,0,0,0,0.1
	c0.2,1,1.3,4.1,5,2.1c0.1-0.1,0.2,0,0.3,0.1c0,0.1,0,0.1,0,0.2c-0.6,1.4-1.5,4.6,3.1,5.7c0.1,0,0.2,0.1,0.2,0.2
	c-0.1,0.9-0.1,5.6,6.2,5.2c0,0-10-1.9-8.2,4c0,0.1,0,0.2-0.1,0.3c-0.1,0-0.1,0-0.2,0c-1.9-1-8.8-4.1-8,3.9c0,0.1-0.1,0.2-0.2,0.2
	c-1.6,0.4-14.3,4.1-6.1,10c0,0,0.1,0,0.1,0c1,0,14.1,0.4,12.7-5.1c0-0.1,0.1-0.2,0.2-0.2c0,0,0.1,0,0.1,0c1.9,0.5,8.9,1.2,7.6-3.9
	c0-0.1,1.9,1.2,2,1.2c1.6,0,9.3-0.2,7-4.9c0-0.1,0-0.2,0-0.2c0.8-0.6,4.8-4.4-0.2-7.7c-0.1,0-0.1-0.1-0.1-0.2c0.1-1,0.4-9.1-5.1-7.8
	c-0.1,0-0.2,0-0.3-0.1c0,0,0,0,0,0c-0.1-1.4-1.2-8.2-6.8-7.6c-5.8,0.7-2.1-3.8-8.5-2.4c-0.1,0-0.2,0-0.3-0.1c0-0.1,0-0.2,0.1-0.2
	c0.9-0.6,2-1.5,1.6-2.3c0-0.1,0-0.2,0.1-0.3c0,0,0.1,0,0.1,0c1.4,0.4,4,0.8,3.9-2.1c0-0.1,0.1-0.2,0.2-0.2c0,0,0,0,0,0
	c1.1,0.1,5.1,0.5,5-2.6c0-0.1,0.1-0.2,0.2-0.2c0,0,0.1,0,0.1,0c1.3,0.5,6,2.1,6.3-2.4c0-0.1,0-0.1,0.1-0.1c0.7-0.5,5.6-3.9,1.9-5.9
	c-0.1,0-0.1-0.1-0.1-0.1c-0.1-0.5-0.8-2.7-4-1.3c-0.1,0-0.2,0-0.3-0.1c0,0,0,0,0,0c-0.2-0.7-1.3-2.9-4.4-0.4c0,0-0.1,0-0.1,0
	c-0.4,0.1-3.8,1-2.5,2.9c0.1,0.1,0,0.2-0.1,0.3c0,0-0.1,0-0.2,0c-0.7-0.2-1.7-0.2-1.3,1.2c0,0.1,0,0.2-0.2,0.3
	C162.9,104.9,162.8,104.9,162.8,104.9z"/>
<path class="st0" d="M188.4,100.6c0,0-7.6,5,0,11.6c0,0-7.2,2.3-1.7,10.8c0,0-5.4,3.4-0.2,7.6c0,0-4.3,2.4,1.9,8c0,0-8.7,4.2-4.1,9
	c0,0-3.7,7.6,1.4,8.1c0,0,2.7,4,5.6,2.2c2.8-1.8,2.4-7.9,0-9.3c0,0,4.2-3.1,2-5.9c0,0,5.2-9.1,1.6-10.2c0,0,6.5,6.7,10,0
	c0,0,0.6,2.3,2.8,0.9c0,0-4.3,5.4,0,8c0,0-3.7,3.3,0,6.1c0,0-3.5,3.9,0,6.3c0,0-0.9,3.6,2,4.1c0,0,5.6,1,6.3-2.2c0,0,3.9-7.5,0-8.6
	c0,0,2.4-10.2-3-8c0,0,5.9-4.9,2.2-5.8c0,0,3-5.3,0-6.4c0,0,7.6-6.1-2.6-8.2c0,0,5.6-4.6,0.4-7.6c0,0,4.5-8,0-8.5
	c0,0,0.2-5.1-3.5-2.8c0,0-4.3,1.3-2.2,4.4c0,0-3.3,3.3-0.2,6.5c0,0-2.6,5.6,0.2,7.4c0,0-3,3.9-0.2,5.4c0,0-2.2,1.3-0.2,2.6
	c0,0-3.5-3.2-4.8,0c0,0-6.1-4.1-6.5-0.4c0,0-1.9-3.5-3.9-2.8c0,0,3-1.9,1.3-4.4c0,0,4.8-4.6,1.7-6.9c-3.1-2.2-0.6-1.9-0.6-1.9
	s2.8-5,0.4-6.3c0,0,3.5-2.4,0.9-3.7C192.8,98.5,187.9,97.2,188.4,100.6z"/>
<path class="st0" d="M32.2,162.3"/>
<path class="st0" d="M225.7,100.9c0,0-4.7,4.1,0.3,9.6c0,0-4.9,6.5-0.6,13.6c0,0-6,4-1.1,14.3c0,0-5.9,11.6,1.1,16.7
	c0,0,7,4.9,10.3-0.4c0,0,2.3,3.9,7.9,2c0,0,4.4,2.7,7.9,0.1c3.5-2.5-0.2-7-0.2-7s-6.4-5.4-10.1-1.6c0,0-4.5-5-7.6-0.9
	c0,0-2.2-1.9-3.6-1.3c-1.3,0.6,7.9-7.1,2.3-12c0,0,4.8-2.7,1.7-6.3c0,0,5.7,6.3,8.7,1.4c0,0,4.2,5.8,9.5,1.1c0,0,6-2.5,1.9-8.6
	c0,0-6.6-1.1-11.3,1.7c0,0-3.7-4.6-8.5-3c0,0,3.8-7.5,0.3-8c0,0,9.4,3.6,9.5-0.6c0,0,5.6,4.1,8.7,1.1c0,0,5.6-2.8,3.3-7.5
	c0,0-8.1-5.7-11.4-0.7c0,0-8.3-4.3-12.5-1C232.1,103.8,231.4,99.9,225.7,100.9z"/>
<path class="st0" d="M273.7,105.9c-1.7-0.9-7.7-3.5-9.5,3.5c0,0.1-0.1,0.2-0.2,0.2c-0.9,0-5.8,0.6-4,5.9c0,0.1,0,0.2-0.1,0.3
	c0,0,0,0,0,0c-1.3,0.2-6.8,1.5-2,6.6c0,0,0,0,0,0.1c0.2,0.6,2.5,7.8,8.5,4.4c0.1-0.1,0.2,0,0.3,0.1c0,0,0,0,0,0.1
	c0.2,1,1.3,4.1,5,2.1c0.1-0.1,0.2,0,0.3,0.1c0,0.1,0,0.1,0,0.2c-0.6,1.4-1.5,4.6,3.1,5.7c0.1,0,0.2,0.1,0.2,0.2
	c-0.1,0.9-0.1,5.6,6.2,5.2c0,0-10-1.9-8.2,4c0,0.1,0,0.2-0.1,0.3c-0.1,0-0.1,0-0.2,0c-1.9-1-8.8-4.1-8,3.9c0,0.1-0.1,0.2-0.2,0.2
	c-1.6,0.4-14.3,4.1-6.1,10c0,0,0.1,0,0.1,0c1,0,14.1,0.4,12.7-5.1c0-0.1,0.1-0.2,0.2-0.2c0,0,0.1,0,0.1,0c1.9,0.5,8.9,1.2,7.6-3.9
	c0-0.1,1.9,1.2,2,1.2c1.6,0,9.3-0.2,7-4.9c0-0.1,0-0.2,0-0.2c0.8-0.6,4.8-4.4-0.2-7.7c-0.1,0-0.1-0.1-0.1-0.2c0.1-1,0.4-9.1-5.1-7.8
	c-0.1,0-0.2,0-0.3-0.1c0,0,0,0,0,0c-0.1-1.4-1.2-8.2-6.8-7.6c-5.8,0.7-2.1-3.8-8.5-2.4c-0.1,0-0.2,0-0.3-0.1c0-0.1,0-0.2,0.1-0.2
	c0.9-0.6,2-1.5,1.6-2.3c0-0.1,0-0.2,0.1-0.3c0,0,0.1,0,0.1,0c1.4,0.4,4,0.8,3.9-2.1c0-0.1,0.1-0.2,0.2-0.2c0,0,0,0,0,0
	c1.1,0.1,5.1,0.5,5-2.6c0-0.1,0.1-0.2,0.2-0.2c0,0,0.1,0,0.1,0c1.3,0.5,6,2.1,6.3-2.4c0-0.1,0-0.1,0.1-0.1c0.7-0.5,5.6-3.9,1.9-5.9
	c-0.1,0-0.1-0.1-0.1-0.1c-0.1-0.5-0.8-2.7-4-1.3c-0.1,0-0.2,0-0.3-0.1c0,0,0,0,0,0c-0.2-0.7-1.3-2.9-4.4-0.4c0,0-0.1,0-0.1,0
	c-0.4,0.1-3.8,1-2.5,2.9c0.1,0.1,0,0.2-0.1,0.3c0,0-0.1,0-0.2,0c-0.7-0.2-1.7-0.2-1.3,1.2c0,0.1,0,0.2-0.2,0.3
	C273.7,105.9,273.7,105.9,273.7,105.9z"/>
<path class="st0" d="M143.6,120.9"/>
</svg>
