<svg xmlns="http://www.w3.org/2000/svg" viewBox="0 0 841.89 598.16">
  <title>nippell</title>
  <rect width="841.89" height="595.28" fill="#f4c3cf"/>
  <circle cx="136.98" cy="428.18" r="30.56" fill="#eab8b5"/>
  <circle cx="137.41" cy="428.18" r="8.88" fill="#dd918e"/>
  <g>
    <ellipse cx="747.16" cy="451.63" rx="31.11" ry="30.18" fill="#e5aaa3"/>
    <ellipse cx="747.6" cy="451.63" rx="9.04" ry="8.77" fill="#e59089"/>
  </g>
  <g>
    <circle cx="298.8" cy="297.64" r="27.8" fill="#e5aaa3"/>
    <circle cx="299.18" cy="297.64" r="8.08" fill="#e59089"/>
  </g>
  <circle cx="428.28" cy="489.15" r="29.96" fill="#ce9f9f"/>
  <circle cx="430.05" cy="489.15" r="11.59" fill="#e59089"/>
  <circle cx="611.46" cy="217.53" r="31.59" fill="#e5aaa3"/>
  <circle cx="613.33" cy="217.53" r="12.22" fill="#dd918e"/>
  <circle cx="167.54" cy="114.73" r="37.29" fill="#eab8b5"/>
  <ellipse cx="167.54" cy="114.73" rx="18.59" ry="19.29" fill="#dd918e"/>
  <ellipse cx="36.9" cy="277.05" rx="29.34" ry="28.67" fill="#e5aaa3"/>
  <ellipse cx="38.63" cy="277.05" rx="11.35" ry="11.09" fill="#e59089"/>
  <g>
    <ellipse cx="397.89" cy="36.99" rx="31.11" ry="30.18" fill="#e5aaa3"/>
    <ellipse cx="398.32" cy="36.99" rx="9.04" ry="8.77" fill="#e59089"/>
  </g>
  <ellipse cx="800.3" cy="178.66" rx="26.8" ry="26.64" fill="#e5aaa3"/>
  <ellipse cx="798.4" cy="178.66" rx="10.06" ry="9.07" fill="#f39a94"/>
  <circle cx="504.69" cy="361.71" r="21.56" fill="#eab8b5"/>
  <circle cx="504.99" cy="361.71" r="6.27" fill="#dd918e"/>
  <circle cx="764.88" cy="54.28" r="17.29" fill="#eab8b5"/>
  <ellipse cx="764.88" cy="54.28" rx="8.62" ry="8.94" fill="#dd918e"/>
  <circle cx="36.9" cy="36.99" r="25.29" fill="#ce9f9f"/>
  <circle cx="38.39" cy="36.99" r="9.78" fill="#e59089"/>
  <circle cx="643.05" cy="554.49" r="32.78" fill="#eab8b5"/>
  <circle cx="643.5" cy="554.49" r="9.53" fill="#dd918e"/>
  <ellipse cx="252.17" cy="554.49" rx="44.69" ry="43.67" fill="#e5aaa3"/>
  <ellipse cx="254.81" cy="554.49" rx="17.29" ry="16.9" fill="#e59089"/>
  <circle cx="734.7" cy="308.21" r="18.65" fill="#eab8b5"/>
  <ellipse cx="734.7" cy="308.21" rx="9.29" ry="9.64" fill="#dd918e"/>
  <circle cx="439.03" cy="185.94" r="24.46" fill="#ce9f9f"/>
  <circle cx="440.47" cy="185.94" r="9.46" fill="#e59089"/>
  <ellipse cx="48.18" cy="554.49" rx="16.66" ry="16.16" fill="#e5aaa3"/>
  <ellipse cx="47" cy="554.49" rx="6.26" ry="5.5" fill="#f39a94"/>
  <ellipse cx="542.91" cy="54.28" rx="16.66" ry="16.16" fill="#e5aaa3"/>
  <ellipse cx="541.73" cy="54.28" rx="6.26" ry="5.5" fill="#f39a94"/>
</svg>
