<svg xmlns="http://www.w3.org/2000/svg" viewBox="0 0 873 648.66">
  <title>nippell</title>
  <rect y="23.38" width="841.89" height="595.28" fill="#f4c3cf"/>
  <circle cx="92.96" cy="523.36" r="37.29" fill="#eab8b5"/>
  <circle cx="93.47" cy="523.36" r="10.84" fill="#dd918e"/>
  <g>
    <ellipse cx="747.16" cy="475.01" rx="31.11" ry="30.18" fill="#e5aaa3"/>
    <ellipse cx="747.6" cy="475.01" rx="9.04" ry="8.77" fill="#e59089"/>
  </g>
  <g>
    <circle cx="298.8" cy="321.02" r="27.8" fill="#e5aaa3"/>
    <circle cx="299.18" cy="321.02" r="8.08" fill="#e59089"/>
  </g>
  <circle cx="420.94" cy="505.19" r="37.29" fill="#ce9f9f"/>
  <circle cx="423.15" cy="505.19" r="14.43" fill="#e59089"/>
  <circle cx="628.96" cy="163.18" r="31.59" fill="#e5aaa3"/>
  <circle cx="630.83" cy="163.18" r="12.22" fill="#dd918e"/>
  <circle cx="167.54" cy="138.11" r="37.29" fill="#eab8b5"/>
  <ellipse cx="167.54" cy="138.11" rx="18.59" ry="19.29" fill="#dd918e"/>
  <ellipse cx="36.9" cy="300.42" rx="29.34" ry="28.67" fill="#e5aaa3"/>
  <ellipse cx="38.63" cy="300.42" rx="11.35" ry="11.09" fill="#e59089"/>
  <g>
    <ellipse cx="437.58" cy="30.18" rx="31.11" ry="30.18" fill="#e5aaa3"/>
    <ellipse cx="438.01" cy="30.18" rx="9.04" ry="8.77" fill="#e59089"/>
  </g>
  <ellipse cx="841.89" cy="241.57" rx="31.11" ry="30.18" fill="#e5aaa3"/>
  <ellipse cx="839.68" cy="241.57" rx="11.68" ry="10.27" fill="#f39a94"/>
  <circle cx="504.69" cy="385.09" r="21.56" fill="#eab8b5"/>
  <circle cx="504.99" cy="385.09" r="6.27" fill="#dd918e"/>
  <circle cx="764.88" cy="77.65" r="17.29" fill="#eab8b5"/>
  <ellipse cx="764.88" cy="77.65" rx="8.62" ry="8.94" fill="#dd918e"/>
  <circle cx="36.9" cy="60.37" r="25.29" fill="#ce9f9f"/>
  <circle cx="38.39" cy="60.37" r="9.78" fill="#e59089"/>
  <circle cx="660.55" cy="614.52" r="32.78" fill="#eab8b5"/>
  <circle cx="661" cy="614.52" r="9.53" fill="#dd918e"/>
  <ellipse cx="249.52" cy="604.99" rx="44.69" ry="43.67" fill="#e5aaa3"/>
  <ellipse cx="252.17" cy="604.99" rx="17.29" ry="16.9" fill="#e59089"/>
  <circle cx="734.7" cy="331.58" r="18.65" fill="#eab8b5"/>
  <ellipse cx="734.7" cy="331.58" rx="9.29" ry="9.64" fill="#dd918e"/>
  <circle cx="439.03" cy="209.32" r="24.46" fill="#ce9f9f"/>
  <circle cx="440.47" cy="209.32" r="9.46" fill="#e59089"/>
</svg>
