<svg id="Layer_1" data-name="Layer 1" xmlns="http://www.w3.org/2000/svg" viewBox="0 0 377.19 315.56"><title>penisschnuller</title><path d="M414.17,149.8" transform="translate(-237.94 -134.77)" fill="#fff" stroke="#000" stroke-miterlimit="10"/><path d="M469.85,356.87" transform="translate(-237.94 -134.77)" fill="#1998ef"/><path d="M340.53,353.92" transform="translate(-237.94 -134.77)" fill="#1998ef"/><path d="M272.14,435.42c36.65,26,87.53,17.14,113.65-19.72s17.58-87.79-19.06-113.76-87.53-17.14-113.65,19.71S235.49,409.45,272.14,435.42ZM283.75,419a61.72,61.72,0,1,1,85.75-14.88A61.54,61.54,0,0,1,283.75,419Z" transform="translate(-237.94 -134.77)" fill="#1896e5"/><path d="M461,356.2c16.31-29.27-14.71-77.64-69.28-108.05s-114.08-35-130.39-5.71,15.78,80.4,70.35,110.81,113,32.22,129.32,3" transform="translate(-237.94 -134.77)" fill="#1998ef"/><path d="M462.2,348.58c16.31-29.27-14.71-77.64-69.28-108s-112-31.33-128.34-2.06,14.71,77.64,69.28,108,112,31.33,128.34,2.06" transform="translate(-237.94 -134.77)" fill="#6fc0ff"/><path d="M454.33,295.28c-14.19,1.82-69.34,16.4-85.44,12.5-.34-.69-13.46-14.75-23.39-20,.26-1.12,21.25-40.6,27.44-57a209.15,209.15,0,0,1,20,9.79c27.42,15.28,48.9,35.1,61.41,54.75" transform="translate(-237.94 -134.77)" fill="#55aeff"/><path d="M404.77,197.21c-4.83-7.81,4.94-24,15.12-16" transform="translate(-237.94 -134.77)" fill="#fff" opacity="0.5"/><line x1="181" y1="103.3" x2="127.62" y2="49.03" fill="#ffd593"/><path d="M362.18,183.16s72.05-68.31,169.7-42.61c0,0,35.87,10.89,35.76,12.31s-37.15,5.7-49.06,42.44c0,0-1.24,3.72,2.14,15.42,0,0-34.48-10.3-63.44.32a263.48,263.48,0,0,0-49.05,23.85s18.43,20.5,12.84,49.63a60.8,60.8,0,0,1-17.91,35.4,63.45,63.45,0,0,1-11.76,9c-27.5,16.46-53.38,5.87-53.38,5.87s-22.93-5.59-40.77-39.88c0,0-14.7-44.05,24.84-74.36C322.09,220.57,343.32,192.66,362.18,183.16Z" transform="translate(-237.94 -134.77)" fill="#f4b9b8"/><path d="M585.8,155s-13.45-7.87-38.7,1.82c0,0-34.6,21.41-33.69,35.54,0,0-6.62,18,14,27.19,0,0,25.15,7.17,24.75,7.14s18.73,12.3,29.41,14.33c0,0,18.4,1,27.65-14.72,0,0,7.34-6.64,5.7-26.86,0,0-4.59-24.06-12.39-29.49C602.5,170,600.17,161.36,585.8,155Z" transform="translate(-237.94 -134.77)" fill="#efafaf"/><path d="M412.06,240.11" transform="translate(-237.94 -134.77)" fill="#fff" stroke="#000" stroke-miterlimit="10"/><path d="M400.1,322.08s25.15,12.4,58.83-12.71c0,0,14.84-10.09,21.53-44.52,0,0,3.63-10.56-10.63-39,0,0-7.33-9-14.58-14,0,0-18.13,5.82-22.34,8.31S404.83,235.29,406.7,237s7.76,13.93,9.29,20C416,257.08,421.78,286,400.1,322.08Z" transform="translate(-237.94 -134.77)" fill="#f2c2c2"/><path d="M587.89,168.11c3.66-4.05,9.8,1,11.95,4.09,4.15,6,4.85,14.92-2.23,16.11" transform="translate(-237.94 -134.77)" fill="#fff" opacity="0.5"/></svg>