<svg id="Tampon" xmlns="http://www.w3.org/2000/svg" viewBox="0 0 370.24 851.9"><title>tampon</title><line x1="368.07" y1="41.8" x2="370.24" y2="43.12" fill="none"/><line x1="368.07" y1="41.8" x2="370.24" y2="43.12" fill="none"/><line x1="368.07" x2="370.24" y2="1.32" fill="none"/><path id="_Clipping_Path_" data-name=" Clipping Path " d="M538.86,505.45a43,43,0,0,0,86-1.21l-3-210.82-86,1.21Z" transform="translate(-504.36 0)" fill="#f2ebec"/><rect x="593.65" y="305.97" width="3.38" height="157.54" transform="translate(-509.67 8.35) rotate(-0.8)" fill="#fff"/><rect x="563.33" y="306.4" width="3.38" height="157.54" transform="translate(-509.68 7.93) rotate(-0.8)" fill="#fff"/><path d="M538.5,505.11a43.38,43.38,0,0,0,86.75-.8v-.45l-.91-64.7a12.64,12.64,0,1,0-25.27.35h0l-.22-16a8.9,8.9,0,1,0-17.79.25l.35,25.29,0,3.89a2,2,0,1,1-4,.06l-.08-5.53-.23-8.7A8.57,8.57,0,0,0,560,439l.15,10.89.1,6.79a2.7,2.7,0,1,1-5.39.08v-2.23l-.52-29.75a8.29,8.29,0,1,0-16.58.23l1,73.53a4.57,4.57,0,0,0,0,.83A43.73,43.73,0,0,0,538.5,505.11Z" transform="translate(-504.36 0)" fill="#ed1c24"/><path d="M576.54,123.31a7.32,7.32,0,0,1,5.55,2.47c2.3,2.51,3.34,6.61,2.85,11.23-2.87,27.22,0,55,2.7,81.79,2.77,27.13,5.64,55.18,2.7,83-.76,7.24-5.75,13.2-11.13,13.27a7.32,7.32,0,0,1-5.55-2.47c-2.3-2.51-3.34-6.61-2.86-11.23,2.88-27.22,0-55-2.7-81.79-2.77-27.13-5.64-55.18-2.7-83C566.17,129.34,571.16,123.39,576.54,123.31Zm2.61,185.8c1.79,0,4.82-3.22,5.32-8,2.88-27.22,0-55-2.7-81.79-2.77-27.13-5.64-55.18-2.7-83,.36-3.41-.5-5.7-1.34-6.62a1.37,1.37,0,0,0-1.1-.54c-1.79,0-4.82,3.22-5.32,8-2.88,27.22,0,55,2.7,81.79,2.77,27.13,5.64,55.18,2.7,83-.36,3.41.5,5.7,1.34,6.62A1.37,1.37,0,0,0,579.15,309.11Z" transform="translate(-504.36 0)" fill="#f2ebec"/><path d="M617.9,463a3,3,0,0,1,3,2.92l.51,36.16c.26,18.64-7.79,32.56-22.68,39.21a3,3,0,0,1-2.41-5.41c17-7.58,19.31-24.38,19.17-33.72L615,466A3,3,0,0,1,617.9,463Z" transform="translate(-504.36 0)" fill="#fff"/><path d="M623.71,667c0,23.94-19.4,35.72-43.34,35.72h.42c-23.94,0-43.34-11.78-43.34-35.72,0-30.06,43.13-62.33,43.13-83.32C580.68,604.33,623.71,636.91,623.71,667Z" transform="translate(-504.36 0)" fill="#ed1c24"/><path d="M570.85,696a3,3,0,0,1-.59-.06c-11.49-2.28-19.27-7.7-23.15-16.12-5.27-11.43-1.62-25.49,2.12-32.15a3,3,0,0,1,5.23,2.94c-3,5.37-6.2,17.37-1.9,26.7,3,6.57,9.38,10.86,18.87,12.75a3,3,0,0,1-.58,5.94Z" transform="translate(-504.36 0)" fill="#fff"/><path d="M688,763.85c0,23.94-19.4,35.72-43.34,35.72h.42c-23.94,0-43.34-11.78-43.34-35.72,0-30.06,43.13-62.33,43.13-83.32C645,701.2,688,733.78,688,763.85Z" transform="translate(-504.36 0)" fill="#ed1c24"/><path d="M635.19,792.85a3,3,0,0,1-.59-.06c-11.49-2.28-19.27-7.7-23.15-16.12-5.27-11.43-1.62-25.49,2.12-32.15a3,3,0,0,1,5.26,2.89l0,.05c-3,5.37-6.2,17.37-1.9,26.7,3,6.57,9.38,10.86,18.87,12.75a3,3,0,0,1-.58,5.94Z" transform="translate(-504.36 0)" fill="#fff"/><path d="M590.62,816.18c0,23.94-19.4,35.72-43.34,35.72h.42c-23.94,0-43.34-11.78-43.34-35.72,0-30.06,43.13-62.33,43.13-83.32C547.58,753.54,590.62,786.11,590.62,816.18Z" transform="translate(-504.36 0)" fill="#ed1c24"/><path d="M537.75,845.18a3,3,0,0,1-.59-.06c-11.49-2.28-19.27-7.7-23.15-16.12-5.27-11.43-1.62-25.49,2.12-32.15a3,3,0,0,1,5.23,2.94c-3,5.37-6.2,17.37-1.9,26.7,3,6.57,9.38,10.86,18.87,12.75a3,3,0,0,1-.58,5.94Z" transform="translate(-504.36 0)" fill="#fff"/><path d="M535.9,294.64" transform="translate(-504.36 0)" fill="#ed1c24"/><path d="M292.7,305.94" transform="translate(-504.36 0)" fill="#ed1c24"/><path d="M610.13,465.77l3,10.52a2.51,2.51,0,0,0,4.91-.66l.1-11.32h-5l4.34,35.7,4.91-.66A113.2,113.2,0,0,1,618,460.11a2.52,2.52,0,0,0-4.27-1.77c-11.18,12.83-13.1,32.79-15.48,48.94l4.91.66q.66-23.94-.44-47.87a2.51,2.51,0,0,0-4.91-.66L578.9,516.26l4.91.66a325.29,325.29,0,0,1,3-58.63l-4.91-.66a227.84,227.84,0,0,1-9.19,45.85c-1,3.08,3.87,4.4,4.82,1.33A234.36,234.36,0,0,0,587,457.63c.26-2.77-4.51-3.46-4.91-.66a332.45,332.45,0,0,0-3.23,60,2.51,2.51,0,0,0,4.91.66l18.94-56.84-4.91-.66q1.1,23.93.44,47.87c-.08,2.75,4.49,3.5,4.91.66,1.25-8.47,2.79-16.9,4.76-25.24,1.82-7.73,4.12-15.4,9.44-21.5L613,460.11a117.33,117.33,0,0,0,4.5,40.55c.76,2.59,5.26,2.23,4.91-.66l-4.34-35.7c-.38-3.1-5-3.31-5,0l-.1,11.32,4.91-.66-3-10.52c-.87-3.09-5.69-1.78-4.82,1.33Z" transform="translate(-504.36 0)" fill="#ed1c24"/><path d="M616.74,462.16A420.22,420.22,0,0,1,615.59,516l4.66-1.26a35.58,35.58,0,0,1-4.16-22.47l-4.91.66,2,12.78c.66,4.23,1.9,8.7,1.56,13-.32,4-5.06,7.52-8,10.23a118.19,118.19,0,0,1-10.66,8.79c-2.57,1.88-.08,6.23,2.52,4.32a129.18,129.18,0,0,0,11.67-9.57c3.21-3,7.87-6.56,9.32-10.88,1.3-3.87-.3-8.74-.9-12.61L616,491.64c-.48-3-4.58-1.84-4.91.66a40,40,0,0,0,4.85,25c1.29,2.32,4.46,1.07,4.66-1.26a420.23,420.23,0,0,0,1.15-53.87c-.14-3.21-5.14-3.22-5,0Z" transform="translate(-504.36 0)" fill="#ed1c24"/><path d="M617.86,502v5.87a7.59,7.59,0,0,0,.91,4.48c1.86,2.59,6.2.1,4.32-2.52-.57-.79-.23-2.4-.23-3.34V502c0-3.22-5-3.22-5,0Z" transform="translate(-504.36 0)" fill="#ed1c24"/><path d="M611.72,515.81,608,525l4.82,1.33A50.17,50.17,0,0,0,615.36,516c.42-3.08-4-4.55-4.82-1.33-1.3,5.32-3.22,12.58-8,15.74a54.46,54.46,0,0,0-9.4,8.19c-2.23,2.32,1.3,5.86,3.54,3.54,2.07-2.16,4.08-4.7,6.56-6.4,1.84-1.26,3.61-1.53,5-3.34,3.6-4.57,5.72-10.82,7.08-16.39l-4.82-1.33A50.17,50.17,0,0,1,608,525c-1.1,3.07,3.65,4.26,4.82,1.33l3.68-9.2c1.2-3-3.64-4.28-4.82-1.33Z" transform="translate(-504.36 0)" fill="#ed1c24"/><path d="M603,540.83c1.42-2.28,4.48-3.86,6.4-5.77,1.07-1.06,2.22-2.09,3.2-3.23s1-2.16,1.68-3.18c1.8-2.68-2.53-5.18-4.32-2.52-.75,1.12-.91,2.19-1.88,3.17-1.14,1.14-2.25,2.3-3.43,3.4-2,1.9-4.47,3.19-6,5.6-1.71,2.74,2.62,5.25,4.32,2.52Z" transform="translate(-504.36 0)" fill="#ed1c24"/><path d="M573.79,691.21a16.27,16.27,0,0,1-11.56-3.52l-2.43,4.18,18.38,2.71.66-4.91A81.83,81.83,0,0,1,560,686.54c-2.26-.65-4.44,2.56-2.43,4.18a19.42,19.42,0,0,0,6.08,3.4c2.77,1,4.24-3.1,1.93-4.57a24.26,24.26,0,0,1-8.24-8.62c-1.63-2.8-5.78-.33-4.32,2.52a19.31,19.31,0,0,0,7.18,7.77l1.93-4.57-10.06-2.37c-2.89-.68-4.14,2.92-1.93,4.57a42.67,42.67,0,0,0,18.24,7.87l.66-4.91c-17.73-.26-21-20.6-17.52-34.15.81-3.12-3.91-4.42-4.82-1.33-1.76,6-2.82,13.53-.33,19.49,2.1,5,7.1,6.84,12,8.17,2.29.62,4.39-2.49,2.43-4.18-3.77-3.24-8.19-6.84-9.39-11.91-1.16-4.89,2-8.82,4-12.92,1.89-3.73,4.52-12.77-2-13.67a2.55,2.55,0,0,0-3.08,1.75l-3.16,15.74c-.63,3.12,4,4.47,4.82,1.33l4.34-16c.62-2.3-2.49-4.38-4.18-2.43-10,11.5-16,29.56-3.19,41.53,2.35,2.2,5.89-1.33,3.54-3.54-10.66-10-5-25,3.19-34.46l-4.18-2.43-4.34,16,4.82,1.33,3.16-15.74-3,1.72c2.54.35-2.78,9.48-3.31,10.48a19.88,19.88,0,0,0-2.7,8.22c-.39,7.94,5.56,13.74,11.11,18.51l2.43-4.18c-4-1.08-8-2.2-9.15-6.69-1.22-4.81-.39-10.16,1-14.82l-4.82-1.33c-2.4,9.22-2.79,19.45,2,28A23.88,23.88,0,0,0,569,696.81c2.74,0,3.5-4.41.66-4.91a39.55,39.55,0,0,1-17-7.36l-1.93,4.57,10.06,2.37a2.51,2.51,0,0,0,1.93-4.57,14.2,14.2,0,0,1-5.39-6L553,683.45a29.83,29.83,0,0,0,10,10.42l1.93-4.57a10,10,0,0,1-3.87-2.12l-2.43,4.18a87.74,87.74,0,0,0,20.17,3.3c2.76.13,3.48-4.49.66-4.91L561.08,687c-2.12-.31-4.64,2.42-2.43,4.18a21.53,21.53,0,0,0,15.1,5c3.2-.17,3.22-5.17,0-5Z" transform="translate(-504.36 0)" fill="#ed1c24"/><path d="M638.94,784.85q-.81,3.1-4.77,1.48l-1.84,2.41a10.67,10.67,0,0,1,7.28,1.46l.6-4.57a18.55,18.55,0,0,1-12.34.48c-2.67-.78-4.5,3.28-1.93,4.57l6.7,3.37,1.93-4.57c-15-2.69-25.75-21.09-21.43-35.69a49,49,0,0,1,4.94-10.68c1-1.79,1.48-3.56,3.53-3.85,1.63-.23,2.86.85,4.32,1.44a25.9,25.9,0,0,0,16.85.66c2.6-.74,2.22-5.24-.66-4.91-11.12,1.27-23.48,3.4-29.09,14.35l4.66,1.26a16.07,16.07,0,0,1,3.31-8.13c1.67-2.26-2.15-5.25-3.93-3a32.7,32.7,0,0,0-7.36,23.9c.25,2.72,4.06,3.5,4.91.66L618,754.22l-4.91-.66c.93,7.76-3,15.72,2,22.69,4.16,5.73,11.58,11.06,18.46,12.7l.66-4.91a22.77,22.77,0,0,1-22.83-15.17c-1-3-5.88-1.72-4.82,1.33A27.83,27.83,0,0,0,634.21,789c2.71-.14,3.53-4.23.66-4.91-5.82-1.38-13.21-6.32-16.31-11.61-3.19-5.46.22-13-.5-19-.32-2.67-4-3.55-4.91-.66l-3.34,11.25,4.91.66a27.72,27.72,0,0,1,5.9-20.36l-3.93-3a20.8,20.8,0,0,0-4,10.65c-.26,2.48,3.57,3.39,4.66,1.26,4.75-9.27,15.41-10.8,24.77-11.87l-.66-4.91a21.08,21.08,0,0,1-15.4-1.27c-2.61-1.27-4.92-2.69-7.68-1-3.14,1.92-5.16,7.06-6.78,10.24A39,39,0,0,0,607.34,757c-1.1,8.33,2.49,17.65,6.91,24.62a28.13,28.13,0,0,0,19,12.68c2.59.47,4.64-3.2,1.93-4.57l-6.7-3.37-1.93,4.57a23.09,23.09,0,0,0,15-.48c1.92-.71,2.6-3.44.6-4.57a16.5,16.5,0,0,0-11.13-2,2.49,2.49,0,0,0-1.84,2.41c1.09,8.47,10.84,7.85,14.09,1,1.38-2.89-2.93-5.43-4.32-2.52Z" transform="translate(-504.36 0)" fill="#ed1c24"/><path d="M521.41,792.56a109.19,109.19,0,0,0-7.49,22l4.91.66a127.9,127.9,0,0,1,4.07-18.94c.78-2.65-3.37-4.55-4.57-1.93a54.68,54.68,0,0,1-4.85,8.49l4.66,1.26c.23-3,.57-5.85,3-7.9l-4.18-2.43a80.12,80.12,0,0,0-6,25.16h5l-.16-9.49-4.91.66c2.5,17,17.47,26.66,31.11,34.67l1.26-4.66c-7.44.72-14.58-.35-19.4-6.5-4-5.14-7.71-10.79-7-17.58h-5c-.68,12.37,5.76,28.38,20.77,25.64,2.15-.39,2.38-3.57.6-4.57a111.32,111.32,0,0,1-12.64-8.25l-1.93,4.57a61,61,0,0,1,11.86,5.46c2.77,1.65,5.29-2.67,2.52-4.32a67.36,67.36,0,0,0-13.06-6c-2.9-1-4,3-1.93,4.57a111.32,111.32,0,0,0,12.64,8.25l.6-4.57c-11.66,2.13-14.91-12.31-14.44-20.82.18-3.25-4.69-3.15-5,0-.8,8.27,3.85,15.33,8.82,21.52,5.52,6.87,14.19,8.39,22.63,7.57,2.35-.23,3.55-3.32,1.26-4.66-12.59-7.39-26.5-16-28.81-31.68-.41-2.82-5-2.1-4.91.66l.16,9.49c.06,3.25,4.75,3.18,5,0a76.1,76.1,0,0,1,5.83-23.78c1.06-2.53-2.51-3.86-4.18-2.43-3.44,3-4.08,7.12-4.41,11.43-.21,2.68,3.37,3.11,4.66,1.26a54.68,54.68,0,0,0,4.85-8.49l-4.57-1.93a136.49,136.49,0,0,0-4.25,20.27c-.38,2.79,4.3,3.39,4.91.66a103.16,103.16,0,0,1,7-20.81c1.34-2.9-3-5.45-4.32-2.52Z" transform="translate(-504.36 0)" fill="#ed1c24"/><path d="M511.53,803.38l-.39,19.8c-.06,3.22,4.94,3.22,5,0l.39-19.8c.06-3.22-4.94-3.22-5,0Z" transform="translate(-504.36 0)" fill="#ed1c24"/></svg>