<svg id="Layer_1" data-name="Layer 1" xmlns="http://www.w3.org/2000/svg" viewBox="0 0 264.88 425.02"><title>Free-Baby&amp;apos;s-Toys-Vectors [Converted] copy</title><path d="M844.59,559.66l-50.42-34a23.79,23.79,0,0,0-3.06-1.72,101.18,101.18,0,0,0-11.51-18.28A64.6,64.6,0,0,1,753,527.24c10,13.35,16.37,33.15,16.37,55.26,0,40.21-21,72.81-46.87,72.81s-46.88-32.6-46.88-72.81c0-22.21,6.4-42.07,16.5-55.43A64.63,64.63,0,0,1,665.38,505a101.1,101.1,0,0,0-12.2,19.25,23.56,23.56,0,0,0-2.39,1.4l-50.43,34a23.44,23.44,0,1,0,26.23,38.85L642,588.12a114.88,114.88,0,0,0,16.14,49.7l-.13.27a.39.39,0,0,1-.25.54,26.16,26.16,0,0,0-1.69,4.79l-16,66.33a26.29,26.29,0,0,0,51.11,12.35l11.55-47.81a65.68,65.68,0,0,0,43.21-1.42l11.89,49.23a26.29,26.29,0,0,0,51.11-12.35l-16-66.33a26.18,26.18,0,0,0-4.35-9.36,115.94,115.94,0,0,0,14-46.25l15.86,10.7a23.44,23.44,0,0,0,26.23-38.85Z" transform="translate(-590.03 -317.19)" fill="#ebc295"/><path d="M692.09,527.08a64,64,0,0,0,26.14,5.56h9a64.35,64.35,0,0,0,52.39-27,90.11,90.11,0,0,0-7.45-8.25,64.12,64.12,0,0,1-44.94,18.32h-9a64.13,64.13,0,0,1-45.44-18.8,89.24,89.24,0,0,0-7.42,8.07A64.63,64.63,0,0,0,692.09,527.08Z" transform="translate(-590.03 -317.19)" fill="#e1ad7a"/><path d="M718.23,532.64a64,64,0,0,1-26.14-5.56c-10.09,13.36-16.5,33.23-16.5,55.43,0,40.21,21,72.81,46.88,72.81s46.87-32.6,46.87-72.81c0-22.11-6.36-41.91-16.37-55.26a64,64,0,0,1-25.77,5.39Z" transform="translate(-590.03 -317.19)" fill="#f6e0c9"/><path d="M718.23,515.68h9a64.37,64.37,0,0,0,64.34-64.34V410.45a64.07,64.07,0,0,0-7.38-29.92,32.92,32.92,0,1,0-45.35-33.35,64.58,64.58,0,0,0-11.61-1.07h-9a64.59,64.59,0,0,0-6.69.35,32.92,32.92,0,1,0-49.2,32.13,64,64,0,0,0-8.45,31.86v40.89a64.34,64.34,0,0,0,64.34,64.34ZM770.85,332.4a16.45,16.45,0,0,1,8.55,30.5,63.26,63.26,0,0,0-24.92-15.65A16.45,16.45,0,0,1,770.85,332.4ZM740.93,405c2.26,0,4.33,1.38,6,3.67a5,5,0,0,1,2.52,4.31,4.85,4.85,0,0,1-.09.85,26.53,26.53,0,0,1,1.08,7.63c0,9.09-4.24,16.46-9.47,16.46s-9.48-7.37-9.48-16.46S735.69,405,740.93,405Zm-33.42,0c2.48,0,4.72,1.66,6.41,4.37a4.93,4.93,0,0,1,1.51,3.08,25.7,25.7,0,0,1,1.55,9c0,9.09-4.24,16.46-9.48,16.46S698,430.51,698,421.42,702.28,405,707.51,405Zm-36.39-42.06A16.45,16.45,0,1,1,696,347.26,63.22,63.22,0,0,0,671.12,362.91Zm23.24,121.64c-.4.41-.78.84-1.14,1.27a3.47,3.47,0,0,1-1.36,1,.63.63,0,0,1-.91-.37,2.55,2.55,0,0,1,.13-2.18,5.56,5.56,0,0,1,1.79-2,5.05,5.05,0,0,1,2.17-.89,3,3,0,0,1,1.67.23c.5.19.84,1,.19,1.31a10.82,10.82,0,0,0-1.27.67c7.47,7.85,14.93,11.46,25.4,11.77-.81-3-.22-6.49-.19-9.57a51.79,51.79,0,0,1,.13-5.5c-7.55,0-14.86-3.59-22.08-11.2-3.86-4.06-7-8.42-7.54-12.46s1.58-7.95,8.47-10.75c12.51-5.08,28.29-4.35,41.24-1.53,18.33,4,15.72,16.83,2,27.12-6.6,5-12.94,7.93-19.13,8.64a51.58,51.58,0,0,1,.14,7.16c0,2.69.46,5.51-.21,8.08H724c11.47.08,19.39-3.47,27.32-11.78a10,10,0,0,0-1.24-.67c-.62-.28-.38-1.12.15-1.31a3.22,3.22,0,0,1,1.89-.2,5,5,0,0,1,1.92.83c1.38,1,2.54,2.47,2,4.19a.63.63,0,0,1-.9.4,4.17,4.17,0,0,1-1.54-1.17,10.94,10.94,0,0,0-1.13-1.24c-.11-.1-.25-.18-.37-.27-1.14,10.93-19.24,16.45-28.58,14.19-9.36,2.23-27.51-3.27-28.59-14.23A4.8,4.8,0,0,0,694.36,484.54Z" transform="translate(-590.03 -317.19)" fill="#ebc295"/><path d="M740.93,437.88c5.23,0,9.47-7.37,9.47-16.46a26.53,26.53,0,0,0-1.08-7.63,5,5,0,1,1-4.9-5.84,4.93,4.93,0,0,1,2.47.68c-1.62-2.29-3.7-3.67-6-3.67-5.24,0-9.48,7.37-9.48,16.46S735.69,437.88,740.93,437.88Z" transform="translate(-590.03 -317.19)" fill="#220c0c"/><path d="M723.47,498.31c9.35,2.26,27.44-3.26,28.58-14.19.12.09.26.17.37.27a10.94,10.94,0,0,1,1.13,1.24,4.17,4.17,0,0,0,1.54,1.17.63.63,0,0,0,.9-.4c.57-1.72-.59-3.21-2-4.19a5,5,0,0,0-1.92-.83,3.22,3.22,0,0,0-1.89.2c-.53.2-.77,1-.15,1.31a10,10,0,0,1,1.24.67c-7.93,8.32-15.85,11.86-27.32,11.78h-.07c.68-2.57.24-5.4.21-8.08a51.58,51.58,0,0,0-.14-7.16,25.08,25.08,0,0,1-3,.17,51.79,51.79,0,0,0-.13,5.5c0,3.08-.62,6.55.19,9.57-10.47-.31-17.93-3.92-25.4-11.77a10.82,10.82,0,0,1,1.27-.67c.64-.29.31-1.12-.19-1.31a3,3,0,0,0-1.67-.23,5.05,5.05,0,0,0-2.17.89,5.56,5.56,0,0,0-1.79,2,2.55,2.55,0,0,0-.13,2.18.63.63,0,0,0,.91.37,3.47,3.47,0,0,0,1.36-1c.36-.43.73-.86,1.14-1.27a4.8,4.8,0,0,1,.52-.47C696,495,714.11,500.54,723.47,498.31Z" transform="translate(-590.03 -317.19)" fill="#220d0c"/><path d="M707.51,437.88c5.23,0,9.48-7.37,9.48-16.46a25.7,25.7,0,0,0-1.55-9,4,4,0,0,1,.05.53,5,5,0,1,1-1.56-3.61c-1.69-2.7-3.93-4.37-6.41-4.37-5.23,0-9.48,7.37-9.48,16.46S702.28,437.88,707.51,437.88Z" transform="translate(-590.03 -317.19)" fill="#220c0c"/><path d="M724,480.09c6.19-.71,12.53-3.68,19.13-8.64,13.68-10.29,16.29-23.13-2-27.12-12.94-2.82-28.73-3.55-41.24,1.53-6.89,2.8-9,6.6-8.47,10.75s3.68,8.39,7.54,12.46c7.22,7.61,14.53,11.16,22.08,11.2A25.08,25.08,0,0,0,724,480.09Z" transform="translate(-590.03 -317.19)" fill="#571514"/><path d="M739.43,412.94a5,5,0,0,0,9.89.85,4.85,4.85,0,0,0,.09-.85,5,5,0,0,0-10,0Z" transform="translate(-590.03 -317.19)" fill="#fff"/><path d="M705.52,412.94a5,5,0,1,0,10,0,4,4,0,0,0-.05-.53A5,5,0,0,0,710.5,408,5,5,0,0,0,705.52,412.94Z" transform="translate(-590.03 -317.19)" fill="#fff"/><path d="M787.31,348.86a16.46,16.46,0,0,0-32.83-1.6,63.26,63.26,0,0,1,24.92,15.65A16.43,16.43,0,0,0,787.31,348.86Z" transform="translate(-590.03 -317.19)" fill="#fdd6d5"/><path d="M679.67,332.4a16.45,16.45,0,0,0-8.55,30.5A63.22,63.22,0,0,1,696,347.26,16.45,16.45,0,0,0,679.67,332.4Z" transform="translate(-590.03 -317.19)" fill="#fdd6d5"/><path d="M778.83,553.07A21.64,21.64,0,0,1,776,550.6c.51.32,2.69,1.42,3,1.62s-2.14-2.38-2.67-3.35c-1.31-2.38-1.27-4.83-1.27-7.51V500.28a.28.28,0,0,0-.12-.24l0,0a1.53,1.53,0,0,0-.81-1.9,3.89,3.89,0,0,0-2.81-.21.93.93,0,0,0-.41.35q0,7.51,0,15v21c0,2.53,0,5.07,0,7.61,0,2.84-1.52,7-4.63,7.51,1.33-.28,3.88.19,3.81.4a37.64,37.64,0,0,0-5.23.56,27.81,27.81,0,0,0-3,.65,57.16,57.16,0,0,0-16.71,8c-9.55,6.5-17.28,16.6-18.44,28.93-.61-.4-.54-1.71-.61-1.71h-7.21c-.07,0,0,1.3-.61,1.71-1.16-12.33-8.89-22.44-18.44-28.93a57.16,57.16,0,0,0-16.71-8,27.81,27.81,0,0,0-3-.65,37.64,37.64,0,0,0-5.23-.56c-.07-.22,2.48-.69,3.81-.4-3.11-.52-4.65-4.67-4.63-7.51,0-2.53,0-5.07,0-7.61v-21q0-7.51,0-15a.93.93,0,0,0-.41-.35,3.89,3.89,0,0,0-2.81.21A1.53,1.53,0,0,0,670,500l0,0a.28.28,0,0,0-.12.24v41.07c0,2.68,0,5.13-1.27,7.51-.53,1-3,3.53-2.67,3.35s2.51-1.3,3-1.62a21.64,21.64,0,0,1-2.85,2.48c-10,7.21-9.29,22.71-5.24,33.38A28.24,28.24,0,0,0,685,604.62c12.11,1.13,23.56-5.34,31.9-14.31H728c8.34,9,19.79,15.44,31.9,14.31a28.24,28.24,0,0,0,24.14-18.17C788.12,575.79,788.79,560.28,778.83,553.07Z" transform="translate(-590.03 -317.19)"/><path d="M789.5,630.19c-17,4.76-40.29,7.79-65.33,7.82h-1.23c-25.15,0-48.53-3.09-65.55-7.88-.29,1.76-.53,3.58-.74,5.41a15.25,15.25,0,0,1,1.34,2.53.41.41,0,0,1,0,.3A103.27,103.27,0,0,1,701.93,659c6.18,4.94,12.81,13.67,17.55,17.12a8.06,8.06,0,0,0,8.17,0c4.74-3.44,11.37-12.18,17.55-17.12a103.2,103.2,0,0,1,45.31-20.93C790.25,635.38,789.92,632.74,789.5,630.19Z" transform="translate(-590.03 -317.19)" fill="#040404" fill-rule="evenodd"/><polyline points="67.36 312.93 63.79 312.93 66.63 318.35" fill="#040404" fill-rule="evenodd"/></svg>