<svg xmlns="http://www.w3.org/2000/svg" viewBox="0 0 541.09 397.42">
  <defs>
    <style>
      .lichtfleck, .h {
        fill: #fff;
      }

      .b {
        fill: #f1978d;
      }

      .c {
        fill: #f5b7bf;
      }

      .d {
        fill: #fdf4f0;
        stroke: #c6c4b9;
        stroke-width: 0.2px;
      }

      .d, .e, .f, .g, .h {
        stroke-miterlimit: 10;
      }

      .e {
        fill: #6cb658;
        stroke: #39a935;
        stroke-width: 2px;
      }

      .f {
        fill: none;
        stroke: #fffbe3;
      }

      .g {
        fill: #1d1d1b;
        stroke: #1d1d1b;
      }

      .h {
        stroke: #fff;
      }

      .tropfen {
        fill: #97d2dc;
      }

      .traene {
        animation: weinen 2s infinite;
      }

      @keyframes weinen {
        to {
          transform: translateY(300px);
          transform-origin: center;
        }
      }
    </style>
  </defs>
  <title>Uterus</title>
  <path class="lichtfleck" d="M287.67,325.93" transform="translate(-206.33 -99.89)"/>
  <path class="b" d="M315.91,264.17s70.74,0.47,18.61-34.44c0,0-34.9-14.89-41.88,0s17.22,32.58,17.22,32.58Z" transform="translate(-206.33 -99.89)"/>
  <path class="c" d="M369.89,260.14S368,206.93,284.27,216.7c0,0-66.55-5.12-46.07-54S308,151.55,308,151.55s14.89,25.45,72.13,32c0,0,5.12-2,14.43,15.32s34,63.87,34.44,70.85-11.63,58.64-12.1,64.69,22.8,158.22,22.8,158.22v4.65h71.67s24.2-138.68,22.34-158.69-11.63-53.05-9.31-69.8,25.6-83,50.72-85.24,46.07-13.42,52.12-16.21,50.26-51.66,83.3-4.65c0,0,16.23,51.66-44.7,50.72s-78.62,17.62-81.41,27.42-5.09,29.82,20,32.14,56.3-7,67-26.53l2.79-2.84s27,0.05,46.07-15.77,29.78-30.71,26.53-60-24.66-60.5-73.06-54.91-45.61,18.15-65.15,27.46-32.58,17.22-47.93,12.1c0,0-21.45-52.12-84.95-52.59s-84,54.45-84,54.45-39.09,9.28-80.51-36.54c0,0-66.13-29.07-95.89,26.31s23.29,87.49,26.09,89.82,34.44,8.74,37.23,9.72,8.38,22.39,34.9,28S362,280.3,369.89,260.14Z" transform="translate(-206.33 -99.89)"/>
  <path class="b" d="M414.57,170.63s18.61-16.75,27.92,22.34,28.85,73.53,28.85,73.53-16.75,42.81,0,85.63c0,0-32.58,4.61-43.74-12.59S435,367,435,367s1.86,16.75,2.79,34.44,14,94,14,94H497.4s14.89-89.32,14-119.1l15.82-31.64s-40,17.68-45.61,8.38c0,0,13-43.74-1.86-88.42,0,0,31.64-100.21,40-97.57s67,14.74,96.8-6.67,41-27.92,43.74-27.92,53.05-13,61.43,32.58-39.09,58.64-47.47,58.64-0.93,13.94-.93,13.94,58.64-6.49,62.36-50.24S720.78,112,651.9,123.16c0,0-29.78,18.61-46.54,30.71s-69.8,2.79-87.49-3.72-48.4-15.82-98.66,6.52S312.19,134.33,306.6,125s-52.12-11.17-67.94,3.72S180,217.17,275.89,233l1.86-9.31s-87.49-16.75-36.3-81c0,0,41-35.37,81,13C322.43,155.74,349.42,180.87,414.57,170.63Z" transform="translate(-206.33 -99.89)"/>
  <path class="b" d="M402.32,172.2s31-11.55,37.41,11.39,10.68-24.12,10.68-24.12S401.7,162.59,402.32,172.2Z" transform="translate(-206.33 -99.89)"/>
  <path class="b" d="M292.64,229.73s33.91-17.05,55.7,11.14-17.22,25.16-27.85,23.3S271.59,243.57,292.64,229.73Z" transform="translate(-206.33 -99.89)"/>
  <path class="d" d="M331.16,200s-46-1.36-47.72,48.36c0,0,1.16,40.75,45.23,42.38S373.9,247,373.9,247.5,374.92,204.62,331.16,200Z" transform="translate(-206.33 -99.89)"/>
  <path class="e" d="M329.3,224.61S307,223.52,314.08,248.8a20.34,20.34,0,0,0,21.28,12c16-1.63,13.24-19.57,13.24-19.57S345.61,227.33,329.3,224.61Z" transform="translate(-206.33 -99.89)"/>
  <path class="f" d="M344.65,237.51" transform="translate(-206.33 -99.89)"/>
  <path class="g" d="M329.23,231.44s-9.85-1-7.27,11.31c0,0,.85,5.71,9.41,6.12,0,0,7.75-.2,7.44-7.24S332.65,231,329.23,231.44Z" transform="translate(-206.33 -99.89)"/>
  <path class="h" d="M322.19,235.2s-3.6-.38-2.66,4.13c0,0,.31,2.09,3.44,2.24,0,0,2.83-.07,2.72-2.64S323.44,235,322.19,235.2Z" transform="translate(-206.33 -99.89)"/>
  <path class="d" d="M627.23,206.95s-46-1.36-47.72,48.36c0,0,1.16,40.75,45.23,42.38S670,253.94,670,254.48,671,211.6,627.23,206.95Z" transform="translate(-206.33 -99.89)"/>
  <path class="e" d="M623.3,230.73s-22.29-1.09-15.22,24.19a20.34,20.34,0,0,0,21.28,12c16-1.63,13.24-19.57,13.24-19.57S639.61,233.44,623.3,230.73Z" transform="translate(-206.33 -99.89)"/>
  <path class="f" d="M640.71,109.59" transform="translate(-206.33 -99.89)"/>
  <path class="g" d="M623.23,237.55s-9.85-1-7.27,11.31c0,0,.85,5.71,9.41,6.12,0,0,7.75-.2,7.44-7.24S626.65,237.08,623.23,237.55Z" transform="translate(-206.33 -99.89)"/>
  <path class="h" d="M615.19,239.57s-3.6-.38-2.66,4.13c0,0,.31,2.09,3.44,2.24,0,0,2.83-.07,2.72-2.64S616.44,239.4,615.19,239.57Z" transform="translate(-206.33 -99.89)"/>

  <g class="traene">
  <path class="tropfen" d="M296.77,290.76s-20.48,35.37-24.43,42.12-11.17,15.59-3.72,19.08,23,3.28,28.15-8.71,6.23-20,2.56-35.26S296.77,290.76,296.77,290.76Z" transform="translate(-206.33 -99.89)"/>
  </g>

  <g class="traene">
  <path class="tropfen" d="M330.57,301.13s14.17,15.19,24.87,23.21,33.51,33.44,13.28,48.8S335,362.31,335.59,359.63c0,0-1.67,1.07,0-10.7s1-18.18,0-24.6S330.57,301.13,330.57,301.13Z" transform="translate(-206.33 -99.89)"/>
  <path class="lichtfleck" d="M279.32,346.24s11.63,2.58,14.21-13.56Z" transform="translate(-206.33 -99.89)"/>
</g>


  <path class="lichtfleck" d="M363.91,368s6-12.13,4-19.42,6.63,5.49,6,9.71S363.91,368,363.91,368Z" transform="translate(-206.33 -99.89)"/>

  <g class="traene">
    <path class="tropfen" d="M309.35,353.91a124.86,124.86,0,0,0,11.77,22.65c8.13,12.58,18.62,32.66,9.81,44.43s-26.16,16.48-33.43,8.67-7.26-16.19-5.17-21.23S310.41,364.82,309.35,353.91Z" transform="translate(-206.33 -99.89)"/>
    <path class="lichtfleck" d="M312.69,425a37.56,37.56,0,0,0,14.39-18.53C331.51,393.87,326,431.6,312.69,425Z" transform="translate(-206.33 -99.89)"/>
  </g>

  <g class="traene">
    <path class="tropfen" d="M607.78,308.68S587.31,344,583.35,350.79s-11.17,15.59-3.72,19.08,23,3.28,28.15-8.71,6.23-20,2.56-35.26S607.78,308.68,607.78,308.68Z" transform="translate(-206.33 -99.89)"/>
    <path class="lichtfleck" d="M590.33,364.16s11.63,2.58,14.21-13.56Z" transform="translate(-206.33 -99.89)"/>
  </g>

  <g class="traene">
    <path class="tropfen" d="M627.08,336.44s9.57,11,16.79,16.8,22.63,24.21,9,35.33-22.78-7.85-22.37-9.78c0,0-1.13.77,0-7.74a57.35,57.35,0,0,0,0-17.81C629.79,348.6,627.08,336.44,627.08,336.44Z" transform="translate(-206.33 -99.89)"/>
    <path class="lichtfleck" d="M655.8,258.59s5.27-6.52,3.51-10.44,5.85,3,5.27,5.22S655.8,258.59,655.8,258.59Z" transform="translate(-206.33 -99.89)"/>
  </g>

  <g class="traene">
    <path class="tropfen" d="M613.78,387.6s2.93,9.52,5.94,15.18,7.5,21.41-5.37,24.22-12.9-11.45-12-12.52c0,0-1,.14,2.51-4.73a37.26,37.26,0,0,0,5.77-10.89C611.67,395.83,613.78,387.6,613.78,387.6Z" transform="translate(-206.33 -99.89)"/>
    <path class="lichtfleck" d="M615.09,420.89s4-4.42,2.64-7.07,4.4,2,4,3.54S615.09,420.89,615.09,420.89Z" transform="translate(-206.33 -99.89)"/>
  </g>
</svg>
