<?xml version="1.0" encoding="utf-8"?>
<!-- Generator: Adobe Illustrator 21.1.0, SVG Export Plug-In . SVG Version: 6.00 Build 0)  -->
<svg version="1.1" id="Ebene_1" xmlns="http://www.w3.org/2000/svg" xmlns:xlink="http://www.w3.org/1999/xlink" x="0px" y="0px"
	 viewBox="0 0 400 400" style="enable-background:new 0 0 400 400;" xml:space="preserve">
<style type="text/css">
	.st0{fill:#90EE90;}
	.st1{fill:#FFFFFF;}
	.st2{fill:#ADD8E6;}
	.st3{fill:none;stroke:#FFA500;stroke-width:5;stroke-linecap:round;}
	.st4{fill:#FFFF00;}
	.st5{stroke:#000000;}
	.st6{fill:none;stroke:#FF6347;stroke-width:6;}
</style>
<rect class="st0" width="400" height="400"/>
<g>
	<circle class="st1" cx="200" cy="200" r="150"/>
	<ellipse class="st2" cx="150" cy="150" rx="15" ry="30"/>
	<ellipse class="st2" cx="250" cy="150" rx="15" ry="30"/>
	<line class="st3" x1="200" y1="200" x2="200" y2="230"/>
	<g>
		<polygon class="st4" points="150,115 155.8,132.2 173.8,132.2 159.4,143 164.6,160.2 150,150 135.4,160.2 140.6,143 126.2,132.2
			144.2,132.2 		"/>
	</g>
	<g>
		<polygon class="st4" points="250,115 255.8,132.2 273.8,132.2 259.4,143 264.6,160.2 250,150 235.4,160.2 240.6,143 226.2,132.2
			244.2,132.2 		"/>
	</g>
	<path class="st5" d="M120,100h40V90"/>
	<path class="st5" d="M230,90v10h40"/>
	<path class="st6" d="M130,300c46.7,33.3,93.3,33.3,140,0"/>
</g>
</svg>
